<?xml version="1.0" standalone="no"?>
<!DOCTYPE svg PUBLIC "-//W3C//DTD SVG 1.1//EN" "http://www.w3.org/Graphics/SVG/1.1/DTD/svg11.dtd" >
<svg>
<metadata>
Created by FontForge 20130207 at Mon Jan  4 10:16:00 2016
 By Júlio César
Copyright (c) 2015 by MA^ns Grebck. All rights reserved.
</metadata>
<defs>
<font id="StackyardPERSONALUSE" horiz-adv-x="862" >
  <font-face 
    font-family="StackyardPERSONALUSE"
    font-weight="400"
    font-stretch="normal"
    units-per-em="2048"
    panose-1="0 0 0 0 0 0 0 0 0 0"
    ascent="1536"
    descent="-512"
    x-height="833"
    cap-height="1247"
    bbox="-599.853 -635.254 2843.11 1629.12"
    underline-thickness="102"
    underline-position="-102"
    unicode-range="U+000D-FB02"
  />
<missing-glyph horiz-adv-x="555" 
 />
    <glyph glyph-name="f_f" unicode="ff" horiz-adv-x="1077" 
d="M268 694q357 320 305 379q-39 39 -305 -379zM1124 1110q-38 38 -301 -365q235 181 276 263t25 102zM339 -98q-58 -144 -50 -161t38.5 12.5t99.5 125.5t162 260.5t120 255.5q-49 20 -72 49q-240 -398 -298 -542zM281 483q-96 7 -101 72q-346 -578 -391 -709t-38 -146
t46 24.5t126.5 155t210 318t147.5 285.5zM326 -397q-67 0 -112.5 83t-23.5 164q38 156 334 664q-91 -36 -170 -29q-26 -130 -141.5 -364t-245 -409t-209.5 -175q-54 0 -80.5 92t-1.5 193t228 478.5t363 613.5t229 266q45 18 79.5 -0.5t66.5 -84t-9 -173.5q-28 -70 -318 -269
q31 -16 45 -73v-5q86 -19 218 31q333 550 450 590q83 26 144 -43t40 -158q-10 -59 -170 -183.5t-305 -201.5l-30 -47q62 -9 81 -71v-7q105 -32 194.5 -6.5t113.5 36.5q49 23 57.5 1.5t-33.5 -47.5q-176 -106 -334 -92q-40 -222 -164 -441.5t-193 -276t-103 -56.5z" />
    <glyph glyph-name="fi" unicode="fi" horiz-adv-x="1030" 
d="M488 1004.5q-100 -128.5 -209 -304.5q70 68 137 132.5t145 153.5t53 118q-26 29 -126 -99.5zM1073 1105.5q71 24.5 113 -26.5q42 -52 -6 -106.5t-127.5 -77.5t-108.5 19t14.5 104.5t114.5 87zM-172 -88q-63 -154 -55 -171t39.5 17.5t98.5 130.5t173.5 293t128.5 275
q-39 14 -63 37q-259 -428 -322 -582zM1117.5 518q15.5 0 18 -11t-13.5 -27t-51 -54.5t-217.5 -232t-263.5 -193.5q-58 0 -111 55t-53 156t260 434q-242 -177 -393 -190q-27 -139 -119 -350t-205 -370t-188 -159q-58 0 -83.5 100.5t-2.5 195.5q23 94 235 478.5t375 612
t217 249.5q96 41 141.5 -51.5t4.5 -202.5q-21 -61 -178.5 -180t-219.5 -166q20 -18 27 -37q193 23 465 197q37 23 61 31q18 10 46 4t50.5 -21.5t32.5 -35t-2 -31.5t-51 -57.5t-131 -155.5t-176 -236.5t-53 -151.5q30 -25 222.5 130.5t241.5 202.5q50 47 74.5 57t40 10z" />
    <glyph glyph-name="fl" unicode="fl" horiz-adv-x="946" 
d="M488 1004.5q-100 -128.5 -209 -304.5q70 68 137 132.5t145 153.5t53 118q-26 29 -126 -99.5zM1108 1090q-25 21 -156 -134t-270 -372q152 108 278 255t143 193t5 58zM-182.5 -106.5q-52.5 -135.5 -44.5 -152.5t38.5 12.5t99.5 125.5t162 260.5t120 255.5q-47 18 -74 47
q-249 -413 -301.5 -548.5zM1056.5 511q-0.5 -13 -18.5 -31t-56 -58.5t-217.5 -225.5t-264.5 -198q-23 -4 -45.5 20.5t-53.5 116.5t48 262q-87 -28 -181 -20q-38 -214 -170.5 -446.5t-204 -293.5t-106.5 -61q-64 0 -89.5 100.5t-2.5 195.5q23 94 279.5 560t410.5 644
t225.5 140.5t74.5 -121t-13 -125.5t-66.5 -90.5t-119 -101.5t-144.5 -110.5t-139 -106.5q52 -23 69 -69v-7q92 -28 222 2q123 238 248.5 413t197.5 251t110 77q73 2 112.5 -84t21.5 -147q-35 -117 -225.5 -294t-350.5 -240q-138 -239 -121 -299q11 -44 170.5 68t290.5 243
q49 53 79 51t29.5 -15z" />
    <glyph glyph-name="g_g" unicode="gg" horiz-adv-x="1304" 
d="M668 242q37 -47 159 39q122 85 227 208q103 124 74 162q-37 50 -166 -32t-233 -208t-61 -169zM76 246q42 -42 175 61q132 104 231 233t71 165q-43 47 -180 -53t-238 -232t-59 -174zM943 763q183 85 247 -42q33 35 61 83q29 48 47 70q30 35 58 -24q27 -61 10 -82
q-71 -88 -156 -113q10 -128 -154 -317q-95 -109 -171 -163q-134 -95 -191 -83q-37 6 -65 51q-27 -25 -57 -53t-58 -54t-48 -48q-22 -22 -32 -29q12 4 101 35t169 38t103 -17q46 -48 24 -134t-76 -141q-53 -55 -143 -98t-194 -50q-103 -8 -147 0t-76 60q-31 53 18 53
q189 -8 367 51q164 54 178 112q6 28 -36 38q-85 20 -252 -14q-79 -15 -142 -37q-20 -6 -29 17q-19 56 18 132q18 37 51 55t106 72q73 53 124 84q-30 92 -8 168q59 168 216 293q69 55 137 87zM-300 -428q-76 0 -108 14q-53 23 -72 84q-18 59 31 51q207 -34 399 23
q83 26 135 60t59 66t-25 48q-72 35 -213 15q-70 -9 -133 -31q-20 -6 -29 16q-19 54 18 128q18 36 52 54l192 115q-64 163 59 329t286 256q75 40 125 47t91 -23t60 -83q35 39 69 97t50 82q27 39 60 -14q33 -54 19 -81q-33 -53 -87 -92t-101 -49q0 -103 -84 -220
q-154 -213 -320 -322q-104 -68 -155 -29q-16 12 -33 32q-49 -41 -90 -77t-64 -52q127 42 218 34q92 -9 100 -93q13 -134 -99 -255q-36 -38 -107 -69t-149 -46t-154 -15z" />
    <glyph glyph-name="l_l" unicode="ll" horiz-adv-x="860" 
d="M244 672q376 387 336 434q-24 24 -151.5 -161t-184.5 -273zM876.5 977q-135.5 -166 -260.5 -359q239 233 346.5 352t78.5 146t-164.5 -139zM968.5 511q-0.5 -13 -18.5 -31t-56 -58.5t-217.5 -225.5t-264.5 -198q-43 -4 -76.5 68.5t-22.5 171.5q-47 -49 -94 -98.5
t-90 -88.5t-78 -64.5t-57.5 -29.5t-45 20.5t-47 100.5t8.5 190q42 158 232.5 468t271 393t114.5 84q71 2 110 -71t23 -122t-52 -95t-86 -96.5t-139.5 -130t-111.5 -96.5l-137 -110q-173 -295 -153 -369q14 -68 380 274q105 223 275.5 474.5t242.5 317.5t105 67t62.5 -24.5
t57 -85.5t12.5 -112q-15 -53 -59 -104t-123.5 -126.5t-230 -192.5t-169.5 -136l-17 -14q-136 -236 -119 -297q11 -44 170.5 68t290.5 243q49 53 79 51t29.5 -15z" />
    <glyph glyph-name="m_m" unicode="mm" horiz-adv-x="2097" 
d="M1596 60.5q-49 60.5 -37 120.5q22 109 124 241q45 63 101 127q-54 -24 -262 -224.5t-252 -267.5q-25 -33 -42.5 -26.5t-34.5 48.5t5 79q6 10 26.5 38.5t48 68.5t95 136t121.5 185q-155 -132 -333.5 -312.5t-229.5 -263.5q-10 -16 -27.5 -11t-44.5 35.5t-8 67.5
q4 10 21.5 44t58 115.5t104.5 195.5q-59 -76 -121.5 -157t-156 -189.5t-120.5 -108.5q-54 0 -93 59.5t-28 119.5q20 106 124 241q45 63 100 127q-73 -32 -275.5 -236.5t-232.5 -246.5q-49 -67 -75 -6t-2 98q6 10 27.5 40.5t51 72.5t63.5 91.5t65.5 96.5t58 86t39.5 61
q-263 -223 -408 -390t-170 -206q-10 -16 -27.5 -11t-44.5 35.5t-8 67.5q6 12 31 60.5t79 154t147.5 260.5t132.5 187t99.5 14t34.5 -54q-15 -20 -91.5 -110.5t-163.5 -259.5q27 33 66.5 82t185.5 223t195 186q52 13 81 -51.5t19 -85.5q-9 -22 -41.5 -75t-72.5 -112.5
t-49 -72.5l-69 -104q4 4 31.5 36t68.5 76t89 96t123 127.5t95 84.5q20 8 41 -7.5t45.5 -59t-6.5 -87.5q-64 -82 -131 -194.5t-107.5 -190t-25.5 -92.5q18 -18 287.5 267.5t296.5 312.5q36 49 54 65q37 32 97.5 13t34.5 -52q-16 -23 -93 -119.5t-167 -265.5
q216 268 291.5 340t110 80.5t74.5 -53t26 -94.5q-22 -44 -73.5 -118.5t-79 -114.5t-33.5 -48q10 10 48 52t101.5 111t198.5 206.5t155 145.5q20 7 41 -8t45.5 -60t-6.5 -86q-75 -97 -160.5 -230t-138.5 -225.5t-37 -109.5t189.5 129.5t217.5 190.5t72.5 59.5t44 14.5
t13.5 -16.5t-26 -39.5t-61.5 -65.5t-85.5 -95t-100.5 -109.5t-130.5 -133t-121 -77q-44 0 -93 60.5z" />
    <glyph glyph-name="n_n" unicode="nn" horiz-adv-x="1482" 
d="M195 756q15 10 55 10t60 -18t7 -33q-136 -150 -266 -361q166 208 308 347t181 143q38 4 62 -21t37 -59q12 -34 11 -72q-1 -37 -19 -56q-19 -20 -57 -66q-251 -303 -313 -431q-19 -39 -11 -46t44 24t91 87t125 130t144 152t145 154q72 77 133 138q45 64 63 78t54 9t56 -28
q19 -25 3 -43q-159 -184 -315 -440q232 290 392 412q74 56 121 9t47 -130q-1 -37 -19 -56q-36 -37 -135 -161q-98 -124 -137 -191q-75 -127 -43 -133t157 92t307 279q55 55 93 52q42 -3 -22 -65q-38 -38 -94 -100q-220 -240 -339 -318q-118 -79 -195 -44q-77 36 -14 191
q63 156 223 360q-97 -42 -297 -280q-120 -140 -160 -194q-41 -53 -54 -66t-50 -6t-48 39t49 140q123 224 201 351q-74 -87 -150 -183q-286 -357 -358 -362q-51 -4 -89 54q-65 99 4 205t159 208q90 101 145 166q-123 -53 -443 -408q-111 -126 -155 -197q-12 -23 -41 -17
q-54 11 -64 45q-6 16 18 72q70 163 212 384q141 222 181 254z" />
    <glyph glyph-name="p_p" unicode="pp" horiz-adv-x="1341" 
d="M711 236q31 -82 69 -82q56 0 169 128t205 285t79 185q-20 37 -190 -127q-170 -165 -332 -389zM66 111q56 0 168 129t211 299q99 171 90 219q-7 22 -63 -18q-121 -86 -307 -316q-91 -113 -165 -234q31 -79 66 -79zM348 994q43 14 77 10q35 -4 51 -21t-6 -36
q-79 -67 -233 -297q-50 -75 -102 -161q97 151 202 264q104 113 152 119q106 13 133 -153q5 -37 2 -67q-12 -118 -197 -382q-106 -151 -216 -230q-53 -38 -94 -42t-88 29t-88 88q-95 -164 -153 -299t-69 -205q-4 -19 -19 -17q-16 2 -32 20q-43 48 -38 118q5 69 103 257
q247 474 378 689q130 215 162 259t75 57zM563 382q0 34 20 75q19 41 43 69t40 34q16 7 10 -23q-10 -35 -6 -82q199 333 254 412q56 79 80 111t62 45t69 13t46 -12t-9 -30q-24 -19 -66 -69q-157 -189 -313 -468v-1q178 264 309 380q88 76 146 25q47 -41 65 -131q6 -36 1 -86
t-67 -164q-158 -289 -315 -399q-51 -36 -92 -40t-91 28t-94 85l-20 -35q-183 -324 -227 -473q-12 -35 -64 -5q-53 30 -50 61q10 111 284 595q-15 51 -15 85z" />
    <glyph glyph-name="r_r" unicode="rr" horiz-adv-x="1110" 
d="M1189 524q30 0 31.5 -11t-20.5 -33t-57 -62.5t-189 -217.5t-249 -177q-48 0 -86.5 102.5t15.5 206.5t134 213.5t115 169.5q-45 -2 -70 -8q-523 -727 -672 -727q-47 0 -86.5 104.5t18 200t149 212.5t126.5 177l-110 -8q-82 -131 -210 -259t-169 -139.5t-43 0t18 31.5
q139 139 214 247.5t79 155.5q-39 39 -44.5 88t20.5 71t46.5 28t39 3t26.5 -15.5t36.5 -53.5t14.5 -86q112 19 195 97q18 16 36.5 8t31 -28.5t16.5 -46.5t-6.5 -42t-46 -62.5t-112.5 -141t-173.5 -235.5t-85.5 -171q17 -57 205.5 141t282 312t126.5 161q-57 57 -69.5 91
t-6.5 48q20 51 56.5 58.5t69 -14t52 -59.5t5.5 -75q59 9 94 40.5t56 51.5t40 12t31 -28t16 -46t-6 -42t-44 -62.5t-199 -270.5t-146 -275q9 -26 140.5 68.5t285.5 248.5q49 49 79 49z" />
    <glyph glyph-name="s_s" unicode="ss" horiz-adv-x="937" 
d="M127 600q69 48 131 103q63 55 58 65q-6 10 -36 -5t-72 -52t-73 -90q-4 -5 -5 -11t-3 -10zM784 733q-107 0 -164 -61q-56 -61 -8 -106q23 -22 52 -46q28 -24 54 -54t34 -102t-36 -155q-44 -82 -113 -138t-145 -82q-76 -27 -129 -7q-52 20 -73 61q-20 41 -19 79t18 60
t44 -2q49 -41 107 -50t106 5q49 14 84 47t38 72t-17 72t-71 81t-71 85q-23 37 -5 97q40 131 188 225q72 46 142 51t98 -25t35 -68t-3 -64t-35 -10q-57 35 -111 35zM-2 536q0 74 95 175t202 149q106 47 154 -2q34 -38 -5 -111q-39 -74 -108 -120q-37 -27 -98 -56t-115 -39
q10 -36 35 -68q106 -138 45 -280q-37 -84 -105 -137t-140 -73t-129 -3q-58 16 -75 68t15 116q12 26 28 42q17 16 29 10q12 -7 16 -21q20 -72 74 -95q55 -23 102 11q46 34 64 82t6 92t-72 179q-18 43 -18 81z" />
    <glyph glyph-name="t_t" unicode="tt" horiz-adv-x="911" 
d="M326 766l104 104q-10 2 -29 2q-18 -27 -37.5 -52t-37.5 -54zM853 862h-32q-52 -67 -116 -160q51 47 89.5 87t73.5 75q-12 -2 -15 -2zM989 989q69 80 57 99q-13 20 -131 -109zM508 950q92 98 125 141.5t24 57.5q-10 14 -65 -43t-131 -156h47zM657 862q-63 0 -133 4
q-25 -23 -92.5 -79.5t-226.5 -200.5q-160 -252 -178.5 -330t-6.5 -91q24 -25 137 48t238 186q65 186 262 463zM397.5 82.5q-44.5 88.5 -28.5 204.5q-119 -142 -190 -211.5t-124 -69.5q-31 0 -58.5 25.5t-61 125.5t54 295.5t256.5 434.5q-116 14 -187 31q-30 7 -10 36t74 17
q53 -12 172 -19q183 243 285 303q23 12 52.5 3t70 -56t10.5 -149q-13 -38 -72 -97l92 7q143 174 236 231q23 12 52.5 4t70.5 -51t22 -129l-4 -10q114 23 174 43t70 4.5t-14.5 -64t-118.5 -77.5q-93 -30 -224 -42q-80 -72 -188.5 -156.5t-210.5 -176.5q-201 -343 -123 -414
q43 -43 436 350q67 67 93 63.5t23 -20t-25 -38.5t-58.5 -65.5t-80.5 -97t-95 -110.5t-130 -135t-138 -78q-58 0 -102.5 88.5z" />
    <glyph glyph-name=".notdef" horiz-adv-x="555" 
 />
    <glyph glyph-name=".null" horiz-adv-x="0" 
 />
    <glyph glyph-name="nonmarkingreturn" unicode="&#xd;" horiz-adv-x="555" 
 />
    <glyph glyph-name="NULL" horiz-adv-x="0" 
 />
    <glyph glyph-name="NULL" horiz-adv-x="0" 
 />
    <glyph glyph-name="space" unicode=" " horiz-adv-x="555" 
 />
    <glyph glyph-name="exclam" unicode="!" horiz-adv-x="538" 
d="M178 367q-22 -1 -28 29q-7 30 -3 52t54 103q50 80 175 238q196 247 290 325q49 41 140 15q34 -9 48 -27t-13 -35q-26 -16 -173 -166q-411 -411 -466 -511q-14 -24 -24 -23zM-24 152q51 63 102 63t80 -43q12 -18 12 -41t-18 -47q-35 -47 -113 -60q-78 -12 -96 25
q-18 38 33 103z" />
    <glyph glyph-name="quotedbl" unicode="&#x22;" horiz-adv-x="495" 
d="M508 1137q42 9 58 -5t-17 -45q-90 -84 -159 -173q-69 -90 -85 -110q-34 -44 -72 -41q-35 3 -14 59q12 32 35 98t66 114t95 71q52 24 93 32zM710 1118q36 0 46 -18t-23 -50q-115 -108 -176 -181t-81 -84q-42 -24 -52 0q-11 24 31 112q103 221 255 221z" />
    <glyph glyph-name="numbersign" unicode="#" horiz-adv-x="980" 
d="M590 494l-158 -2q-51 -56 -100 -119l180 6zM122.5 283q-10.5 0 -28.5 4t-33.5 22.5t-18.5 37t7 30.5t29 6t127 -10q50 81 80 121q-69 12 -74.5 46.5t4.5 47t28 6.5t109 -10q102 134 153 164q50 30 98 7.5t58.5 -39t-25 -34t-116.5 -98.5l139 6q106 137 172 180
q36 24 86 3t61 -37.5t-23 -34.5t-121 -101q12 0 32 3t32.5 -10t4.5 -31.5t-37.5 -37t-79.5 -20.5l-45 -4q-25 -29 -50 -56.5t-48 -56.5q23 0 49 4t39.5 -9t4.5 -31.5t-37.5 -37t-58.5 -20.5t-44 -3t-31 -1q-76 -99 -89 -124q-23 -45 -54.5 -20t-7.5 68q8 21 39 72
q-98 -4 -195 -4q-90 -121 -100 -140q-10 -20 -25.5 -21t-36.5 15.5t2 61.5q6 12 18.5 33.5t28.5 50.5q-12 2 -22.5 2z" />
    <glyph glyph-name="dollar" unicode="$" horiz-adv-x="1867" 
d="M784 1104v26q-17 0 -4 -26h4zM1442 1243q-37 -37 -49 -86q16 20 31.5 40t19.5 46h-2zM655 987q12 -2 28.5 15.5t19.5 26.5t-3 13.5t-18 -8.5t-27 -47zM895 1061q-24 -32 -21 -47q4 -12 25 -8.5t-4 55.5zM907 -266q-8 46 -20 92l-21 -92h41zM1071 -231q18 0 26.5 10
t5 32.5t-37.5 18.5q-10 -2 -8 -26.5t2 -34.5h12zM1304.5 -358q-30.5 0 -30.5 30q0 14 9 22.5t30.5 8t21.5 -30.5t-30.5 -30zM745.5 -358q-30.5 0 -30.5 30q0 14 9 22.5t30.5 8t21.5 -30.5t-30.5 -30zM995 1044q10 -14 25 -6q16 4 23.5 21t4.5 31q-7 33 -30 18
q-22 -16 -27 -49zM1300 1133q-2 8 -4 13t-21 -4t-27 -34q-7 -26 -2 -43.5t27 2.5q22 19 27 66zM1194 733h-61v-71q20 0 45.5 2t27.5 32q0 37 -12 37zM530 950q31 9 55 53.5t16 71.5q-7 27 -34 27q-14 -37 -20.5 -75t-16.5 -77zM1192 -133h53v-223h-53v223zM434 922
q45 0 66 48.5t37 127.5q-44 -9 -97 -62q-14 -14 -25.5 -49t-9 -50t28.5 -15zM844 47q0 -30 38 -35t42 23q-10 155 -80 244v-232zM639 169v-81q0 -31 31.5 -41t38.5 25q2 12 2 16v188q0 31 -22.5 39.5t-34 2t-14.5 -21.5t-2 -30.5t1 -96.5zM1229 179q0 -22 -3 -55.5t13 -51.5
h-76q18 18 14.5 53.5t-3.5 58.5q-43 82 -50.5 122t-25.5 56h78q-16 -38 28 -126q36 87 23 126h80q-23 -12 -27 -38.5t-10 -47t-23.5 -48t-17.5 -49.5zM1663 -131h19q19 0 34 -4t15 -6l-9 -41q-50 22 -84.5 -10.5t-18.5 -81.5q17 -49 62 -43q10 2 8.5 21.5t-1.5 27.5h-27v41
h76v-121q-84 -33 -125 5t-49.5 75t9.5 73t45.5 50t45.5 14zM979 -356h-51l-15 51h-53l-10 -51h-53l59 223h64zM1008 176v127q0 16 1 29.5t-12 29.5h76q-18 -18 -16 -56t4 -59.5t2 -35.5v-166h104q23 0 55.5 -3t55.5 13q-4 -8 -7 -29.5t-14 -21.5h-260q27 31 19 93.5t-8 78.5
zM1532 -356h-51q-20 39 -37 78.5t-35 76.5q2 -39 2 -49v-106h-47v223h57l68 -152q-4 39 -4 49v103h47v-223zM1059 -356h-53v221q92 13 127 -8q31 -23 22.5 -58t-37.5 -49q25 -11 30 -37t7 -41.5t8 -27.5h-51q-6 12 -8 27.5t-9 38.5t-36 20v-86zM674 -299q3 64 18 166h41
l-41 -223h-43q-8 37 -12 73.5t-10 73.5q-2 -16 -23 -147h-43l-39 223h45q4 -41 9.5 -83t9.5 -83q8 86 24 166h39zM455 -299l18 166h43l-43 -223h-41q-12 56 -22 147q-2 -15 -23 -147h-45l-37 223h45q4 -41 8 -83t11 -83q8 86 24 166h39zM238 -299l18 166h43l-43 -223h-43
q-12 76 -20 147l-25 -147h-43l-39 223h47q4 -41 7 -83t12 -83q8 86 24 166h37zM998.5 684q15.5 0 21.5 -5t4 -13q14 2 14 12t-13.5 29t-29.5 24q-48 13 -59 -18q-20 -42 8.5 -66t49 -37.5t33.5 -30.5q34 -45 25.5 -100t-67.5 -63q-27 -2 -53.5 -1t-54.5 1q11 6 1 38.5
t-13 52t7.5 32t33 13.5t26.5 -22q0 -20 -21.5 -20t-21.5 18q-12 -4 -12 -14t12 -28t28 -23q15 -4 35.5 -4t35.5 15t11 35.5t-19 38t-35.5 32t-34.5 27.5q-40 35 -40 107t70 67t94 -5l-6 -10q0 -14 7 -29.5t17.5 -40.5t-8.5 -41q-20 -16 -39.5 -15.5t-20.5 22.5t14.5 22z
M1077 717q0 45 -12 59h127q42 -42 16 -127q-4 -8 -35.5 -70t-1.5 -77q-6 12 4.5 13t21.5 -4t14 -14.5t-17 -17.5q-25 -10 -35 9.5t-8 35.5q0 16 6 32.5t8 31t-4 22.5t-28 6v-155q16 0 41.5 -3t44.5 11l-15 -53h-139q12 14 12 53v248zM822.5 778q21.5 0 28.5 -16t-1 -21.5
t-18.5 -4.5t-17.5 8.5t1 15.5q-38 -19 14.5 -139.5t1.5 -186.5q-24 -34 -93.5 -26t-84.5 8q27 32 19 94.5t-8 81.5v125q0 16 1 30.5t-12 28.5h76q-14 -12 -12 -32.5t2 -36.5v-142q0 -16 -2 -49t10 -47q14 -23 37.5 -8.5t29.5 37.5t1 50.5t-9 47.5t-19.5 82t24.5 90
q10 10 31.5 10zM375 945q0 28 12 52q41 93 139 121q10 4 21.5 12.5t21.5 10.5q12 -1 6 -13q57 0 62 -49q6 -43 -23.5 -83t-57.5 -57t-37 -36.5l-18 -39t-20.5 -38t-34.5 -28.5q-23 -15 -44 -11q-39 8 -35 39q0 23 14.5 38.5t28.5 18.5t23 -1t5 -15q-12 -8 -23 -10t-17.5 -20
t31 -26.5t50.5 50t17 72.5q-27 -27 -58 -33t-47 10q-16 8 -16 36zM584 224v52q0 49 26.5 67.5t73.5 18.5q90 0 85 -83.5t-5 -110.5v-80q0 -88 -98 -84q-92 0 -87 84t5 136zM788 340q0 10 -8 22h58q40 -16 86 -116q0 25 2 59.5t-13 56.5h74q-12 -10 -11 -24t1 -29v-246
q0 -14 -1 -31.5t11 -27.5h-207q25 35 16.5 91.5t-8.5 72.5v172zM315 828q0 17 4 83q-112 -30 -229 -92q68 -37 109 -108q3 -3 -31.5 -68t-52.5 -119q72 38 170 53t152.5 22t107.5 24q-43 43 -125 35.5t-105 -9.5v179zM1357 788h126q113 0 157 -14t66.5 -29.5t48.5 -27.5
q0 61 -21.5 106t-80.5 68q92 81 145 102q-91 87 -237 123q-2 -57 -3.5 -112.5t-5.5 -112.5l-2 2v-6q-27 -2 -120.5 -7t-135.5 -67q-8 -6 4 -8q46 -17 59 -17zM805 987q31 0 51.5 46t31.5 71.5t25 34.5q8 2 17 -2q7 -13 -4.5 -28t-5.5 -29t13 -27t5 -27h2q20 25 32.5 60.5
t45.5 52.5q37 14 49 -21q10 -14 6 -25.5t-2 -27.5q8 2 14 10q16 12 18.5 35t8.5 41q9 9 23 4q10 -2 8 -12v-2q39 39 53 4q6 -16 -8 -46.5t-12 -43.5q21 18 36 44.5t33 53t68 10.5q4 6 22 9.5t-1 -35.5t-19 -60q0 -14 8 -2q24 24 41.5 77.5t31.5 79.5t36 38t33 -8t3 -45
t-23 -42t-44 -43t-25 -53q4 -16 20 -11t23.5 18.5t16.5 25.5q4 2 12 2t8 -10q-17 -50 -57 -66q-25 -14 -43 15q-4 4 -4 10q-10 -8 -23 -23t-41 4q-9 -9 -34 -15q-25 -5 -37 22v2q-18 -22 -41 -29q-14 -8 -22 8q-11 21 2.5 49.5t10.5 44.5q-35 -16 -40 -52t-11 -51t-19 -10
t-14 13q0 4 1 9t1 7q-14 -4 -19 -4t-15.5 -10t-36.5 -26t-45 22q-51 -51 -90 -45q-16 2 -25 18q-24 -29 -52 -39t-32 23q-4 27 8.5 44t18.5 29t1 13.5t-7 -2.5q-39 -98 -70 -117.5t-59 -17.5t-33.5 22.5t5.5 46t31.5 46t38.5 21.5t23 -10q6 -11 0 -31t-27.5 -37t-44.5 -21
q6 -36 65 14q21 18 50 94q4 4 -9 24.5t-6 40.5t25 18t22 -14q4 -11 2.5 -23.5t-1.5 -24.5q20 2 28.5 -1t-1.5 -23t-19.5 -38t-10.5 -32t5 -15zM1536 1048.5q0 57.5 3 120.5t7 91t-4 36.5t-20.5 13.5t-26.5 7t-27 4q-119 18 -245.5 1t-250.5 -43q-312 -65 -499 -146
q-68 -36 -89.5 -53t-25.5 -50t-10 -77t-6 -61v-183q25 0 58.5 24.5t57.5 34.5q51 22 169 59q119 38 310 79t275 48q83 8 165.5 11.5t152.5 -29.5q6 55 6 112.5zM35 813q160 85 282 121q6 0 17.5 68t15.5 77q23 35 68 53.5t78 34.5q116 46 362 113q195 48 379 63
q181 22 246 5t92 -43q5 -10 -8 -62l-6 -98q0 -3 41 -15t115.5 -47.5t123.5 -105.5q-41 10 -87 -28t-56 -50q57 -30 76 -108t-5 -146q-39 104 -146 111.5t-149 10.5t-117.5 0t-88 38t-7.5 78t7 51q-335 -26 -715 -158q-8 -2 -7 -9t18.5 -76t-3.5 -85t-56.5 -19t-69.5 -8
q-198 -29 -246 -50q-49 -21 -68.5 -27.5t-36 -26.5t-23.5 -24q10 35 24.5 68t22.5 51t38.5 73t25.5 66q-25 35 -58.5 67.5t-78.5 36.5z" />
    <glyph glyph-name="percent" unicode="%" horiz-adv-x="1067" 
d="M350 718q-34 -40 -50 -79t2 -61q33 -40 113 2q81 42 126 114q47 82 -15 152q-98 -39 -176 -128zM649 352q-285 -285 -209 -350q47 -39 135 28t121 160t-47 162zM670 438q41 18 69 8q133 -54 89 -217q-19 -69 -67 -139q-49 -70 -111 -117t-129 -61t-122 26q-98 71 -65 201
q33 129 268 328q16 16 36 5t32 -34zM682 778q112 94 180 124t124 33q125 7 134 -34q4 -18 -62 -47q-66 -30 -170 -102q-206 -142 -407 -330t-339 -334t-167 -182t-84 -28q-57 8 -11 64q240 297 495 552q-74 -8 -116 36t-49 92t8 94q28 86 119 159t162 78q70 6 83 -38
q18 2 36 -6q73 -44 64 -131z" />
    <glyph glyph-name="ampersand" unicode="&#x26;" horiz-adv-x="1150" 
d="M420 575q220 131 291 185q71 53 105 94t24 80t-109 -10q-100 -50 -198 -153q-99 -102 -113 -196zM449 176q-51 90 -95 205q-217 -139 -256 -205q-16 -29 -4 -49q29 -53 119 -43t236 92zM636 429q-13 27 -14 55t10 46t43 3q32 -14 105 -21t155 5q81 13 109 21t41 -2
q14 -11 -22 -44t-166 -70q-23 -77 -62 -116t-202 -144q66 -45 145 -29q39 7 35 -19t-34 -61q-29 -35 -73 -63t-74 -26q-51 5 -126 118q-257 -156 -330 -160q-41 -2 -83 33q-92 77 -109 191t56 181q73 68 277 189q-18 91 -2 145q17 55 73 123q117 141 286 230q80 41 131 38
q92 -5 105 -102q15 -92 -38 -196q-38 -78 -282 -229q-68 -42 -137 -85q51 -123 104 -198q120 81 213 153q-59 -6 -90 0t-44 34z" />
    <glyph glyph-name="quotesingle" unicode="'" horiz-adv-x="317" 
d="M527 1118q37 0 47 -18t-23 -50q-115 -108 -176 -181t-81 -84q-42 -24 -52 0q-11 24 31 112q76 163 172 203q46 18 82 18z" />
    <glyph glyph-name="parenleft" unicode="(" horiz-adv-x="704" 
d="M859 1109q39 -3 57 -14t-27 -37q-238 -137 -418 -354t-222 -567q-23 -196 1 -260q8 -27 1 -38q-16 -24 -60 17q-45 41 -49 141q-6 184 36 354q41 170 76 255q56 137 198 278t255 208q18 10 65 15t87 2z" />
    <glyph glyph-name="parenright" unicode=")" horiz-adv-x="704" 
d="M27 -109q-18 -10 -96 -18q-79 -8 -115 15q-18 11 28 37q238 137 421 357t219 562q11 92 11 164q-1 72 -11 98t-3 38q18 24 59 -17q19 -19 34 -53q33 -75 7 -294t-110 -422q-48 -117 -189 -257t-255 -210z" />
    <glyph glyph-name="asterisk" unicode="*" horiz-adv-x="563" 
d="M766 984q0 -16 -28 -13q-57 3 -277 -105l42 -42q19 -19 45 -41t22 -43q-6 -37 -48 -13l-116 72q-30 -71 -42 -113t-23 -48t-21 -3q-27 10 -25 45t22 117q-41 -23 -77 -42t-62 -33q-24 -14 -35 -7q-11 8 17 48q29 41 63 62q35 22 72 45q-35 23 -62 42q-27 18 -44 30
t-12 37q10 50 62 74q24 10 40 -4l81 -80q39 144 60 162q20 18 73 20t84 -29q15 -14 -1 -26t-74 -101q143 80 169 79q51 -2 83 -55q12 -19 12 -35z" />
    <glyph glyph-name="plus" unicode="+" horiz-adv-x="966" 
d="M179 172q24 64 104 215q-166 -25 -190 -36q-44 -20 -26 27t68 73q18 12 209 45q87 152 118 187q30 34 76 52q46 19 82 19t46 -18t-26 -53q-36 -34 -130 -161q172 24 201 20q31 -3 41 -29q23 -58 -22 -103q-19 -20 -45 -12q-67 19 -261 3l-166 -231q-29 -37 -51 -37
q-43 1 -28 39z" />
    <glyph glyph-name="comma" unicode="," horiz-adv-x="468" 
d="M-104 7q36 53 68 111t38 103t28 46t44 -23t34 -64q37 -115 -140 -242q-46 -34 -86 -52q-89 -41 -45 31q24 38 59 90z" />
    <glyph glyph-name="hyphen" unicode="-" horiz-adv-x="806" 
d="M146 353q-5 13 2 33q6 20 26 45q20 24 44 36q24 11 70 25q193 57 251 51q19 -2 39 -29q47 -62 34 -107q-6 -22 -43 -13t-120 7t-165 -20q-81 -17 -107 -29t-31 1z" />
    <glyph glyph-name="period" unicode="." horiz-adv-x="471" 
d="M149 184.5q21 -30.5 21 -53t-27 -59t-104.5 -49t-95.5 25.5q-18 39 33.5 102.5t101.5 63.5t71 -30.5z" />
    <glyph glyph-name="slash" unicode="/" horiz-adv-x="698" 
d="M1027 1159q125 0 158 -39q15 -18 -22 -35q-200 -89 -524 -368q-325 -280 -633 -596q-131 -134 -227 -252q-13 -17 -29 -19t-26 10t-10 31q3 61 445 531q442 471 672 655q60 48 100 65t96 17z" />
    <glyph glyph-name="zero" unicode="0" horiz-adv-x="1871" 
d="M784 1104v26q-17 0 -4 -26h4zM1442 1243q-37 -37 -49 -86q16 19 31 39t20 47h-2zM655 987q12 -2 35 22t11 32t-26 -16t-20 -38zM895 1061q-23 -30 -21 -47q4 -12 16 -10q30 5 5 57zM907 -266q-9 52 -20 92l-21 -92h41zM1071 -231q18 0 31 15t-3 32q-15 16 -34 14
q-10 -2 -8 -27t2 -34h12zM1335 -328q-1 -30 -31 -30t-30 30t31 31q12 0 21 -8t9 -23zM776 -328q0 -30 -30 -30t-31 30q0 14 9 22t21 9q11 0 21 -8t10 -23zM995 1044q10 -14 25 -6q16 4 27 30t-10 42q-7 6 -24 -6t-22 -45zM1300 1133q-2 8 -4 13t-21 -4t-27 -34
q-7 -26 -2 -44t27 3q22 19 27 66zM1156 733h-23v-71q20 0 46 2t27 32q0 37 -50 37zM530 950q31 9 55 53t16 72q-7 27 -34 27q-15 -37 -21 -75t-16 -77zM1192 -133h53v-223h-53v223zM434 922q44 0 74 66q13 31 29 110q-47 -10 -97 -62q-6 -6 -15 -25q-42 -89 9 -89zM844 47
q0 -28 38 -34t42 22q-10 157 -80 244v-232zM639 238v-150q0 -31 30 -41t40 25q2 12 2 27v177q0 32 -32 43t-40 -24q-2 -13 -1 -29t1 -28zM1229 178q0 -22 -3 -54q-3 -34 13 -52h-76q19 18 15 54t-4 58q-42 80 -50 121q-8 42 -26 57h78q-16 -38 28 -126q36 87 23 126h80
q-23 -12 -29 -53t-28 -75q-21 -34 -21 -56zM1663 -131h27q12 0 26 -4t15 -6l-9 -41q-51 23 -85 -10t-18 -82q17 -49 62 -43q10 2 9 21q-2 19 -2 28h-27v41h76v-121q-83 -32 -142 20q-25 23 -32 60q-8 37 9 73t45 50t46 14zM979 -356h-51l-15 51h-53l-10 -51h-53l59 223h64z
M1008 176v127q0 15 1 29t-12 30h76q-17 -17 -16 -56q2 -38 4 -60t2 -35v-166h104q23 0 56 -3t55 13q-4 -7 -7 -29t-14 -22h-260q27 32 14 132q-3 24 -3 40zM1532 -356h-51q-21 38 -37 78t-35 77q2 -39 2 -78v-77h-47v223h57l68 -152q-4 39 -4 77v75h47v-223zM1059 -356h-53
v221q92 13 127 -8q31 -23 23 -58t-38 -49q25 -11 30 -37q5 -25 7 -41t8 -28h-51q-6 12 -8 27q-8 61 -45 59v-86zM674 -299q3 64 18 166h41l-41 -223h-43q-8 38 -12 74t-10 73q-3 -26 -23 -147h-43l-39 223h45q3 -41 9 -83t10 -83q8 86 24 166h39zM455 -299l18 166h43
l-43 -223h-41q-12 56 -22 147q-3 -26 -23 -147h-45l-37 223h45q4 -41 8 -83t11 -83q8 86 24 166h39zM238 -299l18 166h43l-43 -223h-43q-12 76 -20 147l-25 -147h-43l-39 223h47q4 -41 7 -83t12 -83q8 86 24 166h37zM1006 684q8 0 14 -5t4 -13q14 2 14 15t-18 31t-30 20
q-41 11 -53 -17q-19 -42 19 -78q16 -13 36 -27t34 -28q35 -50 29 -88q-11 -71 -70 -78q-27 -2 -53 -1t-55 1q11 6 -4 55q-15 50 -3 65t35 16t27 -22q0 -20 -22 -20t-21 18q-12 -4 -12 -17t17 -29q18 -16 28 -20q10 -3 30 -3t36 15q30 29 -8 74q-16 18 -36 32q-72 51 -73 103
q-2 80 57 91q26 6 54 4t52 -2l-6 -10q0 -15 14 -45q14 -31 12 -45t-16 -26t-33 -10q-19 0 -21 22t22 22zM1077 717q0 45 -12 59h127q42 -42 16 -127q-4 -7 -15 -29q-53 -104 -22 -118q-5 12 5 13t21 -4t14 -14t-17 -18q-25 -10 -38 14t-3 52q10 29 12 43t-4 22t-28 6v-155
q16 0 42 -3t44 11l-15 -53h-139q12 14 12 53v248zM664 592v125q0 17 1 31t-12 28h76q-14 -12 -12 -32t2 -37v-142q0 -16 -2 -49t10 -47q14 -23 38 -9q42 26 31 88q-6 27 -10 54q-50 176 36 176q22 0 29 -16t-1 -22t-18 -4q-10 1 -18 8q-7 7 1 16q-39 -20 14 -140t2 -186
q-24 -34 -137 -21q-27 3 -41 3q27 32 14 134q-3 24 -3 42zM375 945q0 28 12 52q41 93 139 121q10 4 22 12t21 11q12 -1 6 -13q57 0 62 -49q6 -43 -24 -83t-57 -57q-26 -17 -36 -37l-19 -38q-9 -20 -21 -38t-34 -29q-23 -15 -44 -11q-39 8 -35 39q0 46 51 58q6 2 15 -2t5 -15
q-12 -8 -23 -10t-18 -20t13 -22q42 -10 64 42q9 20 13 40t9 36q-27 -27 -58 -33t-47 10q-16 8 -16 36zM584 199v77q0 49 26 68q27 18 74 18q90 0 82 -134q-2 -34 -2 -60v-80q0 -86 -98 -84q-92 0 -84 134q2 34 2 61zM788 340q0 10 -8 22h58q44 -18 86 -116q0 26 2 60t-13 56
h74q-12 -10 -11 -24t1 -29v-246q0 -14 -1 -31t11 -28h-207q24 34 12 125q-3 23 -4 39v172zM315 780q0 65 4 131q-98 -27 -229 -92q68 -37 109 -108q5 -5 -17 -42q-22 -38 -26 -51q-25 -45 -41 -94q70 36 169 52t153 23t108 24q-43 43 -174 31q-33 -3 -56 -5v131zM1393 789
q57 -1 131 -1t116 -14q44 -14 66 -30t49 -27q0 61 -21 106q-22 45 -81 68q92 81 145 102q-91 88 -237 123q-2 -57 -3 -112t-6 -113l-2 2v-6q-26 -2 -64 -4q-152 -8 -192 -70q-8 -6 4 -8q38 -15 95 -16zM805 987q32 0 62 71t42 77t21 2q6 -13 -4 -28t-5 -29t12 -26
q7 -13 5 -28h2q20 24 32 60t46 53q37 14 49 -21q10 -14 6 -25t-2 -28q8 2 14 10q16 12 19 35q2 23 8 41q9 9 23 4q10 -2 8 -12v-2q39 39 53 4q6 -16 -8 -47q-14 -30 -12 -43q22 19 37 45q14 26 23 40q27 40 77 23q4 6 17 8q22 3 -5 -53q-10 -20 -10 -41q0 -14 8 -2
q24 24 42 78q17 53 31 79t36 38t33 -8t3 -44q-8 -26 -23 -43t-44 -43t-25 -53q4 -16 20 -11t24 18q7 13 16 26q4 2 12 2t8 -10q-17 -50 -57 -66q-25 -14 -43 15q-4 4 -4 10q-10 -8 -23 -22t-24 -8q-11 7 -17 11q-9 -9 -34 -15q-25 -5 -37 22v2q-18 -22 -41 -29q-14 -8 -22 8
q-11 21 2 49q14 28 11 45q-35 -15 -43 -73q-2 -13 -8 -29t-19 -11t-14 13q0 4 1 9t1 7q-14 -4 -19 -4t-23 -18t-48 -19q-16 3 -26 23q-51 -51 -90 -45q-16 2 -25 18q-24 -29 -52 -39t-32 23q-4 27 8 44t18 29t2 14q-5 1 -7 -3q-56 -140 -119 -136q-39 3 -44 23q-11 45 38 92
q20 20 38 22t23 -10q6 -11 0 -31t-28 -37t-44 -21q6 -34 45 0q8 6 24 19t32 52t13 46t-12 22t-2 34q7 20 25 18q30 -4 25 -38q-2 -12 -2 -24q20 2 28 -1t-2 -23l-19 -38t-10 -32t5 -15zM1536 1048q0 58 3 122t7 91t-8 39t-35 16q-22 3 -35 5q-230 35 -673 -82
q-199 -53 -322 -106q-69 -36 -89 -53q-22 -17 -26 -50l-10 -77q-6 -45 -6 -111v-133q23 0 61 27q100 71 407 141q307 69 396 77q90 8 172 12t152 -30q6 54 6 112zM35 813q166 88 282 121q7 0 18 69t15 76q23 35 68 53t78 35q136 54 343 107t398 69q265 32 338 -38
q5 -10 -8 -62l-6 -98q0 -3 41 -15q42 -12 116 -48t123 -105q-31 8 -78 -24q-47 -31 -65 -54q57 -29 76 -109q19 -79 -5 -145q-37 100 -209 116q-44 3 -86 6t-92 1q-101 -4 -113 37q-13 41 -8 78t7 51q-335 -26 -715 -158q-8 -2 -7 -9t7 -31q29 -114 8 -130t-67 -20
q-75 -6 -181 -26t-139 -36q-34 -16 -54 -23t-36 -26q-16 -20 -23 -24q11 35 25 67t22 52q8 18 18 37q11 19 21 41t19 39q8 17 6 22q-24 35 -58 67t-79 37z" />
    <glyph glyph-name="one" unicode="1" horiz-adv-x="1871" 
d="M784 1104v26q-17 0 -4 -26h4zM1442 1243q-37 -37 -49 -86q16 19 31 39t20 47h-2zM655 987q12 -2 35 22t11 32t-26 -16t-20 -38zM895 1061q-23 -30 -21 -47q4 -12 16 -10q30 5 5 57zM907 -266q-9 52 -20 92l-21 -92h41zM1071 -231q18 0 31 15t-3 32q-15 16 -34 14
q-10 -2 -8 -27t2 -34h12zM1335 -328q-1 -30 -31 -30t-30 30t31 31q12 0 21 -8t9 -23zM776 -328q0 -30 -30 -30t-31 30q0 14 9 22t21 9q11 0 21 -8t10 -23zM995 1044q10 -14 25 -6q16 4 27 30t-10 42q-7 6 -24 -6t-22 -45zM1300 1133q-2 8 -4 13t-21 -4t-27 -34
q-7 -26 -2 -44t27 3q22 19 27 66zM1156 733h-23v-71q20 0 46 2t27 32q0 37 -50 37zM530 950q31 9 55 53t16 72q-7 27 -34 27q-15 -37 -21 -75t-16 -77zM1192 -133h53v-223h-53v223zM434 922q44 0 74 66q13 31 29 110q-47 -10 -97 -62q-6 -6 -15 -25q-42 -89 9 -89zM844 47
q0 -28 38 -34t42 22q-10 157 -80 244v-232zM639 238v-150q0 -31 30 -41t40 25q2 12 2 27v177q0 32 -32 43t-40 -24q-2 -13 -1 -29t1 -28zM1229 178q0 -22 -3 -54q-3 -34 13 -52h-76q19 18 15 54t-4 58q-42 80 -50 121q-8 42 -26 57h78q-16 -38 28 -126q36 87 23 126h80
q-23 -12 -29 -53t-28 -75q-21 -34 -21 -56zM1663 -131h27q12 0 26 -4t15 -6l-9 -41q-51 23 -85 -10t-18 -82q17 -49 62 -43q10 2 9 21q-2 19 -2 28h-27v41h76v-121q-83 -32 -142 20q-25 23 -32 60q-8 37 9 73t45 50t46 14zM979 -356h-51l-15 51h-53l-10 -51h-53l59 223h64z
M1008 176v127q0 15 1 29t-12 30h76q-17 -17 -16 -56q2 -38 4 -60t2 -35v-166h104q23 0 56 -3t55 13q-4 -7 -7 -29t-14 -22h-260q27 32 14 132q-3 24 -3 40zM1532 -356h-51q-21 38 -37 78t-35 77q2 -39 2 -78v-77h-47v223h57l68 -152q-4 39 -4 77v75h47v-223zM1059 -356h-53
v221q92 13 127 -8q31 -23 23 -58t-38 -49q25 -11 30 -37q5 -25 7 -41t8 -28h-51q-6 12 -8 27q-8 61 -45 59v-86zM674 -299q3 64 18 166h41l-41 -223h-43q-8 38 -12 74t-10 73q-3 -26 -23 -147h-43l-39 223h45q3 -41 9 -83t10 -83q8 86 24 166h39zM455 -299l18 166h43
l-43 -223h-41q-12 56 -22 147q-3 -26 -23 -147h-45l-37 223h45q4 -41 8 -83t11 -83q8 86 24 166h39zM238 -299l18 166h43l-43 -223h-43q-12 76 -20 147l-25 -147h-43l-39 223h47q4 -41 7 -83t12 -83q8 86 24 166h37zM1006 684q8 0 14 -5t4 -13q14 2 14 15t-18 31t-30 20
q-41 11 -53 -17q-19 -42 19 -78q16 -13 36 -27t34 -28q35 -50 29 -88q-11 -71 -70 -78q-27 -2 -53 -1t-55 1q11 6 -4 55q-15 50 -3 65t35 16t27 -22q0 -20 -22 -20t-21 18q-12 -4 -12 -17t17 -29q18 -16 28 -20q10 -3 30 -3t36 15q30 29 -8 74q-16 18 -36 32q-72 51 -73 103
q-2 80 57 91q26 6 54 4t52 -2l-6 -10q0 -15 14 -45q14 -31 12 -45t-16 -26t-33 -10q-19 0 -21 22t22 22zM1077 717q0 45 -12 59h127q42 -42 16 -127q-4 -7 -15 -29q-53 -104 -22 -118q-5 12 5 13t21 -4t14 -14t-17 -18q-25 -10 -38 14t-3 52q10 29 12 43t-4 22t-28 6v-155
q16 0 42 -3t44 11l-15 -53h-139q12 14 12 53v248zM664 592v125q0 17 1 31t-12 28h76q-14 -12 -12 -32t2 -37v-142q0 -16 -2 -49t10 -47q14 -23 38 -9q42 26 31 88q-6 27 -10 54q-50 176 36 176q22 0 29 -16t-1 -22t-18 -4q-10 1 -18 8q-7 7 1 16q-39 -20 14 -140t2 -186
q-24 -34 -137 -21q-27 3 -41 3q27 32 14 134q-3 24 -3 42zM375 945q0 28 12 52q41 93 139 121q10 4 22 12t21 11q12 -1 6 -13q57 0 62 -49q6 -43 -24 -83t-57 -57q-26 -17 -36 -37l-19 -38q-9 -20 -21 -38t-34 -29q-23 -15 -44 -11q-39 8 -35 39q0 46 51 58q6 2 15 -2t5 -15
q-12 -8 -23 -10t-18 -20t13 -22q42 -10 64 42q9 20 13 40t9 36q-27 -27 -58 -33t-47 10q-16 8 -16 36zM584 199v77q0 49 26 68q27 18 74 18q90 0 82 -134q-2 -34 -2 -60v-80q0 -86 -98 -84q-92 0 -84 134q2 34 2 61zM788 340q0 10 -8 22h58q44 -18 86 -116q0 26 2 60t-13 56
h74q-12 -10 -11 -24t1 -29v-246q0 -14 -1 -31t11 -28h-207q24 34 12 125q-3 23 -4 39v172zM315 780q0 65 4 131q-98 -27 -229 -92q68 -37 109 -108q5 -5 -17 -42q-22 -38 -26 -51q-25 -45 -41 -94q70 36 169 52t153 23t108 24q-43 43 -174 31q-33 -3 -56 -5v131zM1393 789
q57 -1 131 -1t116 -14q44 -14 66 -30t49 -27q0 61 -21 106q-22 45 -81 68q92 81 145 102q-91 88 -237 123q-2 -57 -3 -112t-6 -113l-2 2v-6q-26 -2 -64 -4q-152 -8 -192 -70q-8 -6 4 -8q38 -15 95 -16zM805 987q32 0 62 71t42 77t21 2q6 -13 -4 -28t-5 -29t12 -26
q7 -13 5 -28h2q20 24 32 60t46 53q37 14 49 -21q10 -14 6 -25t-2 -28q8 2 14 10q16 12 19 35q2 23 8 41q9 9 23 4q10 -2 8 -12v-2q39 39 53 4q6 -16 -8 -47q-14 -30 -12 -43q22 19 37 45q14 26 23 40q27 40 77 23q4 6 17 8q22 3 -5 -53q-10 -20 -10 -41q0 -14 8 -2
q24 24 42 78q17 53 31 79t36 38t33 -8t3 -44q-8 -26 -23 -43t-44 -43t-25 -53q4 -16 20 -11t24 18q7 13 16 26q4 2 12 2t8 -10q-17 -50 -57 -66q-25 -14 -43 15q-4 4 -4 10q-10 -8 -23 -22t-24 -8q-11 7 -17 11q-9 -9 -34 -15q-25 -5 -37 22v2q-18 -22 -41 -29q-14 -8 -22 8
q-11 21 2 49q14 28 11 45q-35 -15 -43 -73q-2 -13 -8 -29t-19 -11t-14 13q0 4 1 9t1 7q-14 -4 -19 -4t-23 -18t-48 -19q-16 3 -26 23q-51 -51 -90 -45q-16 2 -25 18q-24 -29 -52 -39t-32 23q-4 27 8 44t18 29t2 14q-5 1 -7 -3q-56 -140 -119 -136q-39 3 -44 23q-11 45 38 92
q20 20 38 22t23 -10q6 -11 0 -31t-28 -37t-44 -21q6 -34 45 0q8 6 24 19t32 52t13 46t-12 22t-2 34q7 20 25 18q30 -4 25 -38q-2 -12 -2 -24q20 2 28 -1t-2 -23l-19 -38t-10 -32t5 -15zM1536 1048q0 58 3 122t7 91t-8 39t-35 16q-22 3 -35 5q-230 35 -673 -82
q-199 -53 -322 -106q-69 -36 -89 -53q-22 -17 -26 -50l-10 -77q-6 -45 -6 -111v-133q23 0 61 27q100 71 407 141q307 69 396 77q90 8 172 12t152 -30q6 54 6 112zM35 813q166 88 282 121q7 0 18 69t15 76q23 35 68 53t78 35q136 54 343 107t398 69q265 32 338 -38
q5 -10 -8 -62l-6 -98q0 -3 41 -15q42 -12 116 -48t123 -105q-31 8 -78 -24q-47 -31 -65 -54q57 -29 76 -109q19 -79 -5 -145q-37 100 -209 116q-44 3 -86 6t-92 1q-101 -4 -113 37q-13 41 -8 78t7 51q-335 -26 -715 -158q-8 -2 -7 -9t7 -31q29 -114 8 -130t-67 -20
q-75 -6 -181 -26t-139 -36q-34 -16 -54 -23t-36 -26q-16 -20 -23 -24q11 35 25 67t22 52q8 18 18 37q11 19 21 41t19 39q8 17 6 22q-24 35 -58 67t-79 37z" />
    <glyph glyph-name="two" unicode="2" horiz-adv-x="1871" 
d="M784 1104v26q-17 0 -4 -26h4zM1442 1243q-37 -37 -49 -86q16 19 31 39t20 47h-2zM655 987q12 -2 35 22t11 32t-26 -16t-20 -38zM895 1061q-23 -30 -21 -47q4 -12 16 -10q30 5 5 57zM907 -266q-9 52 -20 92l-21 -92h41zM1071 -231q18 0 31 15t-3 32q-15 16 -34 14
q-10 -2 -8 -27t2 -34h12zM1335 -328q-1 -30 -31 -30t-30 30t31 31q12 0 21 -8t9 -23zM776 -328q0 -30 -30 -30t-31 30q0 14 9 22t21 9q11 0 21 -8t10 -23zM995 1044q10 -14 25 -6q16 4 27 30t-10 42q-7 6 -24 -6t-22 -45zM1300 1133q-2 8 -4 13t-21 -4t-27 -34
q-7 -26 -2 -44t27 3q22 19 27 66zM1156 733h-23v-71q20 0 46 2t27 32q0 37 -50 37zM530 950q31 9 55 53t16 72q-7 27 -34 27q-15 -37 -21 -75t-16 -77zM1192 -133h53v-223h-53v223zM434 922q44 0 74 66q13 31 29 110q-47 -10 -97 -62q-6 -6 -15 -25q-42 -89 9 -89zM844 47
q0 -28 38 -34t42 22q-10 157 -80 244v-232zM639 238v-150q0 -31 30 -41t40 25q2 12 2 27v177q0 32 -32 43t-40 -24q-2 -13 -1 -29t1 -28zM1229 178q0 -22 -3 -54q-3 -34 13 -52h-76q19 18 15 54t-4 58q-42 80 -50 121q-8 42 -26 57h78q-16 -38 28 -126q36 87 23 126h80
q-23 -12 -29 -53t-28 -75q-21 -34 -21 -56zM1663 -131h27q12 0 26 -4t15 -6l-9 -41q-51 23 -85 -10t-18 -82q17 -49 62 -43q10 2 9 21q-2 19 -2 28h-27v41h76v-121q-83 -32 -142 20q-25 23 -32 60q-8 37 9 73t45 50t46 14zM979 -356h-51l-15 51h-53l-10 -51h-53l59 223h64z
M1008 176v127q0 15 1 29t-12 30h76q-17 -17 -16 -56q2 -38 4 -60t2 -35v-166h104q23 0 56 -3t55 13q-4 -7 -7 -29t-14 -22h-260q27 32 14 132q-3 24 -3 40zM1532 -356h-51q-21 38 -37 78t-35 77q2 -39 2 -78v-77h-47v223h57l68 -152q-4 39 -4 77v75h47v-223zM1059 -356h-53
v221q92 13 127 -8q31 -23 23 -58t-38 -49q25 -11 30 -37q5 -25 7 -41t8 -28h-51q-6 12 -8 27q-8 61 -45 59v-86zM674 -299q3 64 18 166h41l-41 -223h-43q-8 38 -12 74t-10 73q-3 -26 -23 -147h-43l-39 223h45q3 -41 9 -83t10 -83q8 86 24 166h39zM455 -299l18 166h43
l-43 -223h-41q-12 56 -22 147q-3 -26 -23 -147h-45l-37 223h45q4 -41 8 -83t11 -83q8 86 24 166h39zM238 -299l18 166h43l-43 -223h-43q-12 76 -20 147l-25 -147h-43l-39 223h47q4 -41 7 -83t12 -83q8 86 24 166h37zM1006 684q8 0 14 -5t4 -13q14 2 14 15t-18 31t-30 20
q-41 11 -53 -17q-19 -42 19 -78q16 -13 36 -27t34 -28q35 -50 29 -88q-11 -71 -70 -78q-27 -2 -53 -1t-55 1q11 6 -4 55q-15 50 -3 65t35 16t27 -22q0 -20 -22 -20t-21 18q-12 -4 -12 -17t17 -29q18 -16 28 -20q10 -3 30 -3t36 15q30 29 -8 74q-16 18 -36 32q-72 51 -73 103
q-2 80 57 91q26 6 54 4t52 -2l-6 -10q0 -15 14 -45q14 -31 12 -45t-16 -26t-33 -10q-19 0 -21 22t22 22zM1077 717q0 45 -12 59h127q42 -42 16 -127q-4 -7 -15 -29q-53 -104 -22 -118q-5 12 5 13t21 -4t14 -14t-17 -18q-25 -10 -38 14t-3 52q10 29 12 43t-4 22t-28 6v-155
q16 0 42 -3t44 11l-15 -53h-139q12 14 12 53v248zM664 592v125q0 17 1 31t-12 28h76q-14 -12 -12 -32t2 -37v-142q0 -16 -2 -49t10 -47q14 -23 38 -9q42 26 31 88q-6 27 -10 54q-50 176 36 176q22 0 29 -16t-1 -22t-18 -4q-10 1 -18 8q-7 7 1 16q-39 -20 14 -140t2 -186
q-24 -34 -137 -21q-27 3 -41 3q27 32 14 134q-3 24 -3 42zM375 945q0 28 12 52q41 93 139 121q10 4 22 12t21 11q12 -1 6 -13q57 0 62 -49q6 -43 -24 -83t-57 -57q-26 -17 -36 -37l-19 -38q-9 -20 -21 -38t-34 -29q-23 -15 -44 -11q-39 8 -35 39q0 46 51 58q6 2 15 -2t5 -15
q-12 -8 -23 -10t-18 -20t13 -22q42 -10 64 42q9 20 13 40t9 36q-27 -27 -58 -33t-47 10q-16 8 -16 36zM584 199v77q0 49 26 68q27 18 74 18q90 0 82 -134q-2 -34 -2 -60v-80q0 -86 -98 -84q-92 0 -84 134q2 34 2 61zM788 340q0 10 -8 22h58q44 -18 86 -116q0 26 2 60t-13 56
h74q-12 -10 -11 -24t1 -29v-246q0 -14 -1 -31t11 -28h-207q24 34 12 125q-3 23 -4 39v172zM315 780q0 65 4 131q-98 -27 -229 -92q68 -37 109 -108q5 -5 -17 -42q-22 -38 -26 -51q-25 -45 -41 -94q70 36 169 52t153 23t108 24q-43 43 -174 31q-33 -3 -56 -5v131zM1393 789
q57 -1 131 -1t116 -14q44 -14 66 -30t49 -27q0 61 -21 106q-22 45 -81 68q92 81 145 102q-91 88 -237 123q-2 -57 -3 -112t-6 -113l-2 2v-6q-26 -2 -64 -4q-152 -8 -192 -70q-8 -6 4 -8q38 -15 95 -16zM805 987q32 0 62 71t42 77t21 2q6 -13 -4 -28t-5 -29t12 -26
q7 -13 5 -28h2q20 24 32 60t46 53q37 14 49 -21q10 -14 6 -25t-2 -28q8 2 14 10q16 12 19 35q2 23 8 41q9 9 23 4q10 -2 8 -12v-2q39 39 53 4q6 -16 -8 -47q-14 -30 -12 -43q22 19 37 45q14 26 23 40q27 40 77 23q4 6 17 8q22 3 -5 -53q-10 -20 -10 -41q0 -14 8 -2
q24 24 42 78q17 53 31 79t36 38t33 -8t3 -44q-8 -26 -23 -43t-44 -43t-25 -53q4 -16 20 -11t24 18q7 13 16 26q4 2 12 2t8 -10q-17 -50 -57 -66q-25 -14 -43 15q-4 4 -4 10q-10 -8 -23 -22t-24 -8q-11 7 -17 11q-9 -9 -34 -15q-25 -5 -37 22v2q-18 -22 -41 -29q-14 -8 -22 8
q-11 21 2 49q14 28 11 45q-35 -15 -43 -73q-2 -13 -8 -29t-19 -11t-14 13q0 4 1 9t1 7q-14 -4 -19 -4t-23 -18t-48 -19q-16 3 -26 23q-51 -51 -90 -45q-16 2 -25 18q-24 -29 -52 -39t-32 23q-4 27 8 44t18 29t2 14q-5 1 -7 -3q-56 -140 -119 -136q-39 3 -44 23q-11 45 38 92
q20 20 38 22t23 -10q6 -11 0 -31t-28 -37t-44 -21q6 -34 45 0q8 6 24 19t32 52t13 46t-12 22t-2 34q7 20 25 18q30 -4 25 -38q-2 -12 -2 -24q20 2 28 -1t-2 -23l-19 -38t-10 -32t5 -15zM1536 1048q0 58 3 122t7 91t-8 39t-35 16q-22 3 -35 5q-230 35 -673 -82
q-199 -53 -322 -106q-69 -36 -89 -53q-22 -17 -26 -50l-10 -77q-6 -45 -6 -111v-133q23 0 61 27q100 71 407 141q307 69 396 77q90 8 172 12t152 -30q6 54 6 112zM35 813q166 88 282 121q7 0 18 69t15 76q23 35 68 53t78 35q136 54 343 107t398 69q265 32 338 -38
q5 -10 -8 -62l-6 -98q0 -3 41 -15q42 -12 116 -48t123 -105q-31 8 -78 -24q-47 -31 -65 -54q57 -29 76 -109q19 -79 -5 -145q-37 100 -209 116q-44 3 -86 6t-92 1q-101 -4 -113 37q-13 41 -8 78t7 51q-335 -26 -715 -158q-8 -2 -7 -9t7 -31q29 -114 8 -130t-67 -20
q-75 -6 -181 -26t-139 -36q-34 -16 -54 -23t-36 -26q-16 -20 -23 -24q11 35 25 67t22 52q8 18 18 37q11 19 21 41t19 39q8 17 6 22q-24 35 -58 67t-79 37z" />
    <glyph glyph-name="three" unicode="3" horiz-adv-x="1871" 
d="M784 1104v26q-17 0 -4 -26h4zM1442 1243q-37 -37 -49 -86q16 19 31 39t20 47h-2zM655 987q12 -2 35 22t11 32t-26 -16t-20 -38zM895 1061q-23 -30 -21 -47q4 -12 16 -10q30 5 5 57zM907 -266q-9 52 -20 92l-21 -92h41zM1071 -231q18 0 31 15t-3 32q-15 16 -34 14
q-10 -2 -8 -27t2 -34h12zM1335 -328q-1 -30 -31 -30t-30 30t31 31q12 0 21 -8t9 -23zM776 -328q0 -30 -30 -30t-31 30q0 14 9 22t21 9q11 0 21 -8t10 -23zM995 1044q10 -14 25 -6q16 4 27 30t-10 42q-7 6 -24 -6t-22 -45zM1300 1133q-2 8 -4 13t-21 -4t-27 -34
q-7 -26 -2 -44t27 3q22 19 27 66zM1156 733h-23v-71q20 0 46 2t27 32q0 37 -50 37zM530 950q31 9 55 53t16 72q-7 27 -34 27q-15 -37 -21 -75t-16 -77zM1192 -133h53v-223h-53v223zM434 922q44 0 74 66q13 31 29 110q-47 -10 -97 -62q-6 -6 -15 -25q-42 -89 9 -89zM844 47
q0 -28 38 -34t42 22q-10 157 -80 244v-232zM639 238v-150q0 -31 30 -41t40 25q2 12 2 27v177q0 32 -32 43t-40 -24q-2 -13 -1 -29t1 -28zM1229 178q0 -22 -3 -54q-3 -34 13 -52h-76q19 18 15 54t-4 58q-42 80 -50 121q-8 42 -26 57h78q-16 -38 28 -126q36 87 23 126h80
q-23 -12 -29 -53t-28 -75q-21 -34 -21 -56zM1663 -131h27q12 0 26 -4t15 -6l-9 -41q-51 23 -85 -10t-18 -82q17 -49 62 -43q10 2 9 21q-2 19 -2 28h-27v41h76v-121q-83 -32 -142 20q-25 23 -32 60q-8 37 9 73t45 50t46 14zM979 -356h-51l-15 51h-53l-10 -51h-53l59 223h64z
M1008 176v127q0 15 1 29t-12 30h76q-17 -17 -16 -56q2 -38 4 -60t2 -35v-166h104q23 0 56 -3t55 13q-4 -7 -7 -29t-14 -22h-260q27 32 14 132q-3 24 -3 40zM1532 -356h-51q-21 38 -37 78t-35 77q2 -39 2 -78v-77h-47v223h57l68 -152q-4 39 -4 77v75h47v-223zM1059 -356h-53
v221q92 13 127 -8q31 -23 23 -58t-38 -49q25 -11 30 -37q5 -25 7 -41t8 -28h-51q-6 12 -8 27q-8 61 -45 59v-86zM674 -299q3 64 18 166h41l-41 -223h-43q-8 38 -12 74t-10 73q-3 -26 -23 -147h-43l-39 223h45q3 -41 9 -83t10 -83q8 86 24 166h39zM455 -299l18 166h43
l-43 -223h-41q-12 56 -22 147q-3 -26 -23 -147h-45l-37 223h45q4 -41 8 -83t11 -83q8 86 24 166h39zM238 -299l18 166h43l-43 -223h-43q-12 76 -20 147l-25 -147h-43l-39 223h47q4 -41 7 -83t12 -83q8 86 24 166h37zM1006 684q8 0 14 -5t4 -13q14 2 14 15t-18 31t-30 20
q-41 11 -53 -17q-19 -42 19 -78q16 -13 36 -27t34 -28q35 -50 29 -88q-11 -71 -70 -78q-27 -2 -53 -1t-55 1q11 6 -4 55q-15 50 -3 65t35 16t27 -22q0 -20 -22 -20t-21 18q-12 -4 -12 -17t17 -29q18 -16 28 -20q10 -3 30 -3t36 15q30 29 -8 74q-16 18 -36 32q-72 51 -73 103
q-2 80 57 91q26 6 54 4t52 -2l-6 -10q0 -15 14 -45q14 -31 12 -45t-16 -26t-33 -10q-19 0 -21 22t22 22zM1077 717q0 45 -12 59h127q42 -42 16 -127q-4 -7 -15 -29q-53 -104 -22 -118q-5 12 5 13t21 -4t14 -14t-17 -18q-25 -10 -38 14t-3 52q10 29 12 43t-4 22t-28 6v-155
q16 0 42 -3t44 11l-15 -53h-139q12 14 12 53v248zM664 592v125q0 17 1 31t-12 28h76q-14 -12 -12 -32t2 -37v-142q0 -16 -2 -49t10 -47q14 -23 38 -9q42 26 31 88q-6 27 -10 54q-50 176 36 176q22 0 29 -16t-1 -22t-18 -4q-10 1 -18 8q-7 7 1 16q-39 -20 14 -140t2 -186
q-24 -34 -137 -21q-27 3 -41 3q27 32 14 134q-3 24 -3 42zM375 945q0 28 12 52q41 93 139 121q10 4 22 12t21 11q12 -1 6 -13q57 0 62 -49q6 -43 -24 -83t-57 -57q-26 -17 -36 -37l-19 -38q-9 -20 -21 -38t-34 -29q-23 -15 -44 -11q-39 8 -35 39q0 46 51 58q6 2 15 -2t5 -15
q-12 -8 -23 -10t-18 -20t13 -22q42 -10 64 42q9 20 13 40t9 36q-27 -27 -58 -33t-47 10q-16 8 -16 36zM584 199v77q0 49 26 68q27 18 74 18q90 0 82 -134q-2 -34 -2 -60v-80q0 -86 -98 -84q-92 0 -84 134q2 34 2 61zM788 340q0 10 -8 22h58q44 -18 86 -116q0 26 2 60t-13 56
h74q-12 -10 -11 -24t1 -29v-246q0 -14 -1 -31t11 -28h-207q24 34 12 125q-3 23 -4 39v172zM315 780q0 65 4 131q-98 -27 -229 -92q68 -37 109 -108q5 -5 -17 -42q-22 -38 -26 -51q-25 -45 -41 -94q70 36 169 52t153 23t108 24q-43 43 -174 31q-33 -3 -56 -5v131zM1393 789
q57 -1 131 -1t116 -14q44 -14 66 -30t49 -27q0 61 -21 106q-22 45 -81 68q92 81 145 102q-91 88 -237 123q-2 -57 -3 -112t-6 -113l-2 2v-6q-26 -2 -64 -4q-152 -8 -192 -70q-8 -6 4 -8q38 -15 95 -16zM805 987q32 0 62 71t42 77t21 2q6 -13 -4 -28t-5 -29t12 -26
q7 -13 5 -28h2q20 24 32 60t46 53q37 14 49 -21q10 -14 6 -25t-2 -28q8 2 14 10q16 12 19 35q2 23 8 41q9 9 23 4q10 -2 8 -12v-2q39 39 53 4q6 -16 -8 -47q-14 -30 -12 -43q22 19 37 45q14 26 23 40q27 40 77 23q4 6 17 8q22 3 -5 -53q-10 -20 -10 -41q0 -14 8 -2
q24 24 42 78q17 53 31 79t36 38t33 -8t3 -44q-8 -26 -23 -43t-44 -43t-25 -53q4 -16 20 -11t24 18q7 13 16 26q4 2 12 2t8 -10q-17 -50 -57 -66q-25 -14 -43 15q-4 4 -4 10q-10 -8 -23 -22t-24 -8q-11 7 -17 11q-9 -9 -34 -15q-25 -5 -37 22v2q-18 -22 -41 -29q-14 -8 -22 8
q-11 21 2 49q14 28 11 45q-35 -15 -43 -73q-2 -13 -8 -29t-19 -11t-14 13q0 4 1 9t1 7q-14 -4 -19 -4t-23 -18t-48 -19q-16 3 -26 23q-51 -51 -90 -45q-16 2 -25 18q-24 -29 -52 -39t-32 23q-4 27 8 44t18 29t2 14q-5 1 -7 -3q-56 -140 -119 -136q-39 3 -44 23q-11 45 38 92
q20 20 38 22t23 -10q6 -11 0 -31t-28 -37t-44 -21q6 -34 45 0q8 6 24 19t32 52t13 46t-12 22t-2 34q7 20 25 18q30 -4 25 -38q-2 -12 -2 -24q20 2 28 -1t-2 -23l-19 -38t-10 -32t5 -15zM1536 1048q0 58 3 122t7 91t-8 39t-35 16q-22 3 -35 5q-230 35 -673 -82
q-199 -53 -322 -106q-69 -36 -89 -53q-22 -17 -26 -50l-10 -77q-6 -45 -6 -111v-133q23 0 61 27q100 71 407 141q307 69 396 77q90 8 172 12t152 -30q6 54 6 112zM35 813q166 88 282 121q7 0 18 69t15 76q23 35 68 53t78 35q136 54 343 107t398 69q265 32 338 -38
q5 -10 -8 -62l-6 -98q0 -3 41 -15q42 -12 116 -48t123 -105q-31 8 -78 -24q-47 -31 -65 -54q57 -29 76 -109q19 -79 -5 -145q-37 100 -209 116q-44 3 -86 6t-92 1q-101 -4 -113 37q-13 41 -8 78t7 51q-335 -26 -715 -158q-8 -2 -7 -9t7 -31q29 -114 8 -130t-67 -20
q-75 -6 -181 -26t-139 -36q-34 -16 -54 -23t-36 -26q-16 -20 -23 -24q11 35 25 67t22 52q8 18 18 37q11 19 21 41t19 39q8 17 6 22q-24 35 -58 67t-79 37z" />
    <glyph glyph-name="four" unicode="4" horiz-adv-x="1871" 
d="M784 1104v26q-17 0 -4 -26h4zM1442 1243q-37 -37 -49 -86q16 19 31 39t20 47h-2zM655 987q12 -2 35 22t11 32t-26 -16t-20 -38zM895 1061q-23 -30 -21 -47q4 -12 16 -10q30 5 5 57zM907 -266q-9 52 -20 92l-21 -92h41zM1071 -231q18 0 31 15t-3 32q-15 16 -34 14
q-10 -2 -8 -27t2 -34h12zM1335 -328q-1 -30 -31 -30t-30 30t31 31q12 0 21 -8t9 -23zM776 -328q0 -30 -30 -30t-31 30q0 14 9 22t21 9q11 0 21 -8t10 -23zM995 1044q10 -14 25 -6q16 4 27 30t-10 42q-7 6 -24 -6t-22 -45zM1300 1133q-2 8 -4 13t-21 -4t-27 -34
q-7 -26 -2 -44t27 3q22 19 27 66zM1156 733h-23v-71q20 0 46 2t27 32q0 37 -50 37zM530 950q31 9 55 53t16 72q-7 27 -34 27q-15 -37 -21 -75t-16 -77zM1192 -133h53v-223h-53v223zM434 922q44 0 74 66q13 31 29 110q-47 -10 -97 -62q-6 -6 -15 -25q-42 -89 9 -89zM844 47
q0 -28 38 -34t42 22q-10 157 -80 244v-232zM639 238v-150q0 -31 30 -41t40 25q2 12 2 27v177q0 32 -32 43t-40 -24q-2 -13 -1 -29t1 -28zM1229 178q0 -22 -3 -54q-3 -34 13 -52h-76q19 18 15 54t-4 58q-42 80 -50 121q-8 42 -26 57h78q-16 -38 28 -126q36 87 23 126h80
q-23 -12 -29 -53t-28 -75q-21 -34 -21 -56zM1663 -131h27q12 0 26 -4t15 -6l-9 -41q-51 23 -85 -10t-18 -82q17 -49 62 -43q10 2 9 21q-2 19 -2 28h-27v41h76v-121q-83 -32 -142 20q-25 23 -32 60q-8 37 9 73t45 50t46 14zM979 -356h-51l-15 51h-53l-10 -51h-53l59 223h64z
M1008 176v127q0 15 1 29t-12 30h76q-17 -17 -16 -56q2 -38 4 -60t2 -35v-166h104q23 0 56 -3t55 13q-4 -7 -7 -29t-14 -22h-260q27 32 14 132q-3 24 -3 40zM1532 -356h-51q-21 38 -37 78t-35 77q2 -39 2 -78v-77h-47v223h57l68 -152q-4 39 -4 77v75h47v-223zM1059 -356h-53
v221q92 13 127 -8q31 -23 23 -58t-38 -49q25 -11 30 -37q5 -25 7 -41t8 -28h-51q-6 12 -8 27q-8 61 -45 59v-86zM674 -299q3 64 18 166h41l-41 -223h-43q-8 38 -12 74t-10 73q-3 -26 -23 -147h-43l-39 223h45q3 -41 9 -83t10 -83q8 86 24 166h39zM455 -299l18 166h43
l-43 -223h-41q-12 56 -22 147q-3 -26 -23 -147h-45l-37 223h45q4 -41 8 -83t11 -83q8 86 24 166h39zM238 -299l18 166h43l-43 -223h-43q-12 76 -20 147l-25 -147h-43l-39 223h47q4 -41 7 -83t12 -83q8 86 24 166h37zM1006 684q8 0 14 -5t4 -13q14 2 14 15t-18 31t-30 20
q-41 11 -53 -17q-19 -42 19 -78q16 -13 36 -27t34 -28q35 -50 29 -88q-11 -71 -70 -78q-27 -2 -53 -1t-55 1q11 6 -4 55q-15 50 -3 65t35 16t27 -22q0 -20 -22 -20t-21 18q-12 -4 -12 -17t17 -29q18 -16 28 -20q10 -3 30 -3t36 15q30 29 -8 74q-16 18 -36 32q-72 51 -73 103
q-2 80 57 91q26 6 54 4t52 -2l-6 -10q0 -15 14 -45q14 -31 12 -45t-16 -26t-33 -10q-19 0 -21 22t22 22zM1077 717q0 45 -12 59h127q42 -42 16 -127q-4 -7 -15 -29q-53 -104 -22 -118q-5 12 5 13t21 -4t14 -14t-17 -18q-25 -10 -38 14t-3 52q10 29 12 43t-4 22t-28 6v-155
q16 0 42 -3t44 11l-15 -53h-139q12 14 12 53v248zM664 592v125q0 17 1 31t-12 28h76q-14 -12 -12 -32t2 -37v-142q0 -16 -2 -49t10 -47q14 -23 38 -9q42 26 31 88q-6 27 -10 54q-50 176 36 176q22 0 29 -16t-1 -22t-18 -4q-10 1 -18 8q-7 7 1 16q-39 -20 14 -140t2 -186
q-24 -34 -137 -21q-27 3 -41 3q27 32 14 134q-3 24 -3 42zM375 945q0 28 12 52q41 93 139 121q10 4 22 12t21 11q12 -1 6 -13q57 0 62 -49q6 -43 -24 -83t-57 -57q-26 -17 -36 -37l-19 -38q-9 -20 -21 -38t-34 -29q-23 -15 -44 -11q-39 8 -35 39q0 46 51 58q6 2 15 -2t5 -15
q-12 -8 -23 -10t-18 -20t13 -22q42 -10 64 42q9 20 13 40t9 36q-27 -27 -58 -33t-47 10q-16 8 -16 36zM584 199v77q0 49 26 68q27 18 74 18q90 0 82 -134q-2 -34 -2 -60v-80q0 -86 -98 -84q-92 0 -84 134q2 34 2 61zM788 340q0 10 -8 22h58q44 -18 86 -116q0 26 2 60t-13 56
h74q-12 -10 -11 -24t1 -29v-246q0 -14 -1 -31t11 -28h-207q24 34 12 125q-3 23 -4 39v172zM315 780q0 65 4 131q-98 -27 -229 -92q68 -37 109 -108q5 -5 -17 -42q-22 -38 -26 -51q-25 -45 -41 -94q70 36 169 52t153 23t108 24q-43 43 -174 31q-33 -3 -56 -5v131zM1393 789
q57 -1 131 -1t116 -14q44 -14 66 -30t49 -27q0 61 -21 106q-22 45 -81 68q92 81 145 102q-91 88 -237 123q-2 -57 -3 -112t-6 -113l-2 2v-6q-26 -2 -64 -4q-152 -8 -192 -70q-8 -6 4 -8q38 -15 95 -16zM805 987q32 0 62 71t42 77t21 2q6 -13 -4 -28t-5 -29t12 -26
q7 -13 5 -28h2q20 24 32 60t46 53q37 14 49 -21q10 -14 6 -25t-2 -28q8 2 14 10q16 12 19 35q2 23 8 41q9 9 23 4q10 -2 8 -12v-2q39 39 53 4q6 -16 -8 -47q-14 -30 -12 -43q22 19 37 45q14 26 23 40q27 40 77 23q4 6 17 8q22 3 -5 -53q-10 -20 -10 -41q0 -14 8 -2
q24 24 42 78q17 53 31 79t36 38t33 -8t3 -44q-8 -26 -23 -43t-44 -43t-25 -53q4 -16 20 -11t24 18q7 13 16 26q4 2 12 2t8 -10q-17 -50 -57 -66q-25 -14 -43 15q-4 4 -4 10q-10 -8 -23 -22t-24 -8q-11 7 -17 11q-9 -9 -34 -15q-25 -5 -37 22v2q-18 -22 -41 -29q-14 -8 -22 8
q-11 21 2 49q14 28 11 45q-35 -15 -43 -73q-2 -13 -8 -29t-19 -11t-14 13q0 4 1 9t1 7q-14 -4 -19 -4t-23 -18t-48 -19q-16 3 -26 23q-51 -51 -90 -45q-16 2 -25 18q-24 -29 -52 -39t-32 23q-4 27 8 44t18 29t2 14q-5 1 -7 -3q-56 -140 -119 -136q-39 3 -44 23q-11 45 38 92
q20 20 38 22t23 -10q6 -11 0 -31t-28 -37t-44 -21q6 -34 45 0q8 6 24 19t32 52t13 46t-12 22t-2 34q7 20 25 18q30 -4 25 -38q-2 -12 -2 -24q20 2 28 -1t-2 -23l-19 -38t-10 -32t5 -15zM1536 1048q0 58 3 122t7 91t-8 39t-35 16q-22 3 -35 5q-230 35 -673 -82
q-199 -53 -322 -106q-69 -36 -89 -53q-22 -17 -26 -50l-10 -77q-6 -45 -6 -111v-133q23 0 61 27q100 71 407 141q307 69 396 77q90 8 172 12t152 -30q6 54 6 112zM35 813q166 88 282 121q7 0 18 69t15 76q23 35 68 53t78 35q136 54 343 107t398 69q265 32 338 -38
q5 -10 -8 -62l-6 -98q0 -3 41 -15q42 -12 116 -48t123 -105q-31 8 -78 -24q-47 -31 -65 -54q57 -29 76 -109q19 -79 -5 -145q-37 100 -209 116q-44 3 -86 6t-92 1q-101 -4 -113 37q-13 41 -8 78t7 51q-335 -26 -715 -158q-8 -2 -7 -9t7 -31q29 -114 8 -130t-67 -20
q-75 -6 -181 -26t-139 -36q-34 -16 -54 -23t-36 -26q-16 -20 -23 -24q11 35 25 67t22 52q8 18 18 37q11 19 21 41t19 39q8 17 6 22q-24 35 -58 67t-79 37z" />
    <glyph glyph-name="five" unicode="5" horiz-adv-x="1871" 
d="M784 1104v26q-17 0 -4 -26h4zM1442 1243q-37 -37 -49 -86q16 19 31 39t20 47h-2zM655 987q12 -2 35 22t11 32t-26 -16t-20 -38zM895 1061q-23 -30 -21 -47q4 -12 16 -10q30 5 5 57zM907 -266q-9 52 -20 92l-21 -92h41zM1071 -231q18 0 31 15t-3 32q-15 16 -34 14
q-10 -2 -8 -27t2 -34h12zM1335 -328q-1 -30 -31 -30t-30 30t31 31q12 0 21 -8t9 -23zM776 -328q0 -30 -30 -30t-31 30q0 14 9 22t21 9q11 0 21 -8t10 -23zM995 1044q10 -14 25 -6q16 4 27 30t-10 42q-7 6 -24 -6t-22 -45zM1300 1133q-2 8 -4 13t-21 -4t-27 -34
q-7 -26 -2 -44t27 3q22 19 27 66zM1156 733h-23v-71q20 0 46 2t27 32q0 37 -50 37zM530 950q31 9 55 53t16 72q-7 27 -34 27q-15 -37 -21 -75t-16 -77zM1192 -133h53v-223h-53v223zM434 922q44 0 74 66q13 31 29 110q-47 -10 -97 -62q-6 -6 -15 -25q-42 -89 9 -89zM844 47
q0 -28 38 -34t42 22q-10 157 -80 244v-232zM639 238v-150q0 -31 30 -41t40 25q2 12 2 27v177q0 32 -32 43t-40 -24q-2 -13 -1 -29t1 -28zM1229 178q0 -22 -3 -54q-3 -34 13 -52h-76q19 18 15 54t-4 58q-42 80 -50 121q-8 42 -26 57h78q-16 -38 28 -126q36 87 23 126h80
q-23 -12 -29 -53t-28 -75q-21 -34 -21 -56zM1663 -131h27q12 0 26 -4t15 -6l-9 -41q-51 23 -85 -10t-18 -82q17 -49 62 -43q10 2 9 21q-2 19 -2 28h-27v41h76v-121q-83 -32 -142 20q-25 23 -32 60q-8 37 9 73t45 50t46 14zM979 -356h-51l-15 51h-53l-10 -51h-53l59 223h64z
M1008 176v127q0 15 1 29t-12 30h76q-17 -17 -16 -56q2 -38 4 -60t2 -35v-166h104q23 0 56 -3t55 13q-4 -7 -7 -29t-14 -22h-260q27 32 14 132q-3 24 -3 40zM1532 -356h-51q-21 38 -37 78t-35 77q2 -39 2 -78v-77h-47v223h57l68 -152q-4 39 -4 77v75h47v-223zM1059 -356h-53
v221q92 13 127 -8q31 -23 23 -58t-38 -49q25 -11 30 -37q5 -25 7 -41t8 -28h-51q-6 12 -8 27q-8 61 -45 59v-86zM674 -299q3 64 18 166h41l-41 -223h-43q-8 38 -12 74t-10 73q-3 -26 -23 -147h-43l-39 223h45q3 -41 9 -83t10 -83q8 86 24 166h39zM455 -299l18 166h43
l-43 -223h-41q-12 56 -22 147q-3 -26 -23 -147h-45l-37 223h45q4 -41 8 -83t11 -83q8 86 24 166h39zM238 -299l18 166h43l-43 -223h-43q-12 76 -20 147l-25 -147h-43l-39 223h47q4 -41 7 -83t12 -83q8 86 24 166h37zM1006 684q8 0 14 -5t4 -13q14 2 14 15t-18 31t-30 20
q-41 11 -53 -17q-19 -42 19 -78q16 -13 36 -27t34 -28q35 -50 29 -88q-11 -71 -70 -78q-27 -2 -53 -1t-55 1q11 6 -4 55q-15 50 -3 65t35 16t27 -22q0 -20 -22 -20t-21 18q-12 -4 -12 -17t17 -29q18 -16 28 -20q10 -3 30 -3t36 15q30 29 -8 74q-16 18 -36 32q-72 51 -73 103
q-2 80 57 91q26 6 54 4t52 -2l-6 -10q0 -15 14 -45q14 -31 12 -45t-16 -26t-33 -10q-19 0 -21 22t22 22zM1077 717q0 45 -12 59h127q42 -42 16 -127q-4 -7 -15 -29q-53 -104 -22 -118q-5 12 5 13t21 -4t14 -14t-17 -18q-25 -10 -38 14t-3 52q10 29 12 43t-4 22t-28 6v-155
q16 0 42 -3t44 11l-15 -53h-139q12 14 12 53v248zM664 592v125q0 17 1 31t-12 28h76q-14 -12 -12 -32t2 -37v-142q0 -16 -2 -49t10 -47q14 -23 38 -9q42 26 31 88q-6 27 -10 54q-50 176 36 176q22 0 29 -16t-1 -22t-18 -4q-10 1 -18 8q-7 7 1 16q-39 -20 14 -140t2 -186
q-24 -34 -137 -21q-27 3 -41 3q27 32 14 134q-3 24 -3 42zM375 945q0 28 12 52q41 93 139 121q10 4 22 12t21 11q12 -1 6 -13q57 0 62 -49q6 -43 -24 -83t-57 -57q-26 -17 -36 -37l-19 -38q-9 -20 -21 -38t-34 -29q-23 -15 -44 -11q-39 8 -35 39q0 46 51 58q6 2 15 -2t5 -15
q-12 -8 -23 -10t-18 -20t13 -22q42 -10 64 42q9 20 13 40t9 36q-27 -27 -58 -33t-47 10q-16 8 -16 36zM584 199v77q0 49 26 68q27 18 74 18q90 0 82 -134q-2 -34 -2 -60v-80q0 -86 -98 -84q-92 0 -84 134q2 34 2 61zM788 340q0 10 -8 22h58q44 -18 86 -116q0 26 2 60t-13 56
h74q-12 -10 -11 -24t1 -29v-246q0 -14 -1 -31t11 -28h-207q24 34 12 125q-3 23 -4 39v172zM315 780q0 65 4 131q-98 -27 -229 -92q68 -37 109 -108q5 -5 -17 -42q-22 -38 -26 -51q-25 -45 -41 -94q70 36 169 52t153 23t108 24q-43 43 -174 31q-33 -3 -56 -5v131zM1393 789
q57 -1 131 -1t116 -14q44 -14 66 -30t49 -27q0 61 -21 106q-22 45 -81 68q92 81 145 102q-91 88 -237 123q-2 -57 -3 -112t-6 -113l-2 2v-6q-26 -2 -64 -4q-152 -8 -192 -70q-8 -6 4 -8q38 -15 95 -16zM805 987q32 0 62 71t42 77t21 2q6 -13 -4 -28t-5 -29t12 -26
q7 -13 5 -28h2q20 24 32 60t46 53q37 14 49 -21q10 -14 6 -25t-2 -28q8 2 14 10q16 12 19 35q2 23 8 41q9 9 23 4q10 -2 8 -12v-2q39 39 53 4q6 -16 -8 -47q-14 -30 -12 -43q22 19 37 45q14 26 23 40q27 40 77 23q4 6 17 8q22 3 -5 -53q-10 -20 -10 -41q0 -14 8 -2
q24 24 42 78q17 53 31 79t36 38t33 -8t3 -44q-8 -26 -23 -43t-44 -43t-25 -53q4 -16 20 -11t24 18q7 13 16 26q4 2 12 2t8 -10q-17 -50 -57 -66q-25 -14 -43 15q-4 4 -4 10q-10 -8 -23 -22t-24 -8q-11 7 -17 11q-9 -9 -34 -15q-25 -5 -37 22v2q-18 -22 -41 -29q-14 -8 -22 8
q-11 21 2 49q14 28 11 45q-35 -15 -43 -73q-2 -13 -8 -29t-19 -11t-14 13q0 4 1 9t1 7q-14 -4 -19 -4t-23 -18t-48 -19q-16 3 -26 23q-51 -51 -90 -45q-16 2 -25 18q-24 -29 -52 -39t-32 23q-4 27 8 44t18 29t2 14q-5 1 -7 -3q-56 -140 -119 -136q-39 3 -44 23q-11 45 38 92
q20 20 38 22t23 -10q6 -11 0 -31t-28 -37t-44 -21q6 -34 45 0q8 6 24 19t32 52t13 46t-12 22t-2 34q7 20 25 18q30 -4 25 -38q-2 -12 -2 -24q20 2 28 -1t-2 -23l-19 -38t-10 -32t5 -15zM1536 1048q0 58 3 122t7 91t-8 39t-35 16q-22 3 -35 5q-230 35 -673 -82
q-199 -53 -322 -106q-69 -36 -89 -53q-22 -17 -26 -50l-10 -77q-6 -45 -6 -111v-133q23 0 61 27q100 71 407 141q307 69 396 77q90 8 172 12t152 -30q6 54 6 112zM35 813q166 88 282 121q7 0 18 69t15 76q23 35 68 53t78 35q136 54 343 107t398 69q265 32 338 -38
q5 -10 -8 -62l-6 -98q0 -3 41 -15q42 -12 116 -48t123 -105q-31 8 -78 -24q-47 -31 -65 -54q57 -29 76 -109q19 -79 -5 -145q-37 100 -209 116q-44 3 -86 6t-92 1q-101 -4 -113 37q-13 41 -8 78t7 51q-335 -26 -715 -158q-8 -2 -7 -9t7 -31q29 -114 8 -130t-67 -20
q-75 -6 -181 -26t-139 -36q-34 -16 -54 -23t-36 -26q-16 -20 -23 -24q11 35 25 67t22 52q8 18 18 37q11 19 21 41t19 39q8 17 6 22q-24 35 -58 67t-79 37z" />
    <glyph glyph-name="six" unicode="6" horiz-adv-x="1871" 
d="M784 1104v26q-17 0 -4 -26h4zM1442 1243q-37 -37 -49 -86q16 19 31 39t20 47h-2zM655 987q12 -2 35 22t11 32t-26 -16t-20 -38zM895 1061q-23 -30 -21 -47q4 -12 16 -10q30 5 5 57zM907 -266q-9 52 -20 92l-21 -92h41zM1071 -231q18 0 31 15t-3 32q-15 16 -34 14
q-10 -2 -8 -27t2 -34h12zM1335 -328q-1 -30 -31 -30t-30 30t31 31q12 0 21 -8t9 -23zM776 -328q0 -30 -30 -30t-31 30q0 14 9 22t21 9q11 0 21 -8t10 -23zM995 1044q10 -14 25 -6q16 4 27 30t-10 42q-7 6 -24 -6t-22 -45zM1300 1133q-2 8 -4 13t-21 -4t-27 -34
q-7 -26 -2 -44t27 3q22 19 27 66zM1156 733h-23v-71q20 0 46 2t27 32q0 37 -50 37zM530 950q31 9 55 53t16 72q-7 27 -34 27q-15 -37 -21 -75t-16 -77zM1192 -133h53v-223h-53v223zM434 922q44 0 74 66q13 31 29 110q-47 -10 -97 -62q-6 -6 -15 -25q-42 -89 9 -89zM844 47
q0 -28 38 -34t42 22q-10 157 -80 244v-232zM639 238v-150q0 -31 30 -41t40 25q2 12 2 27v177q0 32 -32 43t-40 -24q-2 -13 -1 -29t1 -28zM1229 178q0 -22 -3 -54q-3 -34 13 -52h-76q19 18 15 54t-4 58q-42 80 -50 121q-8 42 -26 57h78q-16 -38 28 -126q36 87 23 126h80
q-23 -12 -29 -53t-28 -75q-21 -34 -21 -56zM1663 -131h27q12 0 26 -4t15 -6l-9 -41q-51 23 -85 -10t-18 -82q17 -49 62 -43q10 2 9 21q-2 19 -2 28h-27v41h76v-121q-83 -32 -142 20q-25 23 -32 60q-8 37 9 73t45 50t46 14zM979 -356h-51l-15 51h-53l-10 -51h-53l59 223h64z
M1008 176v127q0 15 1 29t-12 30h76q-17 -17 -16 -56q2 -38 4 -60t2 -35v-166h104q23 0 56 -3t55 13q-4 -7 -7 -29t-14 -22h-260q27 32 14 132q-3 24 -3 40zM1532 -356h-51q-21 38 -37 78t-35 77q2 -39 2 -78v-77h-47v223h57l68 -152q-4 39 -4 77v75h47v-223zM1059 -356h-53
v221q92 13 127 -8q31 -23 23 -58t-38 -49q25 -11 30 -37q5 -25 7 -41t8 -28h-51q-6 12 -8 27q-8 61 -45 59v-86zM674 -299q3 64 18 166h41l-41 -223h-43q-8 38 -12 74t-10 73q-3 -26 -23 -147h-43l-39 223h45q3 -41 9 -83t10 -83q8 86 24 166h39zM455 -299l18 166h43
l-43 -223h-41q-12 56 -22 147q-3 -26 -23 -147h-45l-37 223h45q4 -41 8 -83t11 -83q8 86 24 166h39zM238 -299l18 166h43l-43 -223h-43q-12 76 -20 147l-25 -147h-43l-39 223h47q4 -41 7 -83t12 -83q8 86 24 166h37zM1006 684q8 0 14 -5t4 -13q14 2 14 15t-18 31t-30 20
q-41 11 -53 -17q-19 -42 19 -78q16 -13 36 -27t34 -28q35 -50 29 -88q-11 -71 -70 -78q-27 -2 -53 -1t-55 1q11 6 -4 55q-15 50 -3 65t35 16t27 -22q0 -20 -22 -20t-21 18q-12 -4 -12 -17t17 -29q18 -16 28 -20q10 -3 30 -3t36 15q30 29 -8 74q-16 18 -36 32q-72 51 -73 103
q-2 80 57 91q26 6 54 4t52 -2l-6 -10q0 -15 14 -45q14 -31 12 -45t-16 -26t-33 -10q-19 0 -21 22t22 22zM1077 717q0 45 -12 59h127q42 -42 16 -127q-4 -7 -15 -29q-53 -104 -22 -118q-5 12 5 13t21 -4t14 -14t-17 -18q-25 -10 -38 14t-3 52q10 29 12 43t-4 22t-28 6v-155
q16 0 42 -3t44 11l-15 -53h-139q12 14 12 53v248zM664 592v125q0 17 1 31t-12 28h76q-14 -12 -12 -32t2 -37v-142q0 -16 -2 -49t10 -47q14 -23 38 -9q42 26 31 88q-6 27 -10 54q-50 176 36 176q22 0 29 -16t-1 -22t-18 -4q-10 1 -18 8q-7 7 1 16q-39 -20 14 -140t2 -186
q-24 -34 -137 -21q-27 3 -41 3q27 32 14 134q-3 24 -3 42zM375 945q0 28 12 52q41 93 139 121q10 4 22 12t21 11q12 -1 6 -13q57 0 62 -49q6 -43 -24 -83t-57 -57q-26 -17 -36 -37l-19 -38q-9 -20 -21 -38t-34 -29q-23 -15 -44 -11q-39 8 -35 39q0 46 51 58q6 2 15 -2t5 -15
q-12 -8 -23 -10t-18 -20t13 -22q42 -10 64 42q9 20 13 40t9 36q-27 -27 -58 -33t-47 10q-16 8 -16 36zM584 199v77q0 49 26 68q27 18 74 18q90 0 82 -134q-2 -34 -2 -60v-80q0 -86 -98 -84q-92 0 -84 134q2 34 2 61zM788 340q0 10 -8 22h58q44 -18 86 -116q0 26 2 60t-13 56
h74q-12 -10 -11 -24t1 -29v-246q0 -14 -1 -31t11 -28h-207q24 34 12 125q-3 23 -4 39v172zM315 780q0 65 4 131q-98 -27 -229 -92q68 -37 109 -108q5 -5 -17 -42q-22 -38 -26 -51q-25 -45 -41 -94q70 36 169 52t153 23t108 24q-43 43 -174 31q-33 -3 -56 -5v131zM1393 789
q57 -1 131 -1t116 -14q44 -14 66 -30t49 -27q0 61 -21 106q-22 45 -81 68q92 81 145 102q-91 88 -237 123q-2 -57 -3 -112t-6 -113l-2 2v-6q-26 -2 -64 -4q-152 -8 -192 -70q-8 -6 4 -8q38 -15 95 -16zM805 987q32 0 62 71t42 77t21 2q6 -13 -4 -28t-5 -29t12 -26
q7 -13 5 -28h2q20 24 32 60t46 53q37 14 49 -21q10 -14 6 -25t-2 -28q8 2 14 10q16 12 19 35q2 23 8 41q9 9 23 4q10 -2 8 -12v-2q39 39 53 4q6 -16 -8 -47q-14 -30 -12 -43q22 19 37 45q14 26 23 40q27 40 77 23q4 6 17 8q22 3 -5 -53q-10 -20 -10 -41q0 -14 8 -2
q24 24 42 78q17 53 31 79t36 38t33 -8t3 -44q-8 -26 -23 -43t-44 -43t-25 -53q4 -16 20 -11t24 18q7 13 16 26q4 2 12 2t8 -10q-17 -50 -57 -66q-25 -14 -43 15q-4 4 -4 10q-10 -8 -23 -22t-24 -8q-11 7 -17 11q-9 -9 -34 -15q-25 -5 -37 22v2q-18 -22 -41 -29q-14 -8 -22 8
q-11 21 2 49q14 28 11 45q-35 -15 -43 -73q-2 -13 -8 -29t-19 -11t-14 13q0 4 1 9t1 7q-14 -4 -19 -4t-23 -18t-48 -19q-16 3 -26 23q-51 -51 -90 -45q-16 2 -25 18q-24 -29 -52 -39t-32 23q-4 27 8 44t18 29t2 14q-5 1 -7 -3q-56 -140 -119 -136q-39 3 -44 23q-11 45 38 92
q20 20 38 22t23 -10q6 -11 0 -31t-28 -37t-44 -21q6 -34 45 0q8 6 24 19t32 52t13 46t-12 22t-2 34q7 20 25 18q30 -4 25 -38q-2 -12 -2 -24q20 2 28 -1t-2 -23l-19 -38t-10 -32t5 -15zM1536 1048q0 58 3 122t7 91t-8 39t-35 16q-22 3 -35 5q-230 35 -673 -82
q-199 -53 -322 -106q-69 -36 -89 -53q-22 -17 -26 -50l-10 -77q-6 -45 -6 -111v-133q23 0 61 27q100 71 407 141q307 69 396 77q90 8 172 12t152 -30q6 54 6 112zM35 813q166 88 282 121q7 0 18 69t15 76q23 35 68 53t78 35q136 54 343 107t398 69q265 32 338 -38
q5 -10 -8 -62l-6 -98q0 -3 41 -15q42 -12 116 -48t123 -105q-31 8 -78 -24q-47 -31 -65 -54q57 -29 76 -109q19 -79 -5 -145q-37 100 -209 116q-44 3 -86 6t-92 1q-101 -4 -113 37q-13 41 -8 78t7 51q-335 -26 -715 -158q-8 -2 -7 -9t7 -31q29 -114 8 -130t-67 -20
q-75 -6 -181 -26t-139 -36q-34 -16 -54 -23t-36 -26q-16 -20 -23 -24q11 35 25 67t22 52q8 18 18 37q11 19 21 41t19 39q8 17 6 22q-24 35 -58 67t-79 37z" />
    <glyph glyph-name="seven" unicode="7" horiz-adv-x="1871" 
d="M784 1104v26q-17 0 -4 -26h4zM1442 1243q-37 -37 -49 -86q16 19 31 39t20 47h-2zM655 987q12 -2 35 22t11 32t-26 -16t-20 -38zM895 1061q-23 -30 -21 -47q4 -12 16 -10q30 5 5 57zM907 -266q-9 52 -20 92l-21 -92h41zM1071 -231q18 0 31 15t-3 32q-15 16 -34 14
q-10 -2 -8 -27t2 -34h12zM1335 -328q-1 -30 -31 -30t-30 30t31 31q12 0 21 -8t9 -23zM776 -328q0 -30 -30 -30t-31 30q0 14 9 22t21 9q11 0 21 -8t10 -23zM995 1044q10 -14 25 -6q16 4 27 30t-10 42q-7 6 -24 -6t-22 -45zM1300 1133q-2 8 -4 13t-21 -4t-27 -34
q-7 -26 -2 -44t27 3q22 19 27 66zM1156 733h-23v-71q20 0 46 2t27 32q0 37 -50 37zM530 950q31 9 55 53t16 72q-7 27 -34 27q-15 -37 -21 -75t-16 -77zM1192 -133h53v-223h-53v223zM434 922q44 0 74 66q13 31 29 110q-47 -10 -97 -62q-6 -6 -15 -25q-42 -89 9 -89zM844 47
q0 -28 38 -34t42 22q-10 157 -80 244v-232zM639 238v-150q0 -31 30 -41t40 25q2 12 2 27v177q0 32 -32 43t-40 -24q-2 -13 -1 -29t1 -28zM1229 178q0 -22 -3 -54q-3 -34 13 -52h-76q19 18 15 54t-4 58q-42 80 -50 121q-8 42 -26 57h78q-16 -38 28 -126q36 87 23 126h80
q-23 -12 -29 -53t-28 -75q-21 -34 -21 -56zM1663 -131h27q12 0 26 -4t15 -6l-9 -41q-51 23 -85 -10t-18 -82q17 -49 62 -43q10 2 9 21q-2 19 -2 28h-27v41h76v-121q-83 -32 -142 20q-25 23 -32 60q-8 37 9 73t45 50t46 14zM979 -356h-51l-15 51h-53l-10 -51h-53l59 223h64z
M1008 176v127q0 15 1 29t-12 30h76q-17 -17 -16 -56q2 -38 4 -60t2 -35v-166h104q23 0 56 -3t55 13q-4 -7 -7 -29t-14 -22h-260q27 32 14 132q-3 24 -3 40zM1532 -356h-51q-21 38 -37 78t-35 77q2 -39 2 -78v-77h-47v223h57l68 -152q-4 39 -4 77v75h47v-223zM1059 -356h-53
v221q92 13 127 -8q31 -23 23 -58t-38 -49q25 -11 30 -37q5 -25 7 -41t8 -28h-51q-6 12 -8 27q-8 61 -45 59v-86zM674 -299q3 64 18 166h41l-41 -223h-43q-8 38 -12 74t-10 73q-3 -26 -23 -147h-43l-39 223h45q3 -41 9 -83t10 -83q8 86 24 166h39zM455 -299l18 166h43
l-43 -223h-41q-12 56 -22 147q-3 -26 -23 -147h-45l-37 223h45q4 -41 8 -83t11 -83q8 86 24 166h39zM238 -299l18 166h43l-43 -223h-43q-12 76 -20 147l-25 -147h-43l-39 223h47q4 -41 7 -83t12 -83q8 86 24 166h37zM1006 684q8 0 14 -5t4 -13q14 2 14 15t-18 31t-30 20
q-41 11 -53 -17q-19 -42 19 -78q16 -13 36 -27t34 -28q35 -50 29 -88q-11 -71 -70 -78q-27 -2 -53 -1t-55 1q11 6 -4 55q-15 50 -3 65t35 16t27 -22q0 -20 -22 -20t-21 18q-12 -4 -12 -17t17 -29q18 -16 28 -20q10 -3 30 -3t36 15q30 29 -8 74q-16 18 -36 32q-72 51 -73 103
q-2 80 57 91q26 6 54 4t52 -2l-6 -10q0 -15 14 -45q14 -31 12 -45t-16 -26t-33 -10q-19 0 -21 22t22 22zM1077 717q0 45 -12 59h127q42 -42 16 -127q-4 -7 -15 -29q-53 -104 -22 -118q-5 12 5 13t21 -4t14 -14t-17 -18q-25 -10 -38 14t-3 52q10 29 12 43t-4 22t-28 6v-155
q16 0 42 -3t44 11l-15 -53h-139q12 14 12 53v248zM664 592v125q0 17 1 31t-12 28h76q-14 -12 -12 -32t2 -37v-142q0 -16 -2 -49t10 -47q14 -23 38 -9q42 26 31 88q-6 27 -10 54q-50 176 36 176q22 0 29 -16t-1 -22t-18 -4q-10 1 -18 8q-7 7 1 16q-39 -20 14 -140t2 -186
q-24 -34 -137 -21q-27 3 -41 3q27 32 14 134q-3 24 -3 42zM375 945q0 28 12 52q41 93 139 121q10 4 22 12t21 11q12 -1 6 -13q57 0 62 -49q6 -43 -24 -83t-57 -57q-26 -17 -36 -37l-19 -38q-9 -20 -21 -38t-34 -29q-23 -15 -44 -11q-39 8 -35 39q0 46 51 58q6 2 15 -2t5 -15
q-12 -8 -23 -10t-18 -20t13 -22q42 -10 64 42q9 20 13 40t9 36q-27 -27 -58 -33t-47 10q-16 8 -16 36zM584 199v77q0 49 26 68q27 18 74 18q90 0 82 -134q-2 -34 -2 -60v-80q0 -86 -98 -84q-92 0 -84 134q2 34 2 61zM788 340q0 10 -8 22h58q44 -18 86 -116q0 26 2 60t-13 56
h74q-12 -10 -11 -24t1 -29v-246q0 -14 -1 -31t11 -28h-207q24 34 12 125q-3 23 -4 39v172zM315 780q0 65 4 131q-98 -27 -229 -92q68 -37 109 -108q5 -5 -17 -42q-22 -38 -26 -51q-25 -45 -41 -94q70 36 169 52t153 23t108 24q-43 43 -174 31q-33 -3 -56 -5v131zM1393 789
q57 -1 131 -1t116 -14q44 -14 66 -30t49 -27q0 61 -21 106q-22 45 -81 68q92 81 145 102q-91 88 -237 123q-2 -57 -3 -112t-6 -113l-2 2v-6q-26 -2 -64 -4q-152 -8 -192 -70q-8 -6 4 -8q38 -15 95 -16zM805 987q32 0 62 71t42 77t21 2q6 -13 -4 -28t-5 -29t12 -26
q7 -13 5 -28h2q20 24 32 60t46 53q37 14 49 -21q10 -14 6 -25t-2 -28q8 2 14 10q16 12 19 35q2 23 8 41q9 9 23 4q10 -2 8 -12v-2q39 39 53 4q6 -16 -8 -47q-14 -30 -12 -43q22 19 37 45q14 26 23 40q27 40 77 23q4 6 17 8q22 3 -5 -53q-10 -20 -10 -41q0 -14 8 -2
q24 24 42 78q17 53 31 79t36 38t33 -8t3 -44q-8 -26 -23 -43t-44 -43t-25 -53q4 -16 20 -11t24 18q7 13 16 26q4 2 12 2t8 -10q-17 -50 -57 -66q-25 -14 -43 15q-4 4 -4 10q-10 -8 -23 -22t-24 -8q-11 7 -17 11q-9 -9 -34 -15q-25 -5 -37 22v2q-18 -22 -41 -29q-14 -8 -22 8
q-11 21 2 49q14 28 11 45q-35 -15 -43 -73q-2 -13 -8 -29t-19 -11t-14 13q0 4 1 9t1 7q-14 -4 -19 -4t-23 -18t-48 -19q-16 3 -26 23q-51 -51 -90 -45q-16 2 -25 18q-24 -29 -52 -39t-32 23q-4 27 8 44t18 29t2 14q-5 1 -7 -3q-56 -140 -119 -136q-39 3 -44 23q-11 45 38 92
q20 20 38 22t23 -10q6 -11 0 -31t-28 -37t-44 -21q6 -34 45 0q8 6 24 19t32 52t13 46t-12 22t-2 34q7 20 25 18q30 -4 25 -38q-2 -12 -2 -24q20 2 28 -1t-2 -23l-19 -38t-10 -32t5 -15zM1536 1048q0 58 3 122t7 91t-8 39t-35 16q-22 3 -35 5q-230 35 -673 -82
q-199 -53 -322 -106q-69 -36 -89 -53q-22 -17 -26 -50l-10 -77q-6 -45 -6 -111v-133q23 0 61 27q100 71 407 141q307 69 396 77q90 8 172 12t152 -30q6 54 6 112zM35 813q166 88 282 121q7 0 18 69t15 76q23 35 68 53t78 35q136 54 343 107t398 69q265 32 338 -38
q5 -10 -8 -62l-6 -98q0 -3 41 -15q42 -12 116 -48t123 -105q-31 8 -78 -24q-47 -31 -65 -54q57 -29 76 -109q19 -79 -5 -145q-37 100 -209 116q-44 3 -86 6t-92 1q-101 -4 -113 37q-13 41 -8 78t7 51q-335 -26 -715 -158q-8 -2 -7 -9t7 -31q29 -114 8 -130t-67 -20
q-75 -6 -181 -26t-139 -36q-34 -16 -54 -23t-36 -26q-16 -20 -23 -24q11 35 25 67t22 52q8 18 18 37q11 19 21 41t19 39q8 17 6 22q-24 35 -58 67t-79 37z" />
    <glyph glyph-name="eight" unicode="8" horiz-adv-x="1871" 
d="M784 1104v26q-17 0 -4 -26h4zM1442 1243q-37 -37 -49 -86q16 19 31 39t20 47h-2zM655 987q12 -2 35 22t11 32t-26 -16t-20 -38zM895 1061q-23 -30 -21 -47q4 -12 16 -10q30 5 5 57zM907 -266q-9 52 -20 92l-21 -92h41zM1071 -231q18 0 31 15t-3 32q-15 16 -34 14
q-10 -2 -8 -27t2 -34h12zM1335 -328q-1 -30 -31 -30t-30 30t31 31q12 0 21 -8t9 -23zM776 -328q0 -30 -30 -30t-31 30q0 14 9 22t21 9q11 0 21 -8t10 -23zM995 1044q10 -14 25 -6q16 4 27 30t-10 42q-7 6 -24 -6t-22 -45zM1300 1133q-2 8 -4 13t-21 -4t-27 -34
q-7 -26 -2 -44t27 3q22 19 27 66zM1156 733h-23v-71q20 0 46 2t27 32q0 37 -50 37zM530 950q31 9 55 53t16 72q-7 27 -34 27q-15 -37 -21 -75t-16 -77zM1192 -133h53v-223h-53v223zM434 922q44 0 74 66q13 31 29 110q-47 -10 -97 -62q-6 -6 -15 -25q-42 -89 9 -89zM844 47
q0 -28 38 -34t42 22q-10 157 -80 244v-232zM639 238v-150q0 -31 30 -41t40 25q2 12 2 27v177q0 32 -32 43t-40 -24q-2 -13 -1 -29t1 -28zM1229 178q0 -22 -3 -54q-3 -34 13 -52h-76q19 18 15 54t-4 58q-42 80 -50 121q-8 42 -26 57h78q-16 -38 28 -126q36 87 23 126h80
q-23 -12 -29 -53t-28 -75q-21 -34 -21 -56zM1663 -131h27q12 0 26 -4t15 -6l-9 -41q-51 23 -85 -10t-18 -82q17 -49 62 -43q10 2 9 21q-2 19 -2 28h-27v41h76v-121q-83 -32 -142 20q-25 23 -32 60q-8 37 9 73t45 50t46 14zM979 -356h-51l-15 51h-53l-10 -51h-53l59 223h64z
M1008 176v127q0 15 1 29t-12 30h76q-17 -17 -16 -56q2 -38 4 -60t2 -35v-166h104q23 0 56 -3t55 13q-4 -7 -7 -29t-14 -22h-260q27 32 14 132q-3 24 -3 40zM1532 -356h-51q-21 38 -37 78t-35 77q2 -39 2 -78v-77h-47v223h57l68 -152q-4 39 -4 77v75h47v-223zM1059 -356h-53
v221q92 13 127 -8q31 -23 23 -58t-38 -49q25 -11 30 -37q5 -25 7 -41t8 -28h-51q-6 12 -8 27q-8 61 -45 59v-86zM674 -299q3 64 18 166h41l-41 -223h-43q-8 38 -12 74t-10 73q-3 -26 -23 -147h-43l-39 223h45q3 -41 9 -83t10 -83q8 86 24 166h39zM455 -299l18 166h43
l-43 -223h-41q-12 56 -22 147q-3 -26 -23 -147h-45l-37 223h45q4 -41 8 -83t11 -83q8 86 24 166h39zM238 -299l18 166h43l-43 -223h-43q-12 76 -20 147l-25 -147h-43l-39 223h47q4 -41 7 -83t12 -83q8 86 24 166h37zM1006 684q8 0 14 -5t4 -13q14 2 14 15t-18 31t-30 20
q-41 11 -53 -17q-19 -42 19 -78q16 -13 36 -27t34 -28q35 -50 29 -88q-11 -71 -70 -78q-27 -2 -53 -1t-55 1q11 6 -4 55q-15 50 -3 65t35 16t27 -22q0 -20 -22 -20t-21 18q-12 -4 -12 -17t17 -29q18 -16 28 -20q10 -3 30 -3t36 15q30 29 -8 74q-16 18 -36 32q-72 51 -73 103
q-2 80 57 91q26 6 54 4t52 -2l-6 -10q0 -15 14 -45q14 -31 12 -45t-16 -26t-33 -10q-19 0 -21 22t22 22zM1077 717q0 45 -12 59h127q42 -42 16 -127q-4 -7 -15 -29q-53 -104 -22 -118q-5 12 5 13t21 -4t14 -14t-17 -18q-25 -10 -38 14t-3 52q10 29 12 43t-4 22t-28 6v-155
q16 0 42 -3t44 11l-15 -53h-139q12 14 12 53v248zM664 592v125q0 17 1 31t-12 28h76q-14 -12 -12 -32t2 -37v-142q0 -16 -2 -49t10 -47q14 -23 38 -9q42 26 31 88q-6 27 -10 54q-50 176 36 176q22 0 29 -16t-1 -22t-18 -4q-10 1 -18 8q-7 7 1 16q-39 -20 14 -140t2 -186
q-24 -34 -137 -21q-27 3 -41 3q27 32 14 134q-3 24 -3 42zM375 945q0 28 12 52q41 93 139 121q10 4 22 12t21 11q12 -1 6 -13q57 0 62 -49q6 -43 -24 -83t-57 -57q-26 -17 -36 -37l-19 -38q-9 -20 -21 -38t-34 -29q-23 -15 -44 -11q-39 8 -35 39q0 46 51 58q6 2 15 -2t5 -15
q-12 -8 -23 -10t-18 -20t13 -22q42 -10 64 42q9 20 13 40t9 36q-27 -27 -58 -33t-47 10q-16 8 -16 36zM584 199v77q0 49 26 68q27 18 74 18q90 0 82 -134q-2 -34 -2 -60v-80q0 -86 -98 -84q-92 0 -84 134q2 34 2 61zM788 340q0 10 -8 22h58q44 -18 86 -116q0 26 2 60t-13 56
h74q-12 -10 -11 -24t1 -29v-246q0 -14 -1 -31t11 -28h-207q24 34 12 125q-3 23 -4 39v172zM315 780q0 65 4 131q-98 -27 -229 -92q68 -37 109 -108q5 -5 -17 -42q-22 -38 -26 -51q-25 -45 -41 -94q70 36 169 52t153 23t108 24q-43 43 -174 31q-33 -3 -56 -5v131zM1393 789
q57 -1 131 -1t116 -14q44 -14 66 -30t49 -27q0 61 -21 106q-22 45 -81 68q92 81 145 102q-91 88 -237 123q-2 -57 -3 -112t-6 -113l-2 2v-6q-26 -2 -64 -4q-152 -8 -192 -70q-8 -6 4 -8q38 -15 95 -16zM805 987q32 0 62 71t42 77t21 2q6 -13 -4 -28t-5 -29t12 -26
q7 -13 5 -28h2q20 24 32 60t46 53q37 14 49 -21q10 -14 6 -25t-2 -28q8 2 14 10q16 12 19 35q2 23 8 41q9 9 23 4q10 -2 8 -12v-2q39 39 53 4q6 -16 -8 -47q-14 -30 -12 -43q22 19 37 45q14 26 23 40q27 40 77 23q4 6 17 8q22 3 -5 -53q-10 -20 -10 -41q0 -14 8 -2
q24 24 42 78q17 53 31 79t36 38t33 -8t3 -44q-8 -26 -23 -43t-44 -43t-25 -53q4 -16 20 -11t24 18q7 13 16 26q4 2 12 2t8 -10q-17 -50 -57 -66q-25 -14 -43 15q-4 4 -4 10q-10 -8 -23 -22t-24 -8q-11 7 -17 11q-9 -9 -34 -15q-25 -5 -37 22v2q-18 -22 -41 -29q-14 -8 -22 8
q-11 21 2 49q14 28 11 45q-35 -15 -43 -73q-2 -13 -8 -29t-19 -11t-14 13q0 4 1 9t1 7q-14 -4 -19 -4t-23 -18t-48 -19q-16 3 -26 23q-51 -51 -90 -45q-16 2 -25 18q-24 -29 -52 -39t-32 23q-4 27 8 44t18 29t2 14q-5 1 -7 -3q-56 -140 -119 -136q-39 3 -44 23q-11 45 38 92
q20 20 38 22t23 -10q6 -11 0 -31t-28 -37t-44 -21q6 -34 45 0q8 6 24 19t32 52t13 46t-12 22t-2 34q7 20 25 18q30 -4 25 -38q-2 -12 -2 -24q20 2 28 -1t-2 -23l-19 -38t-10 -32t5 -15zM1536 1048q0 58 3 122t7 91t-8 39t-35 16q-22 3 -35 5q-230 35 -673 -82
q-199 -53 -322 -106q-69 -36 -89 -53q-22 -17 -26 -50l-10 -77q-6 -45 -6 -111v-133q23 0 61 27q100 71 407 141q307 69 396 77q90 8 172 12t152 -30q6 54 6 112zM35 813q166 88 282 121q7 0 18 69t15 76q23 35 68 53t78 35q136 54 343 107t398 69q265 32 338 -38
q5 -10 -8 -62l-6 -98q0 -3 41 -15q42 -12 116 -48t123 -105q-31 8 -78 -24q-47 -31 -65 -54q57 -29 76 -109q19 -79 -5 -145q-37 100 -209 116q-44 3 -86 6t-92 1q-101 -4 -113 37q-13 41 -8 78t7 51q-335 -26 -715 -158q-8 -2 -7 -9t7 -31q29 -114 8 -130t-67 -20
q-75 -6 -181 -26t-139 -36q-34 -16 -54 -23t-36 -26q-16 -20 -23 -24q11 35 25 67t22 52q8 18 18 37q11 19 21 41t19 39q8 17 6 22q-24 35 -58 67t-79 37z" />
    <glyph glyph-name="nine" unicode="9" horiz-adv-x="1871" 
d="M784 1104v26q-17 0 -4 -26h4zM1442 1243q-37 -37 -49 -86q16 19 31 39t20 47h-2zM655 987q12 -2 35 22t11 32t-26 -16t-20 -38zM895 1061q-23 -30 -21 -47q4 -12 16 -10q30 5 5 57zM907 -266q-9 52 -20 92l-21 -92h41zM1071 -231q18 0 31 15t-3 32q-15 16 -34 14
q-10 -2 -8 -27t2 -34h12zM1335 -328q-1 -30 -31 -30t-30 30t31 31q12 0 21 -8t9 -23zM776 -328q0 -30 -30 -30t-31 30q0 14 9 22t21 9q11 0 21 -8t10 -23zM995 1044q10 -14 25 -6q16 4 27 30t-10 42q-7 6 -24 -6t-22 -45zM1300 1133q-2 8 -4 13t-21 -4t-27 -34
q-7 -26 -2 -44t27 3q22 19 27 66zM1156 733h-23v-71q20 0 46 2t27 32q0 37 -50 37zM530 950q31 9 55 53t16 72q-7 27 -34 27q-15 -37 -21 -75t-16 -77zM1192 -133h53v-223h-53v223zM434 922q44 0 74 66q13 31 29 110q-47 -10 -97 -62q-6 -6 -15 -25q-42 -89 9 -89zM844 47
q0 -28 38 -34t42 22q-10 157 -80 244v-232zM639 238v-150q0 -31 30 -41t40 25q2 12 2 27v177q0 32 -32 43t-40 -24q-2 -13 -1 -29t1 -28zM1229 178q0 -22 -3 -54q-3 -34 13 -52h-76q19 18 15 54t-4 58q-42 80 -50 121q-8 42 -26 57h78q-16 -38 28 -126q36 87 23 126h80
q-23 -12 -29 -53t-28 -75q-21 -34 -21 -56zM1663 -131h27q12 0 26 -4t15 -6l-9 -41q-51 23 -85 -10t-18 -82q17 -49 62 -43q10 2 9 21q-2 19 -2 28h-27v41h76v-121q-83 -32 -142 20q-25 23 -32 60q-8 37 9 73t45 50t46 14zM979 -356h-51l-15 51h-53l-10 -51h-53l59 223h64z
M1008 176v127q0 15 1 29t-12 30h76q-17 -17 -16 -56q2 -38 4 -60t2 -35v-166h104q23 0 56 -3t55 13q-4 -7 -7 -29t-14 -22h-260q27 32 14 132q-3 24 -3 40zM1532 -356h-51q-21 38 -37 78t-35 77q2 -39 2 -78v-77h-47v223h57l68 -152q-4 39 -4 77v75h47v-223zM1059 -356h-53
v221q92 13 127 -8q31 -23 23 -58t-38 -49q25 -11 30 -37q5 -25 7 -41t8 -28h-51q-6 12 -8 27q-8 61 -45 59v-86zM674 -299q3 64 18 166h41l-41 -223h-43q-8 38 -12 74t-10 73q-3 -26 -23 -147h-43l-39 223h45q3 -41 9 -83t10 -83q8 86 24 166h39zM455 -299l18 166h43
l-43 -223h-41q-12 56 -22 147q-3 -26 -23 -147h-45l-37 223h45q4 -41 8 -83t11 -83q8 86 24 166h39zM238 -299l18 166h43l-43 -223h-43q-12 76 -20 147l-25 -147h-43l-39 223h47q4 -41 7 -83t12 -83q8 86 24 166h37zM1006 684q8 0 14 -5t4 -13q14 2 14 15t-18 31t-30 20
q-41 11 -53 -17q-19 -42 19 -78q16 -13 36 -27t34 -28q35 -50 29 -88q-11 -71 -70 -78q-27 -2 -53 -1t-55 1q11 6 -4 55q-15 50 -3 65t35 16t27 -22q0 -20 -22 -20t-21 18q-12 -4 -12 -17t17 -29q18 -16 28 -20q10 -3 30 -3t36 15q30 29 -8 74q-16 18 -36 32q-72 51 -73 103
q-2 80 57 91q26 6 54 4t52 -2l-6 -10q0 -15 14 -45q14 -31 12 -45t-16 -26t-33 -10q-19 0 -21 22t22 22zM1077 717q0 45 -12 59h127q42 -42 16 -127q-4 -7 -15 -29q-53 -104 -22 -118q-5 12 5 13t21 -4t14 -14t-17 -18q-25 -10 -38 14t-3 52q10 29 12 43t-4 22t-28 6v-155
q16 0 42 -3t44 11l-15 -53h-139q12 14 12 53v248zM664 592v125q0 17 1 31t-12 28h76q-14 -12 -12 -32t2 -37v-142q0 -16 -2 -49t10 -47q14 -23 38 -9q42 26 31 88q-6 27 -10 54q-50 176 36 176q22 0 29 -16t-1 -22t-18 -4q-10 1 -18 8q-7 7 1 16q-39 -20 14 -140t2 -186
q-24 -34 -137 -21q-27 3 -41 3q27 32 14 134q-3 24 -3 42zM375 945q0 28 12 52q41 93 139 121q10 4 22 12t21 11q12 -1 6 -13q57 0 62 -49q6 -43 -24 -83t-57 -57q-26 -17 -36 -37l-19 -38q-9 -20 -21 -38t-34 -29q-23 -15 -44 -11q-39 8 -35 39q0 46 51 58q6 2 15 -2t5 -15
q-12 -8 -23 -10t-18 -20t13 -22q42 -10 64 42q9 20 13 40t9 36q-27 -27 -58 -33t-47 10q-16 8 -16 36zM584 199v77q0 49 26 68q27 18 74 18q90 0 82 -134q-2 -34 -2 -60v-80q0 -86 -98 -84q-92 0 -84 134q2 34 2 61zM788 340q0 10 -8 22h58q44 -18 86 -116q0 26 2 60t-13 56
h74q-12 -10 -11 -24t1 -29v-246q0 -14 -1 -31t11 -28h-207q24 34 12 125q-3 23 -4 39v172zM315 780q0 65 4 131q-98 -27 -229 -92q68 -37 109 -108q5 -5 -17 -42q-22 -38 -26 -51q-25 -45 -41 -94q70 36 169 52t153 23t108 24q-43 43 -174 31q-33 -3 -56 -5v131zM1393 789
q57 -1 131 -1t116 -14q44 -14 66 -30t49 -27q0 61 -21 106q-22 45 -81 68q92 81 145 102q-91 88 -237 123q-2 -57 -3 -112t-6 -113l-2 2v-6q-26 -2 -64 -4q-152 -8 -192 -70q-8 -6 4 -8q38 -15 95 -16zM805 987q32 0 62 71t42 77t21 2q6 -13 -4 -28t-5 -29t12 -26
q7 -13 5 -28h2q20 24 32 60t46 53q37 14 49 -21q10 -14 6 -25t-2 -28q8 2 14 10q16 12 19 35q2 23 8 41q9 9 23 4q10 -2 8 -12v-2q39 39 53 4q6 -16 -8 -47q-14 -30 -12 -43q22 19 37 45q14 26 23 40q27 40 77 23q4 6 17 8q22 3 -5 -53q-10 -20 -10 -41q0 -14 8 -2
q24 24 42 78q17 53 31 79t36 38t33 -8t3 -44q-8 -26 -23 -43t-44 -43t-25 -53q4 -16 20 -11t24 18q7 13 16 26q4 2 12 2t8 -10q-17 -50 -57 -66q-25 -14 -43 15q-4 4 -4 10q-10 -8 -23 -22t-24 -8q-11 7 -17 11q-9 -9 -34 -15q-25 -5 -37 22v2q-18 -22 -41 -29q-14 -8 -22 8
q-11 21 2 49q14 28 11 45q-35 -15 -43 -73q-2 -13 -8 -29t-19 -11t-14 13q0 4 1 9t1 7q-14 -4 -19 -4t-23 -18t-48 -19q-16 3 -26 23q-51 -51 -90 -45q-16 2 -25 18q-24 -29 -52 -39t-32 23q-4 27 8 44t18 29t2 14q-5 1 -7 -3q-56 -140 -119 -136q-39 3 -44 23q-11 45 38 92
q20 20 38 22t23 -10q6 -11 0 -31t-28 -37t-44 -21q6 -34 45 0q8 6 24 19t32 52t13 46t-12 22t-2 34q7 20 25 18q30 -4 25 -38q-2 -12 -2 -24q20 2 28 -1t-2 -23l-19 -38t-10 -32t5 -15zM1536 1048q0 58 3 122t7 91t-8 39t-35 16q-22 3 -35 5q-230 35 -673 -82
q-199 -53 -322 -106q-69 -36 -89 -53q-22 -17 -26 -50l-10 -77q-6 -45 -6 -111v-133q23 0 61 27q100 71 407 141q307 69 396 77q90 8 172 12t152 -30q6 54 6 112zM35 813q166 88 282 121q7 0 18 69t15 76q23 35 68 53t78 35q136 54 343 107t398 69q265 32 338 -38
q5 -10 -8 -62l-6 -98q0 -3 41 -15q42 -12 116 -48t123 -105q-31 8 -78 -24q-47 -31 -65 -54q57 -29 76 -109q19 -79 -5 -145q-37 100 -209 116q-44 3 -86 6t-92 1q-101 -4 -113 37q-13 41 -8 78t7 51q-335 -26 -715 -158q-8 -2 -7 -9t7 -31q29 -114 8 -130t-67 -20
q-75 -6 -181 -26t-139 -36q-34 -16 -54 -23t-36 -26q-16 -20 -23 -24q11 35 25 67t22 52q8 18 18 37q11 19 21 41t19 39q8 17 6 22q-24 35 -58 67t-79 37z" />
    <glyph glyph-name="colon" unicode=":" horiz-adv-x="573" 
d="M405.5 691.5q20.5 -29.5 20.5 -53.5t-18 -48q-33 -44 -111.5 -59.5t-97.5 23.5t33 103t103 64q50 0 70.5 -29.5zM134 243.5q34 22.5 51 19.5t32.5 -19.5t20 -40t-2 -49t-33 -62t-105 -48.5t-94.5 24q-17 36 40 94.5t91 81z" />
    <glyph glyph-name="semicolon" unicode=";" horiz-adv-x="573" 
d="M35 124q33 58 39 103t27.5 46t43 -22.5t34.5 -64.5t1 -82t-53 -84t-87 -76.5t-86 -52t-54.5 -12.5t9 44t58.5 90.5t68 110.5zM405.5 691.5q20.5 -29.5 20.5 -53.5t-18 -48q-33 -44 -111.5 -59.5t-97.5 23.5t33 103t103 64q50 0 70.5 -29.5z" />
    <glyph glyph-name="less" unicode="&#x3c;" horiz-adv-x="841" 
d="M165 418q-6 40 48 86q25 22 55 28q30 8 196 82q164 74 254 122q28 15 37 2q21 -30 -30 -104t-147 -112t-168 -55q-72 -16 -74 -16q6 -3 32 -13t77 -29t81 -40q18 -18 16 -44q-2 -25 -16 -47q-38 -56 -70 -29q-33 28 -129 86t-128 61q-31 3 -34 22z" />
    <glyph glyph-name="equal" unicode="=" horiz-adv-x="966" 
d="M680 408q0 -26 -12 -56q-12 -29 -34 -49t-40 -12q-81 32 -241 7t-210 -45q-49 -21 -55 -12q-12 19 14 49q27 30 51 42q99 50 243 88t261 18q23 -4 23 -30zM308 586q146 73 350 99q79 9 151 -3q23 -4 25 -29t-8 -53t-30 -46q-19 -19 -38 -11q-81 32 -241 7t-210 -45
q-49 -21 -57 -12t-3 25q14 44 61 68z" />
    <glyph glyph-name="greater" unicode="&#x3e;" horiz-adv-x="841" 
d="M718 537q-13 -23 -38 -45q-26 -22 -56 -29q-30 -8 -195 -82t-255 -122q-28 -15 -36 -2q-9 13 0 43t34 67q24 37 56 59q80 56 281 106q40 10 44 13q-33 8 -103 38q-70 29 -86 45q-15 17 -14 43q4 57 51 78q19 9 35 -3q78 -62 162 -104t106 -44t24 -20q3 -18 -10 -41z" />
    <glyph glyph-name="question" unicode="?" horiz-adv-x="1101" 
d="M291 383q-10 -18 -27 -5q-39 32 -36 105t128 141q62 34 138 68t154 71q176 81 258 173q46 51 57 115q8 63 -82 46q-89 -17 -173 -69q-154 -96 -202 -170q-22 -34 -44 -24t-32 43t-5 77q13 112 230 197q134 55 246 51q47 -2 90 -38q94 -79 89 -197t-157 -221
q-97 -63 -229 -116q-132 -52 -198 -84q-152 -72 -205 -163zM160 213q54 0 80 -41q12 -18 12 -41t-18 -47q-34 -45 -114 -61q-76 -14 -94 25q-17 37 31 102q20 27 49 45t54 18z" />
    <glyph glyph-name="at" unicode="@" horiz-adv-x="1226" 
d="M702 678q-47 19 -159 -94t-171 -209q-109 -177 -75 -209t145 78q110 110 244 313q44 109 16 121zM1030 371q-72 -169 -176 -255q-54 -45 -101 -54q-111 -21 -152 71q-26 64 25 174q18 43 48 103q-231 -385 -346 -398q-64 -8 -118 77q-54 84 -40 158t86 181
q193 288 340 375q50 31 76 27q49 -9 83 -74q37 -76 19 -146q29 -14 49 -44t6 -58q-187 -359 -120 -350q70 8 159 190t120 379t-38 236q-116 70 -310 -44q-195 -115 -364 -323t-219 -406t86 -290q83 -57 194 -19q110 38 185 113q25 26 34 10t0 -54t-37 -84
q-70 -115 -220 -108q-186 9 -317 142q-172 172 18 528q113 209 300 392q306 299 515 275q160 -18 251 -147q44 -60 49 -126q10 -133 -32 -294q-20 -80 -53 -157z" />
    <glyph glyph-name="A" unicode="A" horiz-adv-x="1865" 
d="M981 346q167 17 285 10q49 -4 139 -61q89 164 174 303q84 139 188 311t97 185q-20 20 -482 -380q-226 -201 -401 -368zM463 -264q-11 -25 -31 -18q-45 15 -64 106q-9 41 0 74q15 56 228 262q-298 -78 -533 -205q-31 -15 -35 7q-11 54 50 138q29 42 57 56t127 46
q197 63 492 111q414 397 802 728q155 135 222 178q28 14 68 7q85 -15 126 -79q18 -29 7 -46q-44 -68 -152 -284q-446 -888 -395 -1007q18 -40 -4 -48t-58 10t-71 57q-36 38 -43 84q-13 83 133 349q-68 6 -210 -2t-327 -43q-327 -331 -389 -481z" />
    <glyph glyph-name="B" unicode="B" horiz-adv-x="1767" 
d="M1593 391q0 -140 -188 -287.5t-446.5 -245.5t-434.5 -98q-225 0 -364.5 158.5t-139.5 364.5q0 31 20.5 33.5t44.5 -12.5t40 -40.5t6 -71.5t33.5 -136t128.5 -124q84 -33 180 -35.5t198.5 17.5t205 57t242 109t257 189.5t84.5 193.5q-25 59 -133 59t-195.5 -40t-105.5 -51
t-33.5 8.5t-21.5 52t0.5 66.5t28.5 46t80.5 39t334 156.5t275.5 216.5q-4 92 -158.5 96t-369.5 -52t-323 -110.5t-144.5 -89.5t-28.5 -55t37.5 -17t79.5 18.5t169.5 66t148.5 56.5q30 5 58.5 -3t41.5 -24.5t3 -41t-57 -52.5q-115 -68 -304.5 -238.5t-238.5 -270.5
q-10 -20 -35.5 -25.5t-50 3t-40 28t-5.5 47.5q17 46 160.5 188.5t226.5 190.5q-126 -65 -188 -55q-31 4 -78 95.5t-39 143.5q4 37 189.5 147t379.5 143.5t306 28.5t190 -45t117 -92.5t45 -104.5t-7 -86t-48 -69.5t-90.5 -77t-159 -95.5t-134.5 -64q108 7 179 -67t71 -142z
" />
    <glyph glyph-name="C" unicode="C" horiz-adv-x="1368" 
d="M550 -246q-90 0 -186 25.5t-212.5 104t-128.5 245.5q-13 138 167.5 388.5t472.5 458.5t615 255q212 29 288 -20.5t93.5 -89t14.5 -73.5t-61.5 -84.5t-136 -107.5t-153.5 -118.5t-113 -116.5q-14 -20 -41.5 -11.5t-67.5 57t-3 99.5t128 105.5t145 86t119 79t32 86.5
q-58 70 -336 -27t-543 -339t-376.5 -432.5t-76.5 -291.5t113 -146q85 -52 240.5 -12.5t288 119.5t149.5 137q10 35 38 31t51.5 -30t32.5 -62.5t-15 -68.5t-82 -74t-131.5 -79.5t-154 -65.5t-170.5 -28z" />
    <glyph glyph-name="D" unicode="D" horiz-adv-x="1964" 
d="M643 37q-6 -27 -31 -24q-26 3 -50 26t-39 63q-32 85 45 178q77 92 295 250q57 43 109 81t87 67q-512 -262 -637 -295q-27 -7 -63 15q-35 22 -65 60q-71 91 -44 191q21 73 224 213q342 238 761 344q343 87 490 -14q148 -102 192 -295q18 -85 9 -161t-67 -190
q-57 -114 -151 -227q-193 -234 -478 -402q-284 -169 -534 -169q-320 -3 -514 163q-78 67 -114 135t-45 106q-8 37 29 41q80 8 178 -63q44 -32 48 -73q10 -87 128 -152q118 -64 266 -50t294 85q295 144 544 405q249 262 298 488q25 112 -28 187q-67 96 -293 70t-503 -133
q-276 -107 -460 -226t-159 -178q16 -44 184 7t389 153t254 130q32 27 54 9t30 -52t1 -73t-38 -57q-106 -62 -338 -290q-231 -227 -258 -343z" />
    <glyph glyph-name="E" unicode="E" horiz-adv-x="1402" 
d="M1648 1229q64 0 100 -13.5t53.5 -31t12 -31.5t-37.5 -16q-454 -30 -949 -170q45 -76 39 -118q-10 -69 -166 -257q124 39 168 42q45 3 92.5 -12.5t78 -36t33 -39t-65.5 -25.5q-158 -16 -461 -107q-174 -193 -236.5 -283t-83.5 -142t7 -85t98.5 -30t200 43.5t333.5 164
t273 215.5q23 31 41 23.5t27.5 -67t-56.5 -155.5q-35 -54 -219.5 -153.5t-344 -144t-208.5 -47.5t-100.5 20.5t-109.5 90.5t-38 187q18 93 160 279q-132 -46 -187 -77t-65 -24t1 40.5t75 75.5t297 138q55 68 110 135.5t130.5 163.5t103.5 162q-378 -120 -684 -282
q-47 -25 -49.5 1.5t24.5 72.5t73 96t108 80t176 68t248 74t279.5 67.5t282 55t254.5 38t182 14.5z" />
    <glyph glyph-name="F" unicode="F" horiz-adv-x="1243" 
d="M1648 1231q68 0 108 -15.5t58.5 -33t14 -31.5t-60.5 -14q-144 0 -372.5 -29.5t-441.5 -85.5q47 -29 37 -113q-7 -46 -92.5 -165t-152 -209.5t-134.5 -186.5q164 43 267 51q49 2 95 -18.5t73.5 -46t29.5 -47t-32 -20.5q-82 2 -243.5 -18.5t-291.5 -47.5
q-181 -267 -219 -412q-16 -55 -35.5 -54t-37 32.5t-27 81t-4.5 87.5t132 222q-157 -42 -260 -92q-29 -14 -35 1t14 63t75 69q29 8 112.5 35.5t190.5 60.5q324 448 395.5 555.5t101.5 163.5q-456 -120 -716 -301q-29 -18 -36 6t3 65t39.5 86t99.5 77t183.5 69t239.5 69.5
t257 59t254 46t233 30t178 10.5z" />
    <glyph glyph-name="G" unicode="G" horiz-adv-x="1601" 
d="M1579 950q-50 -4 -94 24q-45 28 -52 42q-32 64 -92 94q-112 60 -272 10t-356 -219q-290 -251 -457 -557q-111 -200 -91 -331q9 -67 59 -101t122 -28q142 14 304 118q162 105 241 205q37 47 35 74q-6 35 -178 4q-45 -8 -87 -16t-67 23q-25 30 18 56q44 25 234 76
q190 52 318 79t169 22t79 -31q87 -61 89 -107q2 -23 -43 -17q-131 16 -485 -34q77 -15 110 -40q31 -25 27 -55t-36 -75q-64 -91 -164 -167q-336 -260 -518 -226q-183 34 -304 157q-94 99 -77 202q33 197 203 441t379 421q221 191 374 227q200 47 427 -65q89 -44 145 -97
t59 -79t-19 -30z" />
    <glyph glyph-name="H" unicode="H" horiz-adv-x="1845" 
d="M1348 1041.5q0 -31.5 -14 -47.5q-21 -22 -208.5 -264t-279.5 -365q242 35 442 24q52 -4 84 -24q506 700 699 864q23 20 40 -6.5t24 -69.5t3 -87t-22 -60q-178 -144 -428.5 -465.5t-360.5 -487.5t-147 -235q-18 -31 -35 -21t-35 63.5t7 114.5q24 61 208 322
q-270 4 -586 -72q-286 -372 -338 -477q-14 -35 -38.5 -32t-44 28t-28.5 62.5t1 59.5q22 49 213 292q-180 -57 -301 -112.5t-149 -75.5t-35 2t9 88t89 110q121 69 524 160q215 262 303 366q-27 54 -19 73q7 19 52 68.5t101.5 105.5t109.5 107.5t73.5 72t41 10t33 -35
t12.5 -56z" />
    <glyph glyph-name="I" unicode="I" horiz-adv-x="1173" 
d="M768 -34q0 -16 -34 -21q-108 -19 -589 -185q-54 -19 -94 36t-28 70t70 37t168 47t175 40q-38 29 -32 84t269 438q263 384 343 496q-131 -54 -213 -105q-20 -12 -52 -3q-32 10 -59 30t-39 44t6 38q53 41 339 133t374 102q44 4 99 -45q22 -18 29 -34t-13 -21
q-181 -33 -379 -105q20 -26 30 -58t-6 -48q-37 -36 -154 -210q-363 -538 -441 -718l125 25q18 2 45 -9q27 -10 44 -26t17 -32z" />
    <glyph glyph-name="J" unicode="J" horiz-adv-x="1359" 
d="M1350 1217q10 25 30 11q46 -34 63 -99q17 -64 9 -91q-69 -200 -250 -479q-181 -280 -396 -512q-216 -232 -365 -270q-149 -39 -276 -8q-128 31 -139 106q-20 140 91 320q47 76 105 130t100 59q76 9 146 -44q28 -20 38 -40t-17 -26q-77 -19 -176 -114q-98 -95 -153 -193
t-10 -117q84 -37 228 37t312 249t341 447q174 272 319 634z" />
    <glyph glyph-name="K" unicode="K" horiz-adv-x="1480" 
d="M1720 1227q14 12 44 -17t33 -80t-7 -60q-39 -35 -202 -150q-683 -481 -818 -537q241 -141 463 -504q19 -35 -38 -95q-21 -24 -43 -34t-28 6q-93 190 -233 367t-219 207q-39 -23 -109 22q-25 16 -31 36t27 32q85 27 335 194q490 326 826 613zM532 727q-23 29 -36 45
q-26 30 19 74q26 25 124 104t319 277q14 14 46 5q32 -10 56 -30q26 -20 37 -44t-14 -36q-205 -116 -555 -632q-198 -292 -283 -458t-101 -215t-40 -47q-51 2 -85 77q-15 33 -9 57q23 90 317 529q108 163 205 294z" />
    <glyph glyph-name="L" unicode="L" horiz-adv-x="1251" 
d="M1374 1174q-431 -438 -646.5 -743.5t-281.5 -436.5q368 -19 513 -70.5t177 -73.5t53 -65t28.5 -79t-3 -54.5t-50.5 11.5t-129 74t-267 105t-367 54q-10 -16 -23 -38t-40.5 -56.5t-54.5 -47.5q-27 -14 -74 -10t-92 20.5t-75 42t-19 56.5q12 39 85.5 80t200.5 53
q244 440 555 842q-20 16 -21 33q-2 33 128 151.5t217 185.5q62 46 120 33.5t72 -28.5t-6 -39z" />
    <glyph glyph-name="M" unicode="M" horiz-adv-x="2002" 
d="M1516 -244q-26 0 -64 16q-37 16 -70 47q-33 29 -39 71t59 182t228 401q164 262 264 420q-41 -35 -129 -117q-89 -82 -201 -185t-234 -215t-302 -269t-216 -169q-36 -10 -69 20q-63 58 -90 176q-12 52 -4 96q30 163 139 456q-64 -112 -358 -516q-293 -404 -305 -410
t-36 18t-43 58q-50 87 3 128t277 309q471 564 533 683q39 73 67 142q28 70 38 94t25 39q14 16 38 2q51 -30 71 -107q8 -36 -7 -58q-57 -86 -214 -502q-156 -417 -136 -451q27 -46 1263 1028q60 53 74 65t39 1q24 -11 40 -35t20 -56q4 -31 -14 -53q-271 -342 -469 -756
q-197 -414 -162 -522q10 -31 -16 -31z" />
    <glyph glyph-name="N" unicode="N" horiz-adv-x="1714" 
d="M1860 1229q42 36 62 -84q19 -125 -26 -166q-234 -209 -686 -845q-138 -195 -217 -322q-20 -34 -56 -50q-77 -35 -147 12q-34 22 -52 66q-37 86 -13 340q24 255 100 570q-150 -135 -421 -506q-132 -181 -204 -304q-73 -124 -88 -162t-35 -32q-42 13 -57 126q-6 52 7 97
t114 180q101 136 261 317q304 343 384 380q21 11 66 0q49 178 98 305q12 31 39 15t51 -55q24 -38 35 -84q12 -46 -4 -77q-79 -154 -135 -345q-142 -482 -126 -681q5 -63 32 -74q12 -4 59 65t204 312q469 726 755 1002z" />
    <glyph glyph-name="O" unicode="O" horiz-adv-x="1353" 
d="M389 -94q254 0 550 458q134 205 187 386q53 180 -22 265q-39 44 -125 50q-179 -95 -292 -179t-199 -160q-181 -164 -276 -352q-51 -100 -63 -190t17 -150q62 -128 223 -128zM1092 1120q216 -69 127 -437q-54 -215 -192 -440t-300 -364q-163 -139 -298 -118
q-135 22 -253 142q-118 121 -147 267q-28 146 102 361q173 283 518 527q165 117 312 177q33 12 65 0t54 -35q22 -24 27 -48t-15 -32z" />
    <glyph glyph-name="P" unicode="P" horiz-adv-x="1392" 
d="M973 1233q442 0 442 -303q0 -161 -166 -374t-381 -380.5t-321 -175.5q-31 -2 -56.5 21.5t-39 53t-13.5 54.5t19 25q95 0 271 114.5t335 275t224 312.5t-34 227q-157 119 -429 -1.5t-441 -247t-209 -198.5t-22 -100q33 -53 203 43t280 212q20 20 51 13t54.5 -28.5
t31.5 -50.5t-16 -51q-153 -142 -363.5 -466t-264.5 -442q-13 -28 -33.5 -21t-47.5 61t-10 141q12 62 260 354t287 334q-91 -91 -184.5 -162.5t-125.5 -78.5t-81.5 15.5t-88 62.5t-58 91t-6.5 99t62.5 107.5t121 123t163.5 124t252 138.5t334 78z" />
    <glyph glyph-name="Q" unicode="Q" horiz-adv-x="1484" 
d="M221 127q-17 -153 96 -193q56 -19 172 25q-211 138 -268 168zM236 205q70 -41 152 -99t173 -118q222 99 434 295q212 195 289 417q49 139 6 246q-32 84 -116 133q-371 -138 -639 -408q-119 -120 -195 -242t-104 -224zM110 168q-12 0 -26 -1q-31 -2 -54 52q-9 20 -10 38
q2 36 66 18q29 -7 64 -23q64 246 206 442t399 355q257 160 365 184q58 8 113 -42q23 -19 34 -41t-1 -34q123 -101 137 -311q14 -269 -268 -581q-204 -224 -414 -339q178 -110 280 -144q189 -63 306 -34q25 7 59 -17q78 -53 96 -120q8 -31 -20 -35q-220 -31 -589 189
q-103 61 -202 126q-66 -27 -124 -38q-58 -10 -133 12t-134 58q-59 38 -97 87t-39 80t9 115q-12 4 -23 4z" />
    <glyph glyph-name="R" unicode="R" horiz-adv-x="1390" 
d="M231 508q51 -32 307 175q60 49 88 69t46 11t25 -29q19 -56 -16 -92q-36 -36 -82 -97q-149 -197 -281 -437q-133 -240 -160 -333q-8 -25 -33 -18q-53 15 -91 80q-17 29 -8 59t79 143t164 234q95 120 143 169q-62 -49 -122 -46t-105 42q-44 39 -65 107q-46 141 48 253
t300 236q205 123 436 191q232 67 408 18q89 -25 147 -86q104 -109 12 -277t-304 -338q-211 -170 -409 -253q89 -56 216 -188t150 -191q8 -20 -4 -56t-32 -66t-44 -43q-23 -13 -34 11q-158 326 -282 440q-50 46 -79 34t-57 1q-62 32 -68 84q-2 25 34 42q189 89 414 232
t353 263q128 119 110 210q-9 46 -79 79q-132 62 -354 -1t-426 -193q-204 -131 -310 -260q-106 -130 -35 -179z" />
    <glyph glyph-name="S" unicode="S" horiz-adv-x="1511" 
d="M688 641q-119 0 -206 84t-81 151q5 68 69 128t147 107q83 48 166 81t130 39q93 12 174 -52q80 -63 78 -135q-2 -44 -36 -74q-35 -30 -57 -44q-46 -28 -104 10q-24 14 -35 32t6 28q17 11 57 36t56 52q17 26 5 40q-39 46 -227 -44t-273 -197q-59 -76 -4 -121q67 -57 294 23
q91 32 178 67t135 40q85 9 179 -92q95 -100 95 -197t-135 -291t-344 -353q-210 -158 -435 -180t-365 112q-60 57 -92 124q-31 67 -37 114q-11 97 34 246t87 164q20 6 52 -21t37 -76q6 -49 -7 -71q-103 -180 -71 -325t217 -175q184 -30 438 164q216 164 377 398
q70 101 98 183q47 132 -58 137q-74 2 -171 -25q-98 -27 -203 -57t-168 -30z" />
    <glyph glyph-name="T" unicode="T" horiz-adv-x="899" 
d="M44 865.5q15 34.5 52 56.5t143.5 57t312 88.5t506.5 111.5t417 62q20 0 54 -11t56.5 -26.5t21.5 -30t-55 -18.5q-93 -7 -300 -51.5t-429 -106.5q23 -20 37 -56t2 -58q-48 -82 -253.5 -378t-310.5 -461t-130 -261q-18 -71 -69.5 9.5t-47.5 148.5q7 60 318.5 488.5
t390.5 549.5q-476 -138 -703 -248q-25 -12 -32 10.5t-1.5 56t20.5 68z" />
    <glyph glyph-name="U" unicode="U" horiz-adv-x="1472" 
d="M975 138q0 74 143 368q35 70 60 106q-65 -73 -234 -248q-561 -580 -674 -604q-89 -19 -173 68q-36 37 -57 83q-22 46 -18 90t125 229q120 184 204 311q325 486 345 645q2 24 28 22q62 -6 100 -78q18 -35 4 -92q-37 -146 -397 -648q-201 -280 -249 -378q-47 -98 -24 -118
q12 -12 93 40t201 150q280 230 597 553t503 602q16 25 36 13q42 -24 59 -93q6 -31 -9 -49q-236 -283 -368 -535q-132 -251 -158 -544q-2 -19 -24 -15t-47 22q-26 18 -46 47t-20 53z" />
    <glyph glyph-name="V" unicode="V" horiz-adv-x="1386" 
d="M784 1104q-90 -159 -220 -367q-130 -209 -205 -336q-267 -452 -209 -507q38 -33 268 148q362 282 818 824q148 178 282 367q20 31 38 11t30 -62q12 -41 13 -88q2 -47 -12 -68q-139 -217 -424 -499q-285 -283 -569 -511q-284 -229 -354 -233q-97 -7 -153 58
q-55 65 -60 161t238 535q117 212 215 381q97 169 134 235q12 21 44 23q71 6 116 -35q20 -19 10 -37z" />
    <glyph glyph-name="W" unicode="W" horiz-adv-x="1701" 
d="M1159 1064q-1 -46 -25 -93q-72 -141 -268 -416q-313 -663 -280 -696q48 -48 227 112q265 239 586 687t389 726q6 25 33 23q61 -4 108 -69q23 -30 17 -68q-12 -79 -116 -251t-237 -365t-347 -437q-213 -245 -411 -386q-99 -71 -184 -97q-59 -18 -112 54q-52 72 -57 111
q-11 85 77 295q23 54 45 95q-34 -31 -114 -132q-226 -285 -316 -361q-89 -76 -138 53q-30 88 -18 163q19 115 133 313q113 198 265 438q151 240 158 272t-3 64q-10 31 -13 41t3 19q8 8 35 -2q61 -23 98 -104q18 -41 14 -78q-11 -88 -289 -493q-329 -479 -317 -529
q6 -24 262 236q256 259 375 425q174 357 237 466q126 215 174 62q9 -32 9 -78z" />
    <glyph glyph-name="X" unicode="X" horiz-adv-x="1404" 
d="M97.5 -344q-23.5 0 -64.5 14.5t-19 40.5q293 335 738 778q22 343 20.5 533.5t-47.5 243.5q-14 16 2 28.5t71 16t99 -55.5q51 -84 16 -608q585 568 856 717q23 12 54.5 3t55.5 -28.5t31 -43t-18 -40.5q-375 -243 -993 -821q-11 -153 -24 -297t-14 -186q-1 -41 34.5 -76.5
t171.5 145.5q27 37 36 36t1.5 -37.5t-56 -133.5t-79.5 -118t-72 -7.5t-80 47t-66.5 82t-29.5 102.5t16 290q-342 -331 -474 -470t-137 -147t-28.5 -8z" />
    <glyph glyph-name="Y" unicode="Y" horiz-adv-x="1193" 
d="M383 -326q-11 -42 -66 16q-55 57 -58 106t145 238q65 81 146 174t160 184t149 171q71 80 114 133q-53 -44 -128 -110q-610 -532 -667 -533q-48 -4 -107 72q-59 75 -48 138t310 466t322 477q12 41 41 42q61 2 108 -68q22 -31 17 -53q-6 -27 -362 -465q-356 -439 -328 -463
q18 -18 164 91t328 267l287 248q285 249 431 395q33 34 53 14t28 -61q7 -41 0 -88t-23 -63q-169 -163 -495 -553t-451 -617q-52 -90 -70 -158z" />
    <glyph glyph-name="Z" unicode="Z" horiz-adv-x="1708" 
d="M1166 1206q84 0 178 -7q380 -28 497 46q27 18 66 4t69 -40q30 -25 42 -53q11 -28 -19 -38q-72 -27 -478 -348q-685 -542 -880 -737q205 28 534 -36q185 -35 258 -64q74 -29 83 -39q10 -16 17 -54q16 -88 -15 -120q-16 -14 -48 6q-99 64 -406 135q-185 45 -320 56
q-134 11 -195 5q-197 -197 -272 -208t-141 16q-66 26 -94 52t-20 56q19 67 159 117q139 51 315 76q301 328 733 700q223 193 491 385q-70 -20 -174 -19t-206 1t-186 -16q-83 -16 -110 -68q-12 -27 -38 -16t-52 37q-25 26 -38 58t-1 46q54 67 251 67z" />
    <glyph glyph-name="bracketleft" unicode="[" horiz-adv-x="761" 
d="M256 -143h-190q-16 -4 -34 17.5t-10 46.5t32 80.5t62 136.5t85 179.5t211.5 423t224.5 375.5q17 17 115 17t174 -21q14 -4 29.5 -21.5t29.5 -52t-27 -34.5l-231 8q-44 -66 -131.5 -231t-142 -268t-139.5 -264.5t-156 -273.5q25 0 54.5 3.5t78.5 9t66 10.5
q17 6 23.5 -12.5t1.5 -44t-20.5 -50t-46 -29.5t-59.5 -5z" />
    <glyph glyph-name="backslash" unicode="\" horiz-adv-x="841" 
d="M316 401q-95 574 -160 627q-20 16 -2 32q37 32 99 30q63 0 81 -16q63 -58 116 -643q15 -188 28 -407q12 -219 15 -251q3 -33 -18 -48q-38 -27 -50 15q-12 41 -52 299q-40 257 -57 362z" />
    <glyph glyph-name="bracketright" unicode="]" horiz-adv-x="798" 
d="M461 1122q34 6 53 6h201q18 4 34.5 -17t10.5 -47t-30.5 -81t-62.5 -136t-85 -179.5t-99.5 -200.5t-167.5 -326.5t-170 -271.5q-23 -23 -65 -16q-153 0 -223 20q-32 9 -54 59t27 50q29 0 96.5 -5.5t126.5 -3.5q71 106 199.5 353t208 399.5t164.5 284.5q-108 0 -202 -25
q-15 -4 -21.5 14.5t4 67t55.5 55.5z" />
    <glyph glyph-name="asciicircum" unicode="^" horiz-adv-x="540" 
d="M633 865q-1 -42 -63 -49q-62 -8 -62 20q-3 22 26 96t48 104q-33 -42 -139 -138q-106 -97 -139 -97q-58 0 -86 33q-11 12 -11 26t14 19q54 19 177 106q122 89 147 109q49 40 113 30t39 -52q-13 -22 -39 -102q-25 -80 -25 -105z" />
    <glyph glyph-name="underscore" unicode="_" horiz-adv-x="628" 
d="M262 -92q-49 18 -225 18q-175 0 -250 -20q-23 -6 -27 6q-8 24 25 59q34 35 60 44q121 42 300 45q57 1 89 -7t54 -38q22 -29 30 -59t1 -48q-8 -18 -57 0z" />
    <glyph glyph-name="grave" unicode="`" horiz-adv-x="389" 
d="M366 928q-7 -23 -64 -27t-99 22q-116 75 -172 150q-24 36 14 112q13 28 31 40q18 13 25 -9q31 -97 151 -200q44 -38 80 -58t34 -30z" />
    <glyph glyph-name="a" unicode="a" horiz-adv-x="768" 
d="M514 727q-69 33 -272 -179t-247 -294t-29 -100q31 -38 191 104.5t316 333.5q64 120 41 135zM-18 0q-30 0 -60.5 25.5t-63 90.5t-13.5 132t158 230.5t287.5 288.5t219.5 110q14 -4 32.5 -25t42 -74.5t-2.5 -122.5q29 -16 45 -49.5t0 -58.5q-55 -86 -100.5 -154.5
t-89.5 -143t-21 -85.5q33 -19 176 129.5t173 178.5t58.5 46.5t46 17.5t16.5 -13.5t-39 -53.5t-101.5 -114.5t-126 -150.5t-113.5 -131.5t-78 -64.5q-54 -16 -95 31.5t-32 114.5q3 42 35.5 100t47.5 86t24 43q-35 -59 -129.5 -157.5t-139.5 -136.5t-86 -63.5t-71 -25.5z" />
    <glyph glyph-name="b" unicode="b" horiz-adv-x="655" 
d="M621 1110q-61 23 -361 -430q261 261 317 342.5t44 87.5zM442 637q-68 18 -77 63q-150 -133 -215 -196q-175 -289 -150 -340q33 -64 190 113t203.5 256t48.5 104zM19 0q-38 0 -59 27.5t-40.5 94.5t1.5 162t145 318.5t265.5 411.5t227.5 215q61 16 116.5 -42t42.5 -111
q-13 -54 -81 -124.5t-164 -156.5q35 -14 49 -58v-6q118 -35 250 -8t156 38q49 23 57.5 1.5t-33.5 -47.5q-76 -46 -209 -73.5t-217 -18.5q-23 -164 -157.5 -339.5t-223 -229.5t-126.5 -54z" />
    <glyph glyph-name="c" unicode="c" horiz-adv-x="632" 
d="M410 623q52 52 49 91q-2 30 -39 24q-69 -12 -178 -148t-143 -215q-66 -155 -19 -214q48 -60 224 51q175 111 329 263q65 65 110 68q17 1 13 -17t-50 -64l-125 -125q-317 -317 -427 -337q-91 -16 -166 78q-74 95 -60 227q7 81 104 217q142 200 308 301q107 67 184 25
q52 -27 53 -78q2 -83 -83 -227q-84 -144 -115 -148q-14 -2 -34 23t-24 60q-4 36 8 56t39 47z" />
    <glyph glyph-name="d" unicode="d" horiz-adv-x="739" 
d="M506 651q22 76 -24 89t-183.5 -120t-215 -243.5t-101 -163.5t-4.5 -73q36 -37 163 91.5t365 419.5zM-106.5 84q-58.5 84 -37.5 152t139 233t258 288.5t236 108.5q20 -4 49 -38.5t40 -84.5q111 137 208.5 263t167.5 208q16 20 35 11.5t40.5 -49.5t-7.5 -78
q-267 -326 -467 -618.5t-192 -325.5t146 98t147 140l83 83q58 58 89.5 60t30.5 -12.5t-40 -53.5q-57 -57 -217.5 -252.5t-193.5 -206.5q-60 -19 -111 40.5t-11 152t99 186.5q-10 -14 -31.5 -48t-53.5 -77t-68.5 -90t-100 -110.5t-121.5 -63.5t-116.5 84z" />
    <glyph glyph-name="e" unicode="e" horiz-adv-x="641" 
d="M449 690q-33 21 -138 -70t-198 -212q56 -25 144 36t150.5 145t41.5 101zM752 514q0 -14 -52 -66q-171 -171 -348.5 -309.5t-285.5 -138.5q-71 0 -133 60t-62 171q0 77 117 226.5t257.5 267t209.5 117.5q38 0 71 -27t48.5 -57.5t7 -98t-116.5 -178t-189 -151.5
q-59 -35 -113 -21.5t-87 47.5q-124 -179 -76 -227q50 -55 283.5 83.5t357.5 262.5q57 57 84 55t27 -16z" />
    <glyph glyph-name="f" unicode="f" horiz-adv-x="561" 
d="M488 1004.5q-100 -128.5 -209 -304.5q70 68 137 132.5t145 153.5t53 118q-26 29 -126 -99.5zM-182.5 -106.5q-52.5 -135.5 -44.5 -152.5t38.5 12.5t99.5 125.5t162 260.5t120 255.5q-47 18 -74 47q-249 -413 -301.5 -548.5zM-213 -424q-64 0 -89.5 100.5t-2.5 195.5
q23 94 235 478.5t375 612t217 249.5q96 41 141.5 -51.5t4.5 -202.5q-22 -56 -136 -144.5t-190 -146t-139 -106.5q52 -23 69 -69v-7q105 -32 194.5 -6.5t113.5 36.5q49 23 57.5 1.5t-33.5 -47.5q-176 -107 -336 -92q-38 -214 -170.5 -446.5t-204 -293.5t-106.5 -61z" />
    <glyph glyph-name="g" unicode="g" horiz-adv-x="710" 
d="M76 246q42 -42 175 61q132 104 231 233t71 165q-43 47 -180 -53t-238 -232t-59 -174zM-109 16q142 47 278 50q94 0 101 -89q8 -85 -40 -172q-48 -88 -127 -131q-136 -74 -302 -90t-214 4q-47 20 -67 82q-18 59 31 51q212 -35 430 33q93 29 155 67t70 70q8 33 -35 45
q-91 27 -256 1q-79 -12 -142 -35q-20 -6 -29 16q-19 54 18 128q18 36 52 54l192 115q-64 163 59 329t286 256q75 40 125 47t91 -23t60 -83q35 39 69 97t50 82q27 39 60 -14q33 -54 19 -81q-33 -53 -87 -92t-101 -49q0 -103 -84 -220q-154 -213 -320 -322q-104 -68 -155 -29
q-16 12 -33 32q-49 -41 -90 -77t-64 -52z" />
    <glyph glyph-name="h" unicode="h" horiz-adv-x="765" 
d="M-22 440q430 728 526 787q40 25 92 -16q20 -15 26 -37t-19 -40q-50 -39 -216 -264q-211 -285 -326 -487q14 10 97 100t216 223t168 142q36 10 68 -2q67 -26 85 -83q9 -26 -2 -40q-98 -125 -200 -287q-167 -266 -149 -313q7 -27 182 131q176 157 236 217q61 61 107 64
q15 1 13 -15t-24 -40q-24 -24 -62 -66q-38 -41 -86 -93q-285 -309 -342 -321t-112 44t-52 116q6 128 238 418q51 63 78 92q-53 -20 -151 -112q-367 -348 -510 -572q-20 -32 -59 4q-39 37 -28 78q10 41 206 372z" />
    <glyph glyph-name="i" unicode="i" horiz-adv-x="468" 
d="M512 1105.5q71 24.5 113 -26.5q42 -52 -6 -106.5t-128.5 -78t-108.5 19.5t15.5 105t114.5 86.5zM556 518q15 0 17 -11t-13 -27t-50 -54.5t-217.5 -232t-263.5 -193.5q-58 0 -111 55t-53 156.5t180 332t213 257.5q38 26 97.5 -13t34.5 -66t-246.5 -292t-168.5 -311
q29 -23 233 138t244 201t64.5 50t39.5 10z" />
    <glyph glyph-name="j" unicode="j" horiz-adv-x="380" 
d="M342 715q-281 -372 -545 -835q-111 -195 -133 -269q-6 -25 -28 -19q-46 12 -66 98q-8 38 10 77q56 122 191 330q276 427 471 663q14 18 49 20t49 -23q14 -24 2 -42zM590 974q-33 -36 -85 -58t-88 -15q-36 9 -42 29q-13 46 30 105t89 71t73 2q57 -22 57 -60t-34 -74z" />
    <glyph glyph-name="k" unicode="k" horiz-adv-x="745" 
d="M745 475q57 57 103 60q42 0 -22 -64t-176 -213q-112 -148 -158 -200q-47 -52 -75 -58q-60 -13 -125 45t-88 156q-22 98 -16 122q6 23 18 31t23 17q121 78 230 178t174 231q-121 -77 -274 -221t-281 -291q-127 -147 -199 -256q-20 -32 -60 5q-40 40 -32 81q3 13 72 135
q69 121 125 213t176 295q121 203 208 321q87 120 105 134t46 12q62 -4 79 -42q8 -17 -9 -31t-87 -102t-231 -329q-161 -242 -228 -360q18 18 55 59q358 396 449 437q41 18 79 5t48 -36q102 -14 39 -131t-205 -246q-143 -129 -223 -160q0 -64 40 -111q11 -13 26 -17
q27 -6 150 102q124 109 244 229z" />
    <glyph glyph-name="l" unicode="l" horiz-adv-x="460" 
d="M462.5 954q-133.5 -160 -247.5 -338q218 206 327 326.5t81 146.5q-27 25 -160.5 -135zM569 511q0 -13 -18 -31t-56 -58.5t-220 -226t-263 -197.5q-23 -4 -45 20.5t-47 98.5t3 176t161 331.5t275.5 415t203.5 189.5q73 0 113 -87t24 -139q-16 -51 -59 -100t-129 -127
t-223 -181t-154 -120l-16 -14q-134 -232 -119 -297q10 -43 165.5 65t295.5 246q49 53 78.5 51t29.5 -15z" />
    <glyph glyph-name="m" unicode="m" horiz-adv-x="1048" 
d="M547.5 59.5q-48.5 59.5 -36.5 120.5q20 107 124 242q45 63 100 127q-73 -32 -275.5 -236.5t-232.5 -246.5q-49 -67 -75 -6t-2 98q6 10 26.5 38.5t48 68.5t98.5 142.5t117 178.5q-159 -135 -334 -313.5t-229 -262.5q-10 -16 -27.5 -11t-44.5 35.5t-8 67.5q6 12 34 64.5
t87.5 165t163 282.5t151.5 211q14 12 41 14.5t69.5 -11t16.5 -46.5q-16 -23 -52 -66.5t-110.5 -147.5t-131.5 -214q27 33 64.5 79t107.5 128.5t149.5 162t105.5 85.5t46 -10.5t41 -61t6.5 -80t-207.5 -315.5q429 486 470 503q42 17 77.5 -45.5t5.5 -107.5
q-71 -91 -148 -221.5t-124.5 -221.5t-31.5 -107t181 123t218 190t81.5 66.5t43.5 14.5t13 -16.5t-25 -39.5t-61.5 -65.5t-86.5 -95t-100 -109.5t-130.5 -133t-122.5 -77q-43 0 -91.5 59.5z" />
    <glyph glyph-name="n" unicode="n" horiz-adv-x="741" 
d="M-193 125q157 331 389 659q44 62 60 74t52 7t56 -28q19 -25 3 -43q-162 -187 -316 -440q232 290 392 412q75 57 122 8q48 -49 46 -129q-1 -37 -19 -56q-38 -40 -167 -204q-129 -163 -155 -247q-10 -32 11 -36q29 -4 153 94t307 279q55 55 94 52q42 -3 -22 -65
q-39 -38 -95 -100q-303 -332 -443 -369q-48 -13 -89 6q-79 37 -15 194t222 358q-110 -48 -394 -396q-44 -55 -74 -93t-43 -51t-50 -6q-38 7 -49 46q-4 12 24 74z" />
    <glyph glyph-name="o" unicode="o" horiz-adv-x="708" 
d="M20.5 133q16.5 -31 53.5 -20.5t108 65t184.5 196.5t155.5 249q-66 14 -83 48t-1 62q-82 -48 -167 -138.5t-131 -153t-78.5 -121t-45 -107.5t4 -80zM108 0q-46 0 -84 27.5t-73 97t-12 170.5q23 132 168 317t239 217q66 21 97 18t63 -52v-2q53 20 87 -9.5t42 -74.5
q239 10 326 53q50 20 62 5.5t-60 -65.5q-72 -52 -180.5 -71t-153.5 -19q-35 -182 -213.5 -397t-307.5 -215z" />
    <glyph glyph-name="p" unicode="p" horiz-adv-x="681" 
d="M59 111q58 0 171 131q114 131 185 255q200 352 51 243q-122 -87 -306 -316q-90 -113 -164 -234q28 -79 63 -79zM424 989q30 1 46 -11t-6 -31q-60 -51 -157 -186t-178 -272q97 151 202 264q104 113 151 119q110 13 133 -153q5 -37 2 -67q-12 -119 -196 -382
q-106 -151 -216 -230q-53 -38 -93 -42q-78 -8 -167 102q-228 -426 -248 -501q-12 -36 -69 -18q-56 18 -51 59t85 209q79 168 207 395q-43 133 46 234q24 28 40 35t10 -24q-10 -37 -6 -88q237 406 338 535q20 27 58 40t69 13z" />
    <glyph glyph-name="q" unicode="q" horiz-adv-x="724" 
d="M537 764q-112 -22 -250 -160t-233.5 -289t-75.5 -185q17 -28 118 50.5t227 211.5t161 182q34 49 52.5 76.5t36.5 51.5q2 29 -7 47.5t-29 14.5zM10 0q-66 0 -95.5 101t1.5 212q16 72 181.5 291t385.5 256q77 11 104 -39.5t34 -75.5q44 13 87.5 -6.5t14.5 -44.5
q-43 -39 -210 -293t-294 -499q219 55 287 39q20 -4 12 -27t-47.5 -68t-91.5 -46q-106 -2 -219 -19q-39 -82 -68 -164q-11 -33 -48.5 -9.5t-50.5 46t-9 38.5t7 29t9 27q-86 -20 -120 -30q-33 -10 -36.5 -2t9 35t44.5 43q68 33 154 61q61 106 198.5 300.5t182.5 262.5
q-189 -268 -288 -343t-134 -75z" />
    <glyph glyph-name="r" unicode="r" horiz-adv-x="555" 
d="M634 524q30 0 32 -11t-20 -33t-58.5 -64.5t-119.5 -137.5t-180.5 -187.5t-148.5 -92.5t-89.5 103t9 195t130.5 205t118 173q-44 -2 -69 -8q-82 -131 -210 -259t-169 -139.5t-43 0t18 31.5q139 139 214 247.5t79 155.5q-39 39 -44.5 88t20.5 71t46.5 28t39 3t26.5 -15.5
t36.5 -53.5t14.5 -86q46 7 75.5 27.5t78.5 69.5q18 16 36.5 8t31 -28.5t16.5 -46.5t-6.5 -42t-44 -60t-77.5 -104.5t-161 -220t-100 -207.5q9 -26 145 78.5t295 263.5q49 49 79 49z" />
    <glyph glyph-name="s" unicode="s" horiz-adv-x="468" 
d="M127 600q69 48 131 103q63 55 58 65q-6 10 -36 -5t-72 -52t-73 -90q-4 -5 -5 -11t-3 -10zM-2 536q0 74 95 175t202 149q106 47 154 -2q34 -38 -5 -111q-39 -74 -108 -120q-37 -27 -98 -56t-115 -39q10 -36 35 -68q106 -138 45 -280q-37 -84 -105 -137t-140 -73t-129 -3
q-58 16 -75 68t15 116q12 26 28 42q17 16 29 10q12 -7 16 -21q20 -72 74 -95q55 -23 102 11q46 34 64 82t6 92t-72 179q-18 43 -18 81z" />
    <glyph glyph-name="t" unicode="t" horiz-adv-x="544" 
d="M466 905h-34q-68 -84 -131 -180l178 178q-10 2 -13 2zM508 997q33 0 65 4q79 86 65 107q-13 21 -130 -111zM90 -6q-31 0 -63.5 27.5t-71 111.5t-0.5 225q33 141 149.5 315.5t171.5 246.5q-150 18 -233 41q-25 8 -8 36.5t55 17.5q68 -20 244 -24q139 172 227 223
q23 12 52.5 3t70.5 -55.5t10 -147.5q209 27 338 80q39 14 48.5 1.5t-18 -59t-106.5 -78.5q-129 -51 -368 -55q-51 -25 -389 -336q-152 -251 -156 -333t14 -100q30 -29 182.5 80.5t305.5 260.5q67 67 93 63.5t22.5 -20t-25.5 -38.5t-61 -65.5t-88.5 -97t-106.5 -110.5
t-110.5 -104.5t-100.5 -78t-78 -30.5z" />
    <glyph glyph-name="u" unicode="u" 
d="M368.5 51.5q-38.5 51.5 -38.5 102.5t20.5 102t46 103.5t50 96.5t34.5 64q-27 -33 -64.5 -81t-178.5 -228.5t-199 -204.5q-62 -26 -130 47.5t-54 143.5q13 120 178.5 328t245.5 288q33 33 94 1t25 -70q-90 -94 -206 -252t-155 -218.5t-61.5 -102.5t-14.5 -52t41 13.5
t80 70.5t105.5 110.5t120 132t120.5 136t138 156t96 95.5q33 13 77.5 -33.5t18.5 -72.5q-85 -107 -207.5 -340t-107 -244.5t170.5 114t211 181.5q55 55 78 64.5t39 10.5t20.5 -8t-21.5 -36t-71 -75t-94 -101t-100 -105.5t-123.5 -120t-109.5 -67.5q-36 0 -74.5 51.5z" />
    <glyph glyph-name="v" unicode="v" horiz-adv-x="737" 
d="M678 769q0 -24 -8 -60q227 6 329 53q51 20 62.5 6t-53.5 -61q-82 -65 -204 -80t-169 -13q-89 -199 -280.5 -402t-305.5 -218q-89 -11 -156 34t-67 80q0 36 22.5 89t63 128t159.5 264.5t144 233.5q8 14 32.5 11t66.5 -29t22 -72q-21 -45 -60.5 -107.5t-86 -130
t-156.5 -220t-90 -179.5t85.5 10t208 177.5t255.5 384.5q-31 49 -4 118.5t83 81.5q41 20 74 -27.5t33 -71.5z" />
    <glyph glyph-name="w" unicode="w" horiz-adv-x="1101" 
d="M483 520l-2 -2q-2 -4 2 2zM642 813q20 0 39 -9t30.5 -27.5t3.5 -39.5q-25 -52 -104 -179.5t-123 -193t-99 -152.5t-48 -105q7 -19 38 -7.5t104.5 66t191 193t191.5 298.5q-35 52 -8.5 120.5t92.5 68.5q27 4 58.5 -18.5t38.5 -53.5q2 -25 -5 -65q229 10 332 53q51 20 63 6
t-55 -61q-101 -75 -215 -92t-163 -13q-88 -188 -226.5 -331.5t-222.5 -204t-132 -65.5t-81 5t-87 56.5t38 218.5q-205 -258 -261 -279t-121.5 50.5t-55.5 144.5q13 120 178.5 328t245.5 288q35 35 76.5 12.5t53 -41t-0.5 -32.5q-103 -110 -216.5 -264t-177.5 -253.5
t-53 -114.5q12 -15 55 14.5t129.5 113t231.5 251.5t229 298q16 16 36 16z" />
    <glyph glyph-name="x" unicode="x" horiz-adv-x="677" 
d="M262 547q279 258 320 350q8 16 27 12t37 -21q50 -46 17 -98t-127 -142q-93 -89 -160 -147t-136 -120q-24 -213 4 -244q28 -32 293 205q90 82 144 136t99 57q16 1 14 -15t-45 -60q-66 -66 -226 -257t-214 -203q-53 -11 -112 54t-68 115q-8 50 -8 107q-277 -246 -340 -372
q-7 -12 -21 -6q-31 13 -38 54q-8 42 2 66t61 82q51 57 161 156q110 100 181 166q6 81 10 113q-77 -108 -138 -104q-39 3 7 50q137 139 178 287q13 50 46 70q34 20 58 27t40 3t8 -22q-33 -78 -74 -299z" />
    <glyph glyph-name="y" unicode="y" horiz-adv-x="743" 
d="M-2 39q-24 1 -46 23q-24 22 -37 61q-30 89 1 205q17 62 151 240q135 178 259 302q14 14 39 12q54 -3 79 -44q12 -18 2 -33q-24 -33 -74 -90q-69 -80 -209 -242q-139 -162 -182 -247q-22 -40 -8 -46q41 -18 580 511q55 53 75 73t44 7q49 -28 60 -92q5 -30 -13 -48
q-290 -296 -562 -759q-81 -138 -147 -271q-10 -19 -29 -13q-41 12 -62 89q-9 38 1 75q18 67 164 256q210 280 381 477q45 53 51 62q-20 -19 -60 -63t-91 -100t-138 -152t-146 -145q-59 -48 -83 -48z" />
    <glyph glyph-name="z" unicode="z" horiz-adv-x="608" 
d="M122 13q-265 -214 -244 -263q14 -32 117 46t202 191t112 167q-104 -74 -187 -141zM274 674h-45q-16 -32 -58 -94t-76 -95q-33 -33 -57 -44t-39 -10t-17 12t20 34q117 119 170 225q-37 37 -40 92t33 83q35 27 65 17q60 -19 51 -91q-6 -41 -21 -66q160 27 224 61
q63 33 94 30q68 -7 79 -48q6 -18 -11 -28q-40 -23 -220 -206q-181 -183 -240 -253q95 24 156 -29q155 100 266 211q45 49 87 46q15 -1 17 -12t-18 -34q-165 -160 -307 -268q39 -75 8 -129q-90 -191 -227 -319t-244 -140q-59 -8 -98 69t-13 141t147 169q122 104 316 225
q-33 23 -89 9t-124 -85q-29 -29 -53 20t-4 95t250 294q61 67 117 124q-55 -6 -99 -6z" />
    <glyph glyph-name="braceleft" unicode="{" horiz-adv-x="763" 
d="M917.5 1093q16.5 -11 -28.5 -35t-81 -72t-66.5 -104.5t-104 -198.5t-250.5 -161q68 -41 83 -83t-2 -88t-55 -97t-105 -154.5t-58 -222.5q4 -54 -42 -20t-68.5 68t-24.5 68t22.5 80t95.5 146t106.5 181t-42.5 116q-26 11 -10.5 71t35.5 60q127 -10 230.5 202.5
t147.5 238.5q47 28 124 22t93.5 -17z" />
    <glyph glyph-name="bar" unicode="|" horiz-adv-x="841" 
d="M43 -279q-30 20 -22 53q7 32 33 92q149 347 374 781q191 378 246 428q16 13 47 15t57 -6t39 -24q12 -16 -8 -32q-73 -61 -386 -634q-316 -589 -333 -650q-6 -20 -20 -26t-27 3z" />
    <glyph glyph-name="braceright" unicode="}" horiz-adv-x="763" 
d="M-111 -83q0 11 39 31q67 35 142 172q32 56 62 116q113 224 292 243q-70 39 -84 82q-24 74 67 198t126 207t28 158q-3 27 17 26q48 -2 93 -73t3 -149q-25 -45 -94 -141t-93 -151q-24 -54 -21 -92t48 -59q26 -11 11 -70t-36 -61q-126 9 -225 -189q-75 -150 -109 -204
q-51 -82 -193 -69q-71 7 -73 25z" />
    <glyph glyph-name="asciitilde" unicode="~" horiz-adv-x="866" 
d="M296 419q-13 -17 -47 -61t-54 -55q-21 -10 -56 -2t-48 29q-13 20 4 30q42 25 108 76q91 72 139 108t83 39t47 -3t-1 -33q-14 -27 -27 -81q-14 -55 4 -59q18 -5 59 21t71 80q30 53 36 78q2 12 25 10q58 -5 84 -51t-74 -121q-100 -74 -176 -98q-75 -25 -101 -13t-43 43
t-14 78q-6 2 -19 -15z" />
    <glyph glyph-name="uni00A0" unicode="&#xa0;" horiz-adv-x="555" 
 />
    <glyph glyph-name="exclamdown" unicode="&#xa1;" horiz-adv-x="768" 
d="M638 776q22 0 29 -30t2 -52q-16 -71 -216 -325t-308 -344q-45 -35 -134 -12q-34 9 -47 27q-12 18 8 32t66 59q522 511 576 621q12 24 24 24zM647 1012q1 24 19 48q36 48 112 59q77 12 94 -23q17 -43 -33 -106q-50 -62 -100 -62q-51 0 -80 43q-12 18 -12 41z" />
    <glyph glyph-name="cent" unicode="&#xa2;" horiz-adv-x="776" 
d="M465 528q61 22 98 90q23 47 2 87zM342 575q-215 -267 -170 -405q105 224 238 481q-35 -35 -68 -76zM42 -228q-29 18 -19 57t90 212q-43 43 -68 109q-44 115 11 228q54 113 131 201q196 224 327 267q71 128 107 166q14 14 61 16t69 -29q11 -14 -14 -32t-98 -144
q33 -25 41 -80q16 -108 -66 -233q-34 -51 -70 -86t-56 -40q-37 -9 -66 67l-172 -322q51 6 158 72q43 27 50 13t-4 -46q-28 -76 -84 -122q-99 -81 -190 -50q-83 -162 -92 -191q-16 -50 -46 -33z" />
    <glyph glyph-name="sterling" unicode="&#xa3;" horiz-adv-x="1431" 
d="M780 508q27 0 58.5 -20.5t52 -44t19.5 -41t-34 -11.5q-106 19 -305 -10l-28 -39q129 19 196 8q37 -8 50.5 -47t9.5 -55t-39 -6q-82 22 -279 8q-49 -76 -84 -144q278 -11 440 -55.5t199 -72.5t56.5 -68.5t24.5 -75.5t-5 -54.5t-47 9.5q-90 71 -311 145.5t-398 67.5
q-75 -121 -124 -143q-48 -22 -110.5 7.5t-85 56t-14.5 48.5q19 50 87 91.5t174 52.5l67 118q-12 -4 -23.5 -5t-23.5 -6t-21.5 2t-11.5 27.5t37 37.5q14 4 38 11t54 15l23 39q-12 -4 -24 -6t-28 -8t-21 4t9 42.5t70 57.5l22 8q23 7 46 13q295 430 484 500.5t268 65.5t119 -54
t43 -67.5t-26 -10.5q-153 46 -349.5 -75.5t-368.5 -325.5q87 10 114 10z" />
    <glyph glyph-name="currency" unicode="&#xa4;" horiz-adv-x="944" 
d="M446 457q-140 -110 -94 -143q20 -15 60 1q40 17 74 49t48 72t-20 76q-31 -27 -68 -55zM461 594q23 23 55 -12q20 6 43 6q69 64 104 77t73 16t68 -2t39 -16t-21 -30t-148 -103q27 -49 -11 -116t-116 -119q15 -54 25 -76q11 -23 -3 -33q-34 -25 -71 -10q-38 14 -46 28
t-12 38q-85 -28 -131 -2q-41 -35 -73 -52q-69 -25 -119 -17q-50 9 -60 20q-9 11 13 25q82 49 178 122q7 76 117 176q-10 41 -23 76q-12 35 -16 49q-10 19 4 29q34 25 72 10q39 -14 46 -28t8 -26q1 -13 5 -30z" />
    <glyph glyph-name="yen" unicode="&#xa5;" horiz-adv-x="1069" 
d="M532 276l41 3q23 0 55 -22q32 -21 52 -45t19 -40t-54 -6t-199 -4l-26 -37q61 7 115 -2q34 -8 54 -63q7 -22 4 -36t-47 -4q-44 11 -192 7q-82 -123 -112 -220q-12 -36 -69 16q-54 47 -58 101q-2 26 43 86l-56 -12q-16 -6 -30 5t-1 32q13 20 41 31t107 30q8 8 14 16t15 19
q-31 -5 -68 -15t-43 -1q-12 20 19 54q32 33 56 43t59 17q34 8 75 19q105 119 195 220t135 159q-447 -379 -518 -385q-48 0 -97 68q-50 68 -40 119t69 141q257 400 270 446q12 45 38 46q54 2 97 -61q19 -27 16 -43t-42 -69t-132 -175q-93 -123 -163 -224t-53 -113
q30 -37 584 416q211 174 268 235q29 30 47 12t24 -57t0 -82t-21 -58q-103 -103 -258 -284q-155 -182 -233 -283z" />
    <glyph glyph-name="brokenbar" unicode="&#xa6;" horiz-adv-x="780" 
d="M418 476q-32 -11 -47 36q-16 48 110 274q126 227 193 289q16 13 47 15t57 -6t39 -24q12 -15 -8 -32q-69 -56 -207 -250q-137 -194 -164 -276q-6 -20 -20 -26zM23 -217q21 87 108 301q87 216 103 246q27 53 80 28q50 -22 16 -75q-72 -110 -198 -423q-30 -76 -39 -106
q-16 -54 -48 -33t-22 62z" />
    <glyph glyph-name="section" unicode="&#xa7;" horiz-adv-x="989" 
d="M637 625q114 92 151 124q37 33 39 47q3 14 -21 2q-64 -30 -149 -130q-16 -20 -20 -43zM569 463l-22 -29q-36 -45 -12 -91q12 -26 65 -93q72 72 21 141q-25 33 -52 72zM410 346q0 87 116 201q-4 8 -4 16v17q0 77 87 169t190 138q47 20 88 20t62 -22q40 -42 -2 -116
t-125 -130q-83 -57 -154 -98q18 -27 42 -57q90 -113 42 -246q-30 -77 -95 -123q4 -51 -19 -112q-24 -60 -70 -101q-92 -82 -218 -89t-223 36q-90 42 -102 103t20 90t58 -3q27 -32 77 -56q52 -24 110 -31t99 5q81 24 119 84t6 111q-18 28 -42 60q-62 82 -62 134z" />
    <glyph glyph-name="dieresis" unicode="&#xa8;" horiz-adv-x="557" 
d="M323 989q-80 32 -45 89q35 61 114 102q36 18 54 17t55 -22q36 -21 34 -49q-19 -64 -104 -119q-25 -15 -49 -23t-59 5zM65 983q-61 33 -34 84q27 52 104 93q33 16 46 16q46 -2 81 -40q19 -21 -13 -63t-71 -65q-38 -23 -62 -31t-51 6z" />
    <glyph glyph-name="copyright" unicode="&#xa9;" horiz-adv-x="1296" 
d="M248 -117q61 -43 142 -29q158 28 344 216q186 187 303 411t95 372q-11 75 -76 113q-125 73 -310 -42t-348 -334q-164 -218 -216 -421q-53 -202 66 -286zM1139 1016q135 -113 135 -264t-126 -378t-306 -397q-181 -170 -330 -204q-261 -59 -398 100q-58 68 -80 154t-12 149
q21 124 134 317q204 345 476 519q212 133 366 82q79 -27 141 -78zM899 848q53 -28 53 -97t-84 -211q-84 -141 -112 -145t-50 52t-6 83q16 28 54 62t60 63t20 59t-39 24q-71 -12 -176 -144q-105 -131 -141 -214q-68 -158 -21 -222q44 -55 223 55q43 27 50 13q15 -32 -30 -100
t-96 -95t-86 -33t-78 16q-92 48 -127 165q-34 116 23 228q93 179 260 325q168 146 256 132q25 -4 47 -16z" />
    <glyph glyph-name="ordfeminine" unicode="&#xaa;" horiz-adv-x="768" 
d="M672 1004q48 93 26 106q-30 17 -149 -86q-119 -104 -188 -191q-126 -161 -101 -188q22 -29 151 84q130 113 261 275zM793 963q-89 -141 -141 -221t-29 -89q15 -9 94 63q78 72 121 116t66 70q44 47 85 49q33 2 -12 -48q-37 -37 -88 -98t-140 -165t-114 -112
q-46 -14 -86 32q-41 46 -5 131q18 46 43 89q25 42 31 54q-33 -54 -107 -133q-169 -178 -237 -181q-53 0 -90 73q-38 73 -23 125q15 53 97 151q219 264 363 339q49 27 69 22q37 -9 61 -70q25 -61 5 -111q23 -14 36 -40t1 -46z" />
    <glyph glyph-name="guillemotleft" unicode="&#xab;" horiz-adv-x="1284" 
d="M585 459q33 59 93 73q30 8 196 82t254 122q28 15 36 2q21 -30 -30 -104t-149 -113t-168 -54q-70 -16 -72 -16q6 -3 32 -13t77 -29t82 -40q18 -18 16 -44q-4 -57 -51 -79q-19 -10 -35 3q-81 68 -164 107q-82 39 -104 41q-22 3 -24 21q-3 18 11 41zM165 418q-6 40 48 86
q25 22 55 28q30 8 196 82q164 74 254 122q28 15 37 2q21 -30 -30 -104t-147 -112t-168 -55q-72 -16 -74 -16q6 -3 32 -13t77 -29t81 -40q18 -18 16 -44q-2 -25 -16 -47q-38 -56 -70 -29q-33 28 -129 86t-128 61q-31 3 -34 22z" />
    <glyph glyph-name="logicalnot" unicode="&#xac;" horiz-adv-x="966" 
d="M92 418q18 21 38 31t65 20t131 25.5t214 32t162 14.5q33 -2 45.5 -22.5t10.5 -45t-15.5 -47.5t-29.5 -31q-136 -168 -154 -217q-10 -23 -24.5 -17.5t-37 46t-3.5 88.5q2 10 31.5 45t54.5 68q-222 0 -343.5 -25t-144.5 -34t-28 1t2.5 28.5t25.5 39.5z" />
    <glyph glyph-name="uni00AD" unicode="&#xad;" horiz-adv-x="806" 
d="M146 353q-5 13 2 33q6 20 26 45q20 24 44 36q24 11 70 25q193 57 251 51q19 -2 39 -29q47 -62 34 -107q-6 -22 -43 -13t-120 7t-165 -20q-81 -17 -107 -29t-31 1z" />
    <glyph glyph-name="registered" unicode="&#xae;" horiz-adv-x="1296" 
d="M491 534q59 60 77 72t34 -10q17 -22 18 -65q0 -44 -12 -57q-31 -32 -61 -77q157 76 256 143q100 66 136 99q78 71 52 113q-43 58 -222 -11q-180 -68 -315 -167q-65 -46 -98 -86t-8 -57t143 103zM653 301q83 -60 158 -147q207 240 293 487t-47 324q-134 77 -346 -66
q-63 -43 -125 -100q231 116 387 73q55 -14 98 -59t17 -118q-48 -137 -253 -287q-93 -68 -182 -107zM272 395q-146 -269 -92 -425q18 -54 64 -86q81 -58 199 -14t249 163q-51 110 -74 145q-48 71 -79 62q-14 -6 -32 12q-17 18 -28 45q-140 -220 -170 -324q-10 -33 -29 -29
q-41 6 -68 84q-11 34 -3 60q18 61 168 227q37 41 63 72q-82 -65 -139 -34q-20 11 -29 42zM1139 1016q135 -113 135 -264t-124 -376t-308 -397q-183 -172 -332 -206q-262 -59 -397 100q-57 68 -79 154t-12 149q18 122 132 317q202 341 477 519q210 133 366 82q80 -27 142 -78
z" />
    <glyph glyph-name="macron" unicode="&#xaf;" horiz-adv-x="628" 
d="M306 1053q-185 0 -257 -21q-23 -6 -27 6q-7 26 27 60q33 35 74 49t185 32t214 -1q26 -6 48 -36t31 -60t1 -48t-59 0q-52 18 -237 19z" />
    <glyph glyph-name="degree" unicode="&#xb0;" horiz-adv-x="483" 
d="M303 719q-141 -110 -95 -143q20 -14 61 2q40 16 74 48t47 72t-19 76q-31 -27 -68 -55zM373 844q50 15 102 -4q51 -19 63 -59q24 -78 -76 -175t-212 -113q-55 -9 -95 15q-74 45 -44 124q19 54 83 117t128 111q19 19 51 -16z" />
    <glyph glyph-name="plusminus" unicode="&#xb1;" horiz-adv-x="966" 
d="M-120 -121q-5 11 2 29q8 18 26 39t46 35t262 52q233 38 302 38q69 -6 53 -84q-6 -28 -25 -49q-19 -19 -41 -13t-70 9q-80 5 -279 -13t-248 -43q-23 -10 -28 0zM179 172q24 64 104 215q-166 -25 -190 -36q-44 -20 -26 27t68 73q18 12 209 45q87 152 118 187q30 34 76 52
q46 19 82 19t46 -18t-26 -53q-36 -34 -130 -161q172 24 201 20q31 -3 41 -29q23 -58 -22 -103q-19 -20 -45 -12q-67 19 -261 3l-166 -231q-29 -37 -51 -37q-43 1 -28 39z" />
    <glyph glyph-name="twosuperior" unicode="&#xb2;" horiz-adv-x="677" 
d="M324 776q0 -20 -22 -16t-46 22t-44 47q-19 29 -15 64t44 96q85 130 253 230q84 49 168 63t156 -58t61 -151q-16 -103 -253 -308q-217 -181 -374 -265q54 18 114 40t111 37t89 22t52 1t16 -36q6 -70 -30 -113q-16 -21 -39 -9q-45 22 -244 0q-199 -23 -265 -45t-71 -7
q-12 36 56 97q31 29 84 51t135 78q163 110 298 260q223 249 178 316q-17 26 -55 18q-75 -15 -179 -120q-103 -104 -140 -187q-38 -82 -38 -127z" />
    <glyph glyph-name="threesuperior" unicode="&#xb3;" horiz-adv-x="712" 
d="M426 1023q0 -24 -23 -24q-52 0 -99 44t27 102t162 92q87 35 131 41t90 -23q98 -62 133 -166q34 -104 -61 -151q-58 -31 -168 -58q-110 -28 -147 -42q160 20 240 -69q51 -56 32 -141t-119 -161q-50 -37 -128 -59t-157 -13q-156 16 -240 113q-38 45 -38 96t62 104
q23 19 41 23t18 -18q-8 -99 68 -182t186 -60q78 19 109 89t12 129q-21 57 -75 77t-115 -10q-10 -4 -24 17t-3 53q12 32 30 42t54 28q370 185 303 267q-29 35 -80 27t-100 -37t-85 -67t-36 -63z" />
    <glyph glyph-name="acute" unicode="&#xb4;" horiz-adv-x="540" 
d="M419 1206q22 0 45 -21.5t38.5 -47t16.5 -46t-23 -18.5q-47 4 -187 -45.5t-256 -118.5q-20 -12 -27.5 -3t0.5 43t37 59q29 26 76 57t102.5 62.5t105.5 55t72 23.5z" />
    <glyph glyph-name="mu" unicode="&#xb5;" 
d="M368.5 51.5q-38.5 51.5 -38.5 102.5t20.5 102t46 103.5t50 96.5t34.5 64q-27 -33 -64.5 -81t-178.5 -228.5t-196 -203.5q-51 -22 -101.5 17.5t-75.5 98.5q-97 -199 -143 -336t-49 -158t-22.5 -15.5t-58.5 43t-33 77.5q7 40 145 274t187 289q90 176 218.5 326.5
t158.5 178.5t57 25.5t49.5 -14.5t34 -29.5t-10.5 -39.5t-68.5 -79t-98 -123.5t-103.5 -137t-91 -131t-61.5 -102.5t-14.5 -52t41 13.5t80 70.5t105.5 110.5t120 132t120.5 136t138 156t96 95.5q33 13 77.5 -33.5t18.5 -72.5q-85 -107 -207.5 -340t-107 -244.5t170.5 114
t211 181.5q55 55 78 64.5t39 10.5t20.5 -8t-21.5 -36t-71 -75t-94 -101t-100 -105.5t-123.5 -120t-109.5 -67.5q-36 0 -74.5 51.5z" />
    <glyph glyph-name="paragraph" unicode="&#xb6;" horiz-adv-x="1105" 
d="M1153 1202q45 -8 16 -81q-10 -28 -29 -47t-38 -11l-25 6q-119 -145 -502 -862q-180 -339 -192 -381q-13 -41 -27 -46q-31 -11 -45 30q-6 18 -1 40t79 190q74 167 266 549q192 383 260 486q-53 -4 -100 -12q14 -19 -6 -35q-73 -61 -386 -634q-316 -589 -333 -650
q-6 -20 -20 -26q-32 -12 -45 30q-6 18 -1 40q22 99 304 648q119 234 196 352q-70 50 -72 106q-5 109 158 201q163 91 363 111q98 10 180 -4z" />
    <glyph glyph-name="periodcentered" unicode="&#xb7;" horiz-adv-x="698" 
d="M259 375q-78 33 -44 91q34 59 114 99q36 17 49 17q12 0 28 -6q69 -29 65 -64q-14 -47 -62 -88q-47 -41 -80 -52q-34 -11 -70 3z" />
    <glyph glyph-name="cedilla" unicode="&#xb8;" horiz-adv-x="530" 
d="M392 -156q-30 0 -64 -8t-69 -18q-34 -10 -52 -14t-33 14q-15 19 -7 48q9 29 21 34q32 5 92 50t91 100q31 54 47 60t17 -16q3 -59 -93 -190q70 20 95 20q44 0 64 -68q21 -68 -5 -109q-27 -40 -88 -82q-84 -57 -214 -89q-52 -13 -126 30q-29 15 -41 28q-12 14 3 14
q56 2 197 61t175 84q36 27 28 39t-38 12z" />
    <glyph glyph-name="onesuperior" unicode="&#xb9;" horiz-adv-x="460" 
d="M156 409q-29 23 -29 48t80 164q37 59 82 129q-35 -23 -101 3q-24 9 -36 21t0 19q101 45 271 267q58 77 120 177q33 61 109 67q28 2 42 -10t2 -32t-45 -74q-33 -53 -77 -128q-272 -464 -318 -650q-6 -20 -27 -22q-44 -2 -73 21z" />
    <glyph glyph-name="ordmasculine" unicode="&#xba;" horiz-adv-x="718" 
d="M385 939q-155 -179 -203 -331q-23 -74 5 -107q51 -62 148 4q98 65 207 200t153 226q80 162 53 206q-49 81 -218 -55q-72 -58 -145 -143zM88 582q0 105 76 261q124 258 307 385q123 84 224 43q100 -41 131 -154q31 -114 -68 -330q-65 -140 -134 -226t-118 -126
q-50 -40 -110 -55q-127 -32 -217 33q-91 64 -91 169z" />
    <glyph glyph-name="guillemotright" unicode="&#xbb;" horiz-adv-x="1255" 
d="M1034 463q-31 -8 -196 -82q-166 -74 -254 -122q-28 -15 -36 -2q-9 13 0 43t34 67q24 37 56 59q83 58 281 106q40 10 44 13q-59 15 -118 43t-73 42t-12 41q4 58 51 78q19 9 35 -3q77 -62 162 -104q84 -42 106 -44t24 -20q6 -38 -48 -85q-25 -22 -56 -30zM718 537
q-13 -23 -38 -45q-26 -22 -56 -29q-30 -8 -195 -82t-255 -122q-28 -15 -36 -2q-9 13 0 43t34 67q24 37 56 59q80 56 281 106q40 10 44 13q-33 8 -103 38q-70 29 -86 45q-15 17 -14 43q4 57 51 78q19 9 35 -3q78 -62 162 -104t106 -44t24 -20q3 -18 -10 -41z" />
    <glyph glyph-name="onequarter" unicode="&#xbc;" horiz-adv-x="1492" 
d="M592 72q18 6 110 34t123 41q42 26 207 267q37 53 53 78q-124 -133 -411 -362q-59 -46 -82 -58zM197 409q-29 23 -29 48t80 164q37 59 82 129q-35 -23 -101 3q-25 9 -37 21t1 19q101 45 271 267q58 77 120 177q33 61 109 67q28 2 42 -10t2 -32t-45 -74q-33 -53 -77 -128
q-272 -464 -318 -650q-6 -20 -27 -22q-44 -2 -73 21zM1324 1159q125 0 158 -39q15 -18 -22 -35q-200 -89 -524 -368q-325 -280 -633 -596q-131 -134 -227 -252q-12 -17 -28 -19t-28 10q-26 28 14 81q209 279 790 860q300 297 397 338q47 20 103 20zM690 -126q0 57 92 155
q-149 -24 -213 -32q-63 -7 -84 -11t-27 18t-2 52q13 81 62 104q86 47 224 165t327 341q32 36 141 17q41 -7 68 -23q26 -16 10 -36t-95 -134t-187 -300q57 20 81 15q50 -15 64 -113q4 -35 -8 -55t-39 -1t-73 20t-105 -3q-107 -186 -101 -225t-15 -44q-48 -11 -98 43
q-22 25 -22 47z" />
    <glyph glyph-name="onehalf" unicode="&#xbd;" horiz-adv-x="1574" 
d="M807 162q0 -20 -22 -16q-23 4 -47 22q-66 50 -58 106q4 38 44 100q86 132 251 229q165 96 252 57q87 -38 122 -119t-29 -172q-95 -135 -345 -325q-149 -109 -240 -159q55 18 141 50t149 44q63 13 77 7t16 -36q5 -72 -31 -114q-16 -20 -47 -3t-176 1t-225 -30t-123 -29
q-43 -14 -48 1q-12 36 56 97q30 29 84 51t136 78q158 107 293 255t180 249q20 48 3 72q-18 24 -56 17q-77 -14 -181 -121q-105 -107 -150 -211q-26 -56 -26 -101zM1324 1159q125 0 158 -39q15 -18 -22 -35q-200 -89 -524 -368q-325 -280 -633 -596q-131 -134 -227 -252
q-12 -17 -28 -19t-28 10q-26 28 14 81q209 279 790 860q300 297 397 338q47 20 103 20zM197 409q-29 23 -29 48t80 164q37 59 82 129q-35 -23 -101 3q-25 9 -37 21t1 19q101 45 271 267q58 77 120 177q33 61 109 67q28 2 42 -10t2 -32t-45 -74q-33 -53 -77 -128
q-272 -464 -318 -650q-6 -20 -27 -22q-44 -2 -73 21z" />
    <glyph glyph-name="threequarters" unicode="&#xbe;" horiz-adv-x="1759" 
d="M844 72q18 6 110 34t123 41q42 26 207 267q37 53 53 78q-124 -133 -411 -362q-59 -46 -82 -58zM1576 1159q125 0 158 -39q15 -18 -22 -35q-200 -89 -524 -368q-325 -280 -633 -596q-131 -134 -227 -252q-12 -17 -28 -19t-28 10q-26 28 14 81t106 130q132 155 318 354
q439 468 670 652q60 48 100 65t96 17zM467 1023q0 -24 -23 -24q-52 0 -99 44t27 102t162 92q88 35 132 41t89 -23q98 -62 133 -166q34 -104 -61 -151q-58 -31 -168 -58q-110 -28 -147 -42q160 20 240 -69q51 -56 32 -141t-119 -161q-50 -37 -128 -59t-157 -13
q-156 16 -240 113q-38 45 -38 96t62 104q23 19 41 23t18 -18q-8 -99 68 -182t186 -60q78 19 109 89t12 129q-20 57 -74 77t-116 -10q-10 -4 -24 17t-3 53t29 42t55 28q370 185 303 267q-29 35 -80 27t-100 -37t-85 -67t-36 -63zM964 -173q-22 24 -22 56q0 47 92 146
q-149 -24 -213 -32q-63 -7 -84 -11t-27 18t-2 52q13 81 62 104q86 47 224 165t327 341q32 36 141 17q41 -7 68 -23q26 -16 10 -36q-26 -32 -111 -158q-86 -127 -172 -276q57 20 83 14t42 -42q16 -35 20 -70t-7 -55q-12 -20 -39 -1t-73 20t-105 -3q-107 -186 -101 -225
t-15 -44q-48 -11 -98 43z" />
    <glyph glyph-name="questiondown" unicode="&#xbf;" horiz-adv-x="1101" 
d="M879 821q10 18 26 5q42 -34 36 -108q-6 -73 -128 -137q-83 -45 -227 -110q-144 -66 -210 -109q-155 -100 -169 -208q-3 -35 21 -44q50 -18 132 18q138 61 208 120q69 59 94 96q24 37 46 27q47 -22 36 -121q-12 -109 -230 -197q-134 -55 -246 -51q-47 2 -90 38
q-92 77 -88 204q5 154 294 290q74 34 148 64t141 60q153 72 206 163zM918 1073q0 23 18 47q32 44 109 60t98 -24t-31 -102q-48 -63 -102 -63t-80 41q-12 18 -12 41z" />
    <glyph glyph-name="Agrave" unicode="&#xc0;" horiz-adv-x="1865" 
d="M2077 1298q37 -22 -3 -40q-17 -8 -59 -10q-76 -5 -217 130q-27 27 -39 44q-12 16 -6 50q7 34 21 62t31 39q17 12 25 -9q35 -98 150 -200q43 -37 97 -66zM981 346q167 17 285 10q49 -4 139 -61q89 164 174 303q84 139 188 311t97 185q-20 20 -482 -380
q-226 -201 -401 -368zM463 -264q-11 -25 -31 -18q-45 15 -64 106q-9 41 0 74q15 56 228 262q-298 -78 -533 -205q-31 -15 -35 7q-11 54 50 138q29 42 57 56t127 46q197 63 492 111q414 397 802 728q155 135 222 178q28 14 68 7q85 -15 126 -79q18 -29 7 -46
q-44 -68 -152 -284q-446 -888 -395 -1007q18 -40 -4 -48t-58 10t-71 57q-36 38 -43 84q-13 83 133 349q-68 6 -210 -2t-327 -43q-327 -331 -389 -481z" />
    <glyph glyph-name="Aacute" unicode="&#xc1;" horiz-adv-x="1865" 
d="M2152 1554q22 0 45 -21.5t38.5 -47t16.5 -46t-23 -18.5q-47 4 -188.5 -46t-254.5 -118q-20 -12 -27.5 -2.5t0 42.5t36.5 59t76.5 57t103 62.5t105.5 55t72 23.5zM981 346q167 17 285 10q44 -4 139 -61q81 149 216.5 373.5t192 319.5t50.5 106q-14 14 -296 -221t-587 -527
zM463 -264q-10 -25 -30.5 -17.5t-52.5 60t-9 129.5q10 39 225 252q-298 -78 -533 -205q-31 -16 -35.5 6.5t8.5 60t41.5 79t56.5 55.5q58 30 239.5 77t380.5 80q368 352 663 607.5t361 298.5q27 14 67.5 7t74.5 -28.5t53 -50.5t7 -46t-40.5 -70.5t-72.5 -136.5t-96.5 -188.5
t-133 -273t-155.5 -368t-53 -248.5q21 -47 -0.5 -54.5t-57.5 11t-71.5 56.5t-43.5 84q-13 82 133 349q-68 6 -210.5 -2t-326.5 -43q-327 -331 -389 -481z" />
    <glyph glyph-name="Acircumflex" unicode="&#xc2;" horiz-adv-x="1865" 
d="M2122 1305q0 -15 -18 -25t-43 -13q-64 -8 -64 19q-3 21 26 95t48 106q-27 -34 -136 -135t-142 -101q-31 1 -53 11q-44 21 -44 48q0 13 21 21t111 67q133 88 195 137t125 40q27 -4 39 -17q12 -14 1 -32q-10 -18 -38 -96t-28 -125zM981 346q167 17 285 10q49 -4 139 -61
q89 164 174 303q84 139 188 311t97 185q-20 20 -482 -380q-226 -201 -401 -368zM463 -264q-11 -25 -31 -18q-45 15 -64 106q-9 41 0 74q15 56 228 262q-298 -78 -533 -205q-31 -15 -35 7q-11 54 50 138q29 42 57 56t127 46q197 63 492 111q414 397 802 728q155 135 222 178
q28 14 68 7q85 -15 126 -79q18 -29 7 -46q-44 -68 -152 -284q-446 -888 -395 -1007q18 -40 -4 -48t-58 10t-71 57q-36 38 -43 84q-13 83 133 349q-68 6 -210 -2t-327 -43q-327 -331 -389 -481z" />
    <glyph glyph-name="Atilde" unicode="&#xc3;" horiz-adv-x="1865" 
d="M1779 1426q103 80 119 92t53 24q36 12 64 0q12 -6 3 -23q-31 -58 -39 -129q-1 -18 15 -22t55 22q40 26 71 80q30 54 34 72t28 16q57 -4 83 -51q27 -47 -71 -117q-102 -76 -178 -101t-102 -13t-43 43t-13 78q-6 3 -20 -15t-48 -63q-35 -45 -61 -57t-75 15t-13 48
q35 21 138 101zM981 346q167 17 285 10q49 -4 139 -61q89 164 174 303q84 139 188 311t97 185q-20 20 -482 -380q-226 -201 -401 -368zM463 -264q-11 -25 -31 -18q-45 15 -64 106q-9 41 0 74q15 56 228 262q-298 -78 -533 -205q-31 -15 -35 7q-11 54 50 138q29 42 57 56
t127 46q197 63 492 111q414 397 802 728q155 135 222 178q28 14 68 7q85 -15 126 -79q18 -29 7 -46q-44 -68 -152 -284q-446 -888 -395 -1007q18 -40 -4 -48t-58 10t-71 57q-36 38 -43 84q-13 83 133 349q-68 6 -210 -2t-327 -43q-327 -331 -389 -481z" />
    <glyph glyph-name="Adieresis" unicode="&#xc4;" horiz-adv-x="1865" 
d="M1744 1331q-61 33 -34 85t105 92q33 16 46 16q42 -2 81 -40q20 -22 -21 -74t-121 -83q-29 -10 -56 4zM2002 1337q-111 46 3 146q31 27 67 45t54 17t55 -23q37 -21 32 -44q-13 -63 -103 -123q-24 -15 -48 -23t-60 5zM981 346q167 17 285 10q49 -4 139 -61q89 164 174 303
q84 139 188 311t97 185q-20 20 -482 -380q-226 -201 -401 -368zM463 -264q-11 -25 -31 -18q-45 15 -64 106q-9 41 0 74q15 56 228 262q-298 -78 -533 -205q-31 -15 -35 7q-11 54 50 138q29 42 57 56t127 46q197 63 492 111q414 397 802 728q155 135 222 178q28 14 68 7
q85 -15 126 -79q18 -29 7 -46q-44 -68 -152 -284q-446 -888 -395 -1007q18 -40 -4 -48t-58 10t-71 57q-36 38 -43 84q-13 83 133 349q-68 6 -210 -2t-327 -43q-327 -331 -389 -481z" />
    <glyph glyph-name="Aring" unicode="&#xc5;" horiz-adv-x="1865" 
d="M2017 1481q-141 -110 -95 -143q20 -15 61 1q40 17 74 49t47 72t-19 76q-31 -27 -68 -55zM2087 1606q50 15 102 -4q51 -19 63 -59q25 -79 -75 -175t-213 -114q-55 -9 -95 16q-40 26 -48 58q-15 62 42 133q58 71 106 109q49 38 68 54t50 -18zM981 346q167 17 285 10
q49 -4 139 -61q89 164 174 303q84 139 188 311t97 185q-20 20 -482 -380q-226 -201 -401 -368zM463 -264q-11 -25 -31 -18q-45 15 -64 106q-9 41 0 74q15 56 228 262q-298 -78 -533 -205q-31 -15 -35 7q-11 54 50 138q29 42 57 56t127 46q197 63 492 111q414 397 802 728
q155 135 222 178q28 14 68 7q85 -15 126 -79q18 -29 7 -46q-44 -68 -152 -284q-446 -888 -395 -1007q18 -40 -4 -48t-58 10t-71 57q-36 38 -43 84q-13 83 133 349q-68 6 -210 -2t-327 -43q-327 -331 -389 -481z" />
    <glyph glyph-name="AE" unicode="&#xc6;" horiz-adv-x="2418" 
d="M1090 449q98 29 193 53t185 47q57 78 184.5 243t194.5 295q-110 -61 -371 -291t-386 -347zM2618 1253q85 0 128 -17t69 -38.5t28 -40t-31 -20.5q-426 -31 -846 -142q-35 -90 -276 -395q138 29 196 33t112 -11.5t88 -35t29.5 -35.5t-71.5 -15t-477 -92
q-368 -460 -303 -534q59 -69 247.5 -10t390.5 182.5t271 214.5q23 31 41 23.5t28 -66t-57 -156.5q-35 -54 -219.5 -153.5t-344 -144t-208.5 -47.5t-100 20.5t-109.5 90t-39.5 177.5q20 111 194 352q-243 -60 -453 -123q-193 -193 -300.5 -320.5t-141.5 -213.5
q-10 -25 -30.5 -17.5t-52.5 60t-9 129.5q10 37 245 272q-344 -114 -553 -225q-31 -16 -35.5 6.5t8.5 60t41.5 78t54.5 54.5q84 45 683 217q183 176 432.5 398t325.5 286.5t129 107.5t88 62.5t109 -16.5t81 -83q209 43 381 85t257 42z" />
    <glyph glyph-name="Ccedilla" unicode="&#xc7;" horiz-adv-x="1368" 
d="M301 -285q74 21 107.5 21t53 -68t-6.5 -109q-27 -40 -66 -67t-83 -48.5t-85 -35.5t-67.5 -20t-62.5 4t-64.5 25.5t-41 28.5t6.5 13q44 0 160 48.5t156 69t63.5 38t16.5 29.5t-36.5 12t-64.5 -8t-69 -18.5t-52.5 -14.5t-28.5 9.5t-12 46t22 39.5q57 17 127 102
q-109 47 -176 127.5t-75 189.5q-13 138 167.5 388.5t472.5 458.5t615 255q212 29 288 -20.5t93.5 -89t14.5 -73.5t-61.5 -84.5t-136 -107.5t-153.5 -118.5t-113 -116.5q-14 -20 -41.5 -11.5t-67.5 57t-3 99.5t128 105.5t145 86t119 79t32 86.5q-58 70 -336 -27t-543 -339
t-376.5 -432.5t-76.5 -291.5t113 -146q85 -52 240.5 -12.5t288 119.5t149.5 137q10 35 38 31t51.5 -30t32.5 -62.5t-15 -68.5t-82 -74t-131.5 -79.5t-154 -65.5t-176.5 -28t-196 31q-8 -12 -19.5 -29.5t-27.5 -40.5z" />
    <glyph glyph-name="Egrave" unicode="&#xc8;" horiz-adv-x="1402" 
d="M905 1417q-25 37 2 88t44.5 63.5t24.5 -8.5q19 -58 84 -135.5t163 -130.5q37 -22 -20 -46.5t-144.5 32t-153.5 137.5zM1648 1229q64 0 100 -13.5t53.5 -31t12 -31.5t-37.5 -16q-454 -30 -949 -170q45 -76 39 -118q-10 -69 -166 -257q124 39 168 42q45 3 92.5 -12.5
t78 -36t33 -39t-65.5 -25.5q-158 -16 -461 -107q-174 -193 -236.5 -283t-83.5 -142t7 -85t98.5 -30t200 43.5t333.5 164t273 215.5q23 31 41 23.5t27.5 -67t-56.5 -155.5q-35 -54 -219.5 -153.5t-344 -144t-208.5 -47.5t-100.5 20.5t-109.5 90.5t-38 187q18 93 160 279
q-132 -46 -187 -77t-65 -24t1 40.5t75 75.5t297 138q55 68 110 135.5t130.5 163.5t103.5 162q-378 -120 -684 -282q-47 -25 -49.5 1.5t24.5 72.5t73 96t108 80t176 68t248 74t279.5 67.5t282 55t254.5 38t182 14.5z" />
    <glyph glyph-name="Eacute" unicode="&#xc9;" horiz-adv-x="1402" 
d="M1265 1497q22 0 45 -21.5t38.5 -47t16.5 -46t-23 -18.5q-44 4 -190 -48t-253 -116q-20 -12 -27.5 -3t-0.5 42t37 59q30 27 77 57.5t102.5 62.5t105.5 55.5t72 23.5zM1648 1229q64 0 100 -13.5t53.5 -31t12 -31.5t-37.5 -16q-454 -30 -949 -170q45 -76 39 -118
q-10 -69 -166 -257q124 39 168 42q45 3 92.5 -12.5t78 -36t33 -39t-65.5 -25.5q-158 -16 -461 -107q-174 -193 -236.5 -283t-83.5 -142t7 -85t98.5 -30t200 43.5t333.5 164t273 215.5q23 31 41 23.5t27.5 -67t-56.5 -155.5q-35 -54 -219.5 -153.5t-344 -144t-208.5 -47.5
t-100.5 20.5t-109.5 90.5t-38 187q18 93 160 279q-132 -46 -187 -77t-65 -24t1 40.5t75 75.5t297 138q55 68 110 135.5t130.5 163.5t103.5 162q-378 -120 -684 -282q-47 -25 -49.5 1.5t24.5 72.5t73 96t108 80t176 68t248 74t279.5 67.5t282 55t254.5 38t182 14.5z" />
    <glyph glyph-name="Ecircumflex" unicode="&#xca;" horiz-adv-x="1402" 
d="M1227.5 1552q25.5 0 41 -11t7.5 -31q-20 -49 -31.5 -128.5t-7.5 -96.5t-13.5 -29.5t-59.5 -27.5t-46 17q-8 31 13 98q20 66 36 115q-97 -138 -162 -205t-91 -71q-47 -7 -80.5 20t-9.5 42q52 33 153 125t131 127q30 34 62 45t57.5 11zM1648 1229q64 0 100 -13.5t53.5 -31
t12 -31.5t-37.5 -16q-454 -30 -949 -170q45 -76 39 -118q-10 -69 -166 -257q124 39 168 42q45 3 92.5 -12.5t78 -36t33 -39t-65.5 -25.5q-158 -16 -461 -107q-174 -193 -236.5 -283t-83.5 -142t7 -85t98.5 -30t200 43.5t333.5 164t273 215.5q23 31 41 23.5t27.5 -67
t-56.5 -155.5q-35 -54 -219.5 -153.5t-344 -144t-208.5 -47.5t-100.5 20.5t-109.5 90.5t-38 187q18 93 160 279q-132 -46 -187 -77t-65 -24t1 40.5t75 75.5t297 138q55 68 110 135.5t130.5 163.5t103.5 162q-378 -120 -684 -282q-47 -25 -49.5 1.5t24.5 72.5t73 96t108 80
t176 68t248 74t279.5 67.5t282 55t254.5 38t182 14.5z" />
    <glyph glyph-name="Edieresis" unicode="&#xcb;" horiz-adv-x="1402" 
d="M885.5 1257q-73.5 38 13 112.5t131.5 70.5q18 0 40 -14.5t32 -26t6 -27.5q-8 -33 -78.5 -93t-144 -22zM1162 1253.5q-36 14.5 -49 36.5q-24 42 52 108t125 62q14 0 51 -21.5t32 -44.5q-10 -45 -58 -88.5t-82 -55.5q-35 -11 -71 3.5zM1648 1229q64 0 100 -13.5t53.5 -31
t12 -31.5t-37.5 -16q-454 -30 -949 -170q45 -76 39 -118q-10 -69 -166 -257q124 39 168 42q45 3 92.5 -12.5t78 -36t33 -39t-65.5 -25.5q-158 -16 -461 -107q-174 -193 -236.5 -283t-83.5 -142t7 -85t98.5 -30t200 43.5t333.5 164t273 215.5q23 31 41 23.5t27.5 -67
t-56.5 -155.5q-35 -54 -219.5 -153.5t-344 -144t-208.5 -47.5t-100.5 20.5t-109.5 90.5t-38 187q18 93 160 279q-132 -46 -187 -77t-65 -24t1 40.5t75 75.5t297 138q55 68 110 135.5t130.5 163.5t103.5 162q-378 -120 -684 -282q-47 -25 -49.5 1.5t24.5 72.5t73 96t108 80
t176 68t248 74t279.5 67.5t282 55t254.5 38t182 14.5z" />
    <glyph glyph-name="Igrave" unicode="&#xcc;" horiz-adv-x="1173" 
d="M1287 1272q-57 -4 -113 31t-101 80t-57 62t-6 50q14 74 52 100q17 12 24 -9q19 -57 85 -135q66 -79 162 -130q20 -12 16 -28q-5 -17 -62 -21zM768 -34q0 -16 -34 -21q-108 -19 -589 -185q-54 -19 -94 36t-28 70t70 37t168 47t175 40q-38 29 -32 84t269 438
q263 384 343 496q-131 -54 -213 -105q-20 -12 -52 -3q-32 10 -59 30t-39 44t6 38q53 41 339 133t374 102q44 4 99 -45q22 -18 29 -34t-13 -21q-181 -33 -379 -105q20 -26 30 -58t-6 -48q-37 -36 -154 -210q-363 -538 -441 -718l125 25q18 2 45 -9q27 -10 44 -26t17 -32z" />
    <glyph glyph-name="Iacute" unicode="&#xcd;" horiz-adv-x="1173" 
d="M1416 1544q22 0 45.5 -21.5t39 -47t16.5 -46t-23 -18.5q-45 4 -189.5 -47.5t-253.5 -116.5q-20 -12 -27.5 -3t-0.5 42.5t37 59.5q29 26 76.5 57t102.5 62.5t105 55t72 23.5zM768 -33.5q0 -15.5 -34 -21.5t-119 -32t-180 -56.5t-178 -58t-123 -42.5t-82.5 40t-29.5 70
t54 30.5t99 32t127 31.5t134 30q-40 30 -33 78q8 72 292 480t321 460q-142 -58 -213 -105q-20 -12 -52 -3t-58.5 29.5t-39 44t6 38t72.5 37t287 104t334 92.5q62 7 101 -27t46 -50.5t-13 -20.5q-181 -33 -379 -105q20 -25 30 -57.5t-6 -48.5t-57 -71.5t-152 -220
t-223 -341.5t-163 -295l125 25q41 5 73.5 -23t32.5 -43.5z" />
    <glyph glyph-name="Icircumflex" unicode="&#xce;" horiz-adv-x="1173" 
d="M1358 1595q27 0 41 -12t3 -38t-26 -107q-16 -81 -13 -104q6 -39 -55 -54q-60 -16 -65 10q-11 39 41 179q10 28 10 32q-24 -40 -87 -114q-129 -151 -175 -156q-45 -5 -77 24t-7 43q38 22 143 109t142 128q36 40 67 50t58 10zM768 -34q0 -16 -34 -21q-108 -19 -589 -185
q-54 -19 -94 36t-28 70t70 37t168 47t175 40q-38 29 -32 84t269 438q263 384 343 496q-131 -54 -213 -105q-20 -12 -52 -3q-32 10 -59 30t-39 44t6 38q53 41 339 133t374 102q44 4 99 -45q22 -18 29 -34t-13 -21q-181 -33 -379 -105q20 -26 30 -58t-6 -48q-37 -36 -154 -210
q-363 -538 -441 -718l125 25q18 2 45 -9q27 -10 44 -26t17 -32z" />
    <glyph glyph-name="Idieresis" unicode="&#xcf;" horiz-adv-x="1173" 
d="M972 1294q-92 49 9 136q69 59 117 57q17 0 50 -22t28 -42q-4 -20 -22 -42q-48 -61 -126 -91q-29 -10 -56 4zM1230 1300q-78 32 -44 91q33 59 113 100q36 18 54 17t56 -23q37 -21 32 -44t-25 -53t-61 -57q-41 -29 -65 -37t-60 6zM768 -34q0 -16 -34 -21
q-108 -19 -589 -185q-54 -19 -94 36t-28 70t70 37t168 47t175 40q-38 29 -32 84t269 438q263 384 343 496q-131 -54 -213 -105q-20 -12 -52 -3q-32 10 -59 30t-39 44t6 38q53 41 339 133t374 102q44 4 99 -45q22 -18 29 -34t-13 -21q-181 -33 -379 -105q20 -26 30 -58
t-6 -48q-37 -36 -154 -210q-363 -538 -441 -718l125 25q18 2 45 -9q27 -10 44 -26t17 -32z" />
    <glyph glyph-name="Eth" unicode="&#xd0;" horiz-adv-x="1964" 
d="M1030 504q68 14 103 14q18 -2 35 -24q18 -22 26 -48q8 -25 2 -43t-44 -5t-251 -17q-230 -230 -258 -344q-6 -27 -31 -24q-26 3 -50 26t-39 63q-30 82 25 153q26 34 64 71q-80 -18 -113 -31q-33 -14 -37 -5t2 24q21 44 68 67q25 16 213 59q85 70 173 132t141 106
q-512 -262 -637 -295q-27 -7 -63 15q-35 22 -65 60q-71 91 -44 191q21 73 224 213q342 238 761 344q343 87 490 -14q148 -102 192 -295q18 -85 9 -161t-67 -190q-57 -114 -151 -227q-193 -234 -478 -402q-284 -169 -534 -169q-320 -3 -514 163q-78 67 -114 135t-45 106
q-8 37 29 41q80 8 178 -63q44 -32 48 -73q10 -87 128 -152q118 -64 266 -50t294 85q295 144 544 405q249 262 298 488q25 112 -28 187q-67 96 -293 70t-503 -133q-276 -107 -460 -226t-159 -178q16 -44 184 7t389 153t254 130q32 27 54 9t30 -52t1 -73t-39 -58
q-70 -41 -208 -165z" />
    <glyph glyph-name="Ntilde" unicode="&#xd1;" horiz-adv-x="1714" 
d="M1290 1303l121 94q34 25 68 26q35 2 47 -4t3 -23q-35 -67 -38 -106q-2 -40 8 -43q40 -12 96 53q55 65 72 125q2 13 25 11q57 -4 84 -51t-74 -121q-100 -74 -176 -98q-76 -25 -102 -13t-43 43t-13 78q-6 2 -19 -16q-79 -106 -106 -117q-30 -15 -63 4q-65 36 -28 57
q35 21 138 101zM1860 1229q42 36 62 -84q19 -125 -26 -166q-234 -209 -686 -845q-138 -195 -217 -322q-20 -34 -56 -50q-77 -35 -147 12q-34 22 -52 66q-37 86 -13 340q24 255 100 570q-150 -135 -421 -506q-132 -181 -204 -304q-73 -124 -88 -162t-35 -32q-42 13 -57 126
q-6 52 7 97t114 180q101 136 261 317q304 343 384 380q21 11 66 0q49 178 98 305q12 31 39 15t51 -55q24 -38 35 -84q12 -46 -4 -77q-79 -154 -135 -345q-142 -482 -126 -681q5 -63 32 -74q12 -4 59 65t204 312q469 726 755 1002z" />
    <glyph glyph-name="Ograve" unicode="&#xd2;" horiz-adv-x="1353" 
d="M1209 1219q-57 -4 -98 22q-113 71 -173 150q-25 37 14 111q14 28 32 40t24 -9q22 -60 87 -137q64 -77 160 -128q20 -12 16 -28q-5 -17 -62 -21zM389 -94q254 0 550 458q134 205 187 386q53 180 -22 265q-39 44 -125 50q-179 -95 -292 -179t-199 -160q-181 -164 -276 -352
q-51 -100 -63 -190t17 -150q62 -128 223 -128zM1092 1120q216 -69 127 -437q-54 -215 -192 -440t-300 -364q-163 -139 -298 -118q-135 22 -253 142q-118 121 -147 267q-28 146 102 361q173 283 518 527q165 117 312 177q33 12 65 0t54 -35q22 -24 27 -48t-15 -32z" />
    <glyph glyph-name="Oacute" unicode="&#xd3;" horiz-adv-x="1353" 
d="M1256 1563q22 0 45.5 -21.5t39 -47.5t16.5 -46t-23 -18q-44 5 -185 -45.5t-258 -118.5q-20 -12 -27.5 -3t-0.5 41.5t37 59.5q29 26 76.5 57t103 63t105 55.5t71.5 23.5zM388.5 -94q79.5 0 151.5 38t137.5 99t132.5 143t129 177.5t137.5 246.5t69.5 297.5t-167 157.5
q-570 -302 -694 -546.5t-136 -334.5t17 -150.5t86 -94t136.5 -33.5zM1092 1120q147 -47 152 -280t-173.5 -526.5t-342.5 -434t-301 -117.5t-253.5 142.5t-145 265t124 396t409.5 431t399 238.5q33 12 65.5 0t54 -34.5t26.5 -47.5t-15 -33z" />
    <glyph glyph-name="Ocircumflex" unicode="&#xd4;" horiz-adv-x="1353" 
d="M1219 1309q-1 -15 -19 -25t-42 -13q-64 -8 -64 19q-3 18 20 79q22 61 36 87t17 35q-33 -42 -140 -139t-138 -97q-31 1 -53 11q-44 21 -43 48q0 13 14 19q51 18 175 106q124 89 148 109q50 41 115 31q27 -4 39 -17q12 -14 1 -32t-39 -96t-27 -125zM389 -94q254 0 550 458
q134 205 187 386q53 180 -22 265q-39 44 -125 50q-179 -95 -292 -179t-199 -160q-181 -164 -276 -352q-51 -100 -63 -190t17 -150q62 -128 223 -128zM1092 1120q216 -69 127 -437q-54 -215 -192 -440t-300 -364q-163 -139 -298 -118q-135 22 -253 142q-118 121 -147 267
q-28 146 102 361q173 283 518 527q165 117 312 177q33 12 65 0t54 -35q22 -24 27 -48t-15 -32z" />
    <glyph glyph-name="Otilde" unicode="&#xd5;" horiz-adv-x="1353" 
d="M793 1266q-50 28 -23 44q28 16 127 91t127 96q77 59 129 35q12 -6 -2 -33t-27 -81q-14 -55 4 -59q18 -5 46 13t67 63q38 45 53 103q2 12 25 10q58 -5 84 -51t-72 -120q-99 -73 -177 -98q-76 -25 -102 -13t-43 43t-14 77q-6 2 -37 -38t-59 -73q-42 -48 -106 -9zM389 -94
q254 0 550 458q134 205 187 386q53 180 -22 265q-39 44 -125 50q-179 -95 -292 -179t-199 -160q-181 -164 -276 -352q-51 -100 -63 -190t17 -150q62 -128 223 -128zM1092 1120q216 -69 127 -437q-54 -215 -192 -440t-300 -364q-163 -139 -298 -118q-135 22 -253 142
q-118 121 -147 267q-28 146 102 361q173 283 518 527q165 117 312 177q33 12 65 0t54 -35q22 -24 27 -48t-15 -32z" />
    <glyph glyph-name="Odieresis" unicode="&#xd6;" horiz-adv-x="1353" 
d="M912 1309q-62 31 -34 84t105 93q33 17 46 16t36 -9t39 -25q16 -18 12 -34t-28 -47t-62 -53q-38 -23 -62 -31t-52 6zM1170 1315q-78 33 -45 90q33 58 115 100q36 18 55 17t55 -22q35 -22 31 -45q-5 -23 -24 -53t-61 -57q-42 -28 -66 -36t-60 6zM389 -94q254 0 550 458
q134 205 187 386q53 180 -22 265q-39 44 -125 50q-179 -95 -292 -179t-199 -160q-181 -164 -276 -352q-51 -100 -63 -190t17 -150q62 -128 223 -128zM1092 1120q216 -69 127 -437q-54 -215 -192 -440t-300 -364q-163 -139 -298 -118q-135 22 -253 142q-118 121 -147 267
q-28 146 102 361q173 283 518 527q165 117 312 177q33 12 65 0t54 -35q22 -24 27 -48t-15 -32z" />
    <glyph glyph-name="multiply" unicode="&#xd7;" horiz-adv-x="841" 
d="M348 385q-2 0 -27 -31t-82 -82t-87 -63t-70 -15q-39 -3 -68 2t-39 16q-11 10 11 24q109 69 202 141t109 90q-9 52 -22 95q-13 42 -20 65t-14 37t17 31q24 18 62 3q39 -14 47 -30t12 -65q4 -47 6 -69t2 -26q-1 8 49 58t84 78q84 74 202 55q30 -5 39 -17t-13 -24
q-97 -59 -196 -135q-99 -77 -114 -95q2 -22 10 -52t23 -78q14 -48 22 -64q9 -16 -5 -26t-38 -13q-24 -2 -48 7t-32 23q-22 42 -22 160z" />
    <glyph glyph-name="Oslash" unicode="&#xd8;" horiz-adv-x="1353" 
d="M1090 1028q-41 33 -111 37q-179 -95 -292 -179t-199 -160q-181 -164 -276 -352q-51 -100 -61 -178t-1 -114q368 433 816 843q71 65 124 103zM340 -90q162 -30 333 128q124 116 217 254q244 362 255 572q-304 -220 -753 -661q-116 -115 -204 -207q53 -68 152 -86z
M1167 1077q91 39 203 10q43 -10 58 -28t-21 -35q-49 -20 -168 -96q24 -171 -75 -414q-98 -244 -267 -458t-334 -281q-153 -58 -331 77q-52 40 -93 91q-54 -57 -116 -136q-13 -16 -29 -18t-27 9q-26 29 6 73t115 141q-93 163 -57 287q35 125 101 233q121 199 357 402
q236 204 472 301q33 12 65 0t54 -35q22 -24 27 -48t-15 -32q44 -14 75 -43z" />
    <glyph glyph-name="Ugrave" unicode="&#xd9;" horiz-adv-x="1472" 
d="M1348 1210q37 -22 -3 -40q-17 -8 -59 -10q-42 -3 -84 23q-116 75 -172 150q-24 36 14 112q14 28 32 40t24 -9q23 -65 66 -114q89 -102 182 -152zM975 138q0 74 143 368q35 70 60 106q-65 -73 -234 -248q-561 -580 -674 -604q-89 -19 -173 68q-36 37 -57 83q-22 46 -18 90
t125 229q120 184 204 311q325 486 345 645q2 24 28 22q62 -6 100 -78q18 -35 4 -92q-37 -146 -397 -648q-201 -280 -249 -378q-47 -98 -24 -118q12 -12 93 40t201 150q280 230 597 553t503 602q16 25 36 13q42 -24 59 -93q6 -31 -9 -49q-236 -283 -368 -535
q-132 -251 -158 -544q-2 -19 -24 -15t-47 22q-26 18 -46 47t-20 53z" />
    <glyph glyph-name="Uacute" unicode="&#xda;" horiz-adv-x="1472" 
d="M1418 1501q22 0 45.5 -21.5t39 -47t16.5 -46t-23 -18.5q-45 4 -189.5 -47.5t-253.5 -116.5q-20 -12 -27.5 -3t-0.5 42.5t37 59.5q29 26 76.5 57t102.5 62.5t105 55t72 23.5zM1049.5 358.5q74.5 174.5 128.5 253.5q-59 -66 -141.5 -151.5t-222 -230.5t-311 -300.5
t-225.5 -167.5q-96 -21 -180.5 65.5t-74.5 172.5q3 43 123 228.5t325 492t225 465.5q2 25 28 22.5t53.5 -23t47 -55t4.5 -92.5t-80 -168t-147 -233t-171 -247t-156.5 -227.5t-103.5 -176t-13 -92.5q12 -12 93 40t280.5 215.5t520 490.5t500.5 599q16 25 37 13.5t49.5 -59.5
t-0.5 -83q-237 -284 -369 -536.5t-157 -542.5q-2 -20 -23.5 -15.5t-47 23t-46 46.5t-20.5 63.5t74.5 210z" />
    <glyph glyph-name="Ucircumflex" unicode="&#xdb;" horiz-adv-x="1472" 
d="M1405 1233q0 -14 -27 -30t-78 -8q-20 3 -20 19q-3 21 26 95t48 106q-33 -42 -103 -105q-69 -63 -113 -97q-44 -33 -69 -33t-47 10q-44 20 -43 48q0 13 14 19q51 18 175 106q124 89 149 109t56 28q71 16 97 -14q12 -14 1 -32t-39 -96t-27 -125zM975 138q0 74 143 368
q35 70 60 106q-65 -73 -234 -248q-561 -580 -674 -604q-89 -19 -173 68q-36 37 -57 83q-22 46 -18 90t125 229q120 184 204 311q325 486 345 645q2 24 28 22q62 -6 100 -78q18 -35 4 -92q-37 -146 -397 -648q-201 -280 -249 -378q-47 -98 -24 -118q12 -12 93 40t201 150
q280 230 597 553t503 602q16 25 36 13q42 -24 59 -93q6 -31 -9 -49q-236 -283 -368 -535q-132 -251 -158 -544q-2 -19 -24 -15t-47 22q-26 18 -46 47t-20 53z" />
    <glyph glyph-name="Udieresis" unicode="&#xdc;" horiz-adv-x="1472" 
d="M1279 1249q-111 46 3 146q31 27 67 45t54 17t55 -23q37 -21 32 -44q-10 -47 -58 -89q-48 -41 -83 -54q-34 -12 -70 2zM1021 1243q-61 33 -34 85t105 92q33 16 46 16q42 -2 81 -40q20 -22 -13 -64t-72 -64q-38 -23 -62 -31t-51 6zM975 138q0 74 143 368q35 70 60 106
q-65 -73 -234 -248q-561 -580 -674 -604q-89 -19 -173 68q-36 37 -57 83q-22 46 -18 90t125 229q120 184 204 311q325 486 345 645q2 24 28 22q62 -6 100 -78q18 -35 4 -92q-37 -146 -397 -648q-201 -280 -249 -378q-47 -98 -24 -118q12 -12 93 40t201 150q280 230 597 553
t503 602q16 25 36 13q42 -24 59 -93q6 -31 -9 -49q-236 -283 -368 -535q-132 -251 -158 -544q-2 -19 -24 -15t-47 22q-26 18 -46 47t-20 53z" />
    <glyph glyph-name="Yacute" unicode="&#xdd;" horiz-adv-x="1193" 
d="M1330 1532q22 0 45.5 -21.5t39 -47t16.5 -46t-23 -18.5q-45 4 -189.5 -47.5t-253.5 -116.5q-20 -12 -27.5 -3t-0.5 42.5t37 59.5q29 26 76.5 56.5t102.5 62.5t105 55.5t72 23.5zM383 -326q-11 -42 -67 17t-56 110q-5 68 183 284t266.5 307t149.5 171t114 133
q-53 -45 -128 -110.5t-194.5 -168.5t-282.5 -233.5t-189 -131.5q-51 -2 -109.5 74.5t-44.5 145.5q5 31 118 193t192 268.5t192 264.5t126 204q14 45 43 46t57.5 -18.5t50 -49.5t18.5 -46t-35.5 -60t-84 -109.5t-116 -145.5t-273 -337t-184.5 -281q38 -38 534.5 390
t677.5 609q33 33 53.5 13.5t28 -60.5t0 -88t-23.5 -63t-61.5 -63.5t-113 -121.5t-150.5 -169t-358 -425.5t-333 -548.5z" />
    <glyph glyph-name="Thorn" unicode="&#xde;" horiz-adv-x="1673" 
d="M168 250q87 -35 557 514q-308 -140 -484 -297q-83 -74 -107 -133t34 -84zM1235 1335q16 10 38 -10t18 -63q-5 -42 -27 -62q-56 -51 -174 -207q334 50 503 -98q117 -109 -1 -292q-104 -164 -364 -342t-542 -279q-24 -10 -58 4t-57 36t-25 45q-3 25 39 35t123 44
q288 121 567 309q323 216 287 348q-13 47 -98 82q-168 69 -475 -23q-191 -250 -355 -490q-336 -493 -368 -597q-10 -25 -38 -18q-60 15 -105 80q-20 29 -9 59q39 105 363 405q-227 -173 -359 -107q-58 28 -82 94t-12 133q21 119 284 282q264 164 579 249q298 352 348 383z
" />
    <glyph glyph-name="germandbls" unicode="&#xdf;" horiz-adv-x="610" 
d="M-14 137q121 -27 205 0q56 18 88 82q50 103 -12 227q-15 33 -29 56q-29 39 -22 58t48 48q104 72 157 150q98 147 71 229q-12 33 -38 12t-103 -149t-188 -355q-112 -228 -177 -358zM-188 176q0 34 7 56q17 58 42 20l16 -33q328 709 477 864q23 25 69 16t92 -36t81 -62
t35 -63q1 -28 -13 -73q-29 -100 -119 -201q-47 -51 -110 -84q-14 -8 -15 -10t11 -23q45 -74 37 -154t-50 -172t-98 -137q-107 -87 -239 -85q-61 1 -111 19q-98 -177 -122 -213q-25 -37 -51 -39q-55 -3 -76 38q-9 19 15 52t134 255q-12 31 -12 65z" />
    <glyph glyph-name="agrave" unicode="&#xe0;" horiz-adv-x="768" 
d="M401 1073q-25 37 2 88t44.5 64t24.5 -9q19 -57 85 -135t162 -131q37 -22 -20 -46.5t-144.5 32t-153.5 137.5zM514 727q-69 33 -272 -179t-247 -294t-29 -100q31 -38 191 104.5t316 333.5q64 120 41 135zM-18 0q-30 0 -60.5 25.5t-63 90.5t-13.5 132t158 230.5
t287.5 288.5t219.5 110q14 -4 32.5 -25t42 -74.5t-2.5 -122.5q29 -16 45 -49.5t0 -58.5q-55 -86 -100.5 -154.5t-89.5 -143t-21 -85.5q33 -19 176 129.5t173 178.5t58.5 46.5t46 17.5t16.5 -13.5t-39 -53.5t-101.5 -114.5t-126 -150.5t-113.5 -131.5t-78 -64.5
q-54 -16 -95 31.5t-32 114.5q3 42 35.5 100t47.5 86t24 43q-35 -59 -129.5 -157.5t-139.5 -136.5t-86 -63.5t-71 -25.5z" />
    <glyph glyph-name="aacute" unicode="&#xe1;" horiz-adv-x="768" 
d="M767 1206q22 0 45.5 -21.5t38.5 -47t16 -46t-23 -18.5q-47 4 -187 -45.5t-256 -118.5q-20 -12 -27 -3t0 42.5t37 59.5q29 26 76.5 57t102.5 62.5t105 55t72 23.5zM514 727q-69 33 -272 -179t-247 -294t-29 -100q31 -38 191 104.5t316 333.5q64 120 41 135zM-18 0
q-30 0 -60.5 25.5t-63 90.5t-13.5 132t158 230.5t287.5 288.5t219.5 110q14 -4 32.5 -25t42 -74.5t-2.5 -122.5q29 -16 45 -49.5t0 -58.5q-55 -86 -100.5 -154.5t-89.5 -143t-21 -85.5q33 -19 176 129.5t173 178.5t58.5 46.5t46 17.5t16.5 -13.5t-39 -53.5t-101.5 -114.5
t-126 -150.5t-113.5 -131.5t-78 -64.5q-54 -16 -95 31.5t-32 114.5q3 42 35.5 100t47.5 86t24 43q-35 -59 -129.5 -157.5t-139.5 -136.5t-86 -63.5t-71 -25.5z" />
    <glyph glyph-name="acircumflex" unicode="&#xe2;" horiz-adv-x="768" 
d="M756 956q0 -29 -62.5 -38t-62.5 20q-3 20 24 89.5t50 111.5q-35 -43 -141.5 -139.5t-137.5 -96.5t-52.5 10.5t-32.5 22.5t-11 25.5t14 19.5q63 22 181 108.5t142.5 107t56.5 27.5t58.5 3t39 -17.5t0.5 -31.5t-23 -49t-27 -84t-16 -89zM514 727q-69 33 -272 -179
t-247 -294t-29 -100q31 -38 191 104.5t316 333.5q64 120 41 135zM-18 0q-30 0 -60.5 25.5t-63 90.5t-13.5 132t158 230.5t287.5 288.5t219.5 110q14 -4 32.5 -25t42 -74.5t-2.5 -122.5q29 -16 45 -49.5t0 -58.5q-55 -86 -100.5 -154.5t-89.5 -143t-21 -85.5
q33 -19 176 129.5t173 178.5t58.5 46.5t46 17.5t16.5 -13.5t-39 -53.5t-101.5 -114.5t-126 -150.5t-113.5 -131.5t-78 -64.5q-54 -16 -95 31.5t-32 114.5q3 42 35.5 100t47.5 86t24 43q-35 -59 -129.5 -157.5t-139.5 -136.5t-86 -63.5t-71 -25.5z" />
    <glyph glyph-name="atilde" unicode="&#xe3;" horiz-adv-x="768" 
d="M273 951.5q-8 13.5 9 23.5q38 22 140.5 102t119.5 92t40.5 20.5t44 9.5t33 -5t3.5 -24q-23 -45 -34.5 -95t6.5 -54q38 -10 95 56.5t71 122.5q2 12 24.5 10t46 -14t37 -34.5t-4.5 -53.5q-34 -59 -168 -130.5t-173 -51.5q-69 31 -61 123q-6 2 -19.5 -15.5t-32 -41t-38 -46
t-36 -31t-38 -3t-39.5 15.5t-26 23.5zM514 727q-69 33 -272 -179t-247 -294t-29 -100q31 -38 191 104.5t316 333.5q64 120 41 135zM-18 0q-30 0 -60.5 25.5t-63 90.5t-13.5 132t158 230.5t287.5 288.5t219.5 110q14 -4 32.5 -25t42 -74.5t-2.5 -122.5q29 -16 45 -49.5
t0 -58.5q-55 -86 -100.5 -154.5t-89.5 -143t-21 -85.5q33 -19 176 129.5t173 178.5t58.5 46.5t46 17.5t16.5 -13.5t-39 -53.5t-101.5 -114.5t-126 -150.5t-113.5 -131.5t-78 -64.5q-54 -16 -95 31.5t-32 114.5q3 42 35.5 100t47.5 86t24 43q-35 -59 -129.5 -157.5
t-139.5 -136.5t-86 -63.5t-71 -25.5z" />
    <glyph glyph-name="adieresis" unicode="&#xe4;" horiz-adv-x="768" 
d="M371.5 993q-73.5 39 13 113t131.5 70q15 0 50 -21.5t29 -42.5q-10 -37 -80 -97.5t-143.5 -21.5zM648 989.5q-36 14.5 -49 36.5q-24 42 52 108t125 62q15 0 51 -22t32 -45q-9 -44 -57.5 -87.5t-82.5 -55.5q-35 -11 -71 3.5zM514 727q-69 33 -272 -179t-247 -294t-29 -100
q31 -38 191 104.5t316 333.5q64 120 41 135zM-18 0q-30 0 -60.5 25.5t-63 90.5t-13.5 132t158 230.5t287.5 288.5t219.5 110q14 -4 32.5 -25t42 -74.5t-2.5 -122.5q29 -16 45 -49.5t0 -58.5q-55 -86 -100.5 -154.5t-89.5 -143t-21 -85.5q33 -19 176 129.5t173 178.5
t58.5 46.5t46 17.5t16.5 -13.5t-39 -53.5t-101.5 -114.5t-126 -150.5t-113.5 -131.5t-78 -64.5q-54 -16 -95 31.5t-32 114.5q3 42 35.5 100t47.5 86t24 43q-35 -59 -129.5 -157.5t-139.5 -136.5t-86 -63.5t-71 -25.5z" />
    <glyph glyph-name="aring" unicode="&#xe5;" horiz-adv-x="768" 
d="M497 1028q-11 -23 9 -38t60 1.5t74 48t47 72.5t-19 76q-31 -27 -68 -55.5t-64.5 -55t-38.5 -49.5zM514 727q-69 33 -272 -179t-247 -294t-29 -100q31 -38 191 104.5t316 333.5q64 120 41 135zM670 1257q50 15 102 -4q51 -19 63.5 -58.5t-21 -111t-160.5 -140t-201 -21.5
q-152 93 -2.5 215.5t163.5 134.5q25 22 56 -15zM-18 0q-30 0 -60.5 25.5t-63 90.5t-13.5 132t158 230.5t287.5 288.5t219.5 110q14 -4 32.5 -25t42 -74.5t-2.5 -122.5q29 -16 45 -49.5t0 -58.5q-55 -86 -100.5 -154.5t-89.5 -143t-21 -85.5q33 -19 176 129.5t173 178.5
t58.5 46.5t46 17.5t16.5 -13.5t-39 -53.5t-101.5 -114.5t-126 -150.5t-113.5 -131.5t-78 -64.5q-54 -16 -95 31.5t-32 114.5q3 42 35.5 100t47.5 86t24 43q-35 -59 -129.5 -157.5t-139.5 -136.5t-86 -63.5t-71 -25.5z" />
    <glyph glyph-name="ae" unicode="&#xe6;" horiz-adv-x="1054" 
d="M860 690q-32 20 -138.5 -71.5t-197.5 -210.5q57 -26 145 35.5t150.5 145.5t40.5 101zM307 432q-41 10 7 48q70 57 147 146t52 101q-24 12 -77 -19.5t-161.5 -128.5t-223 -244t-83.5 -183q31 -35 152.5 89t186.5 191zM866 842q39 0 72 -27t48 -57.5t6.5 -99t-118 -178.5
t-186.5 -150q-59 -35 -113.5 -21.5t-87.5 47.5q-86 -118 -88 -166.5t13 -60.5q33 -36 187 32.5t286.5 173.5t164.5 137t57.5 45t40.5 12t15 -15t-24 -39q-475 -475 -662 -475q-70 0 -132 60t-62 171q0 25 16 68q-120 -151 -192.5 -225t-122.5 -74q-33 0 -63 25.5t-62.5 90.5
t-13.5 132t158 230.5t287.5 288.5t219.5 110q29 -5 59.5 -73t22.5 -136q188 174 274 174z" />
    <glyph glyph-name="ccedilla" unicode="&#xe7;" horiz-adv-x="632" 
d="M6 -72q73 21 97 21q41 -1 62 -69t-5 -108q-61 -92 -234 -151q-41 -14 -80 -23t-91 19q-52 27 -64 41t6 14q50 0 191 59t177 86q37 27 29 39t-48 13q-40 -1 -98 -19q-59 -18 -77 -22t-33 15t-7 48q9 29 22 33q20 6 69 35t94 88q-45 41 -71 110q-48 124 13 244
q62 120 141 207q249 276 378 256q58 -9 85 -51q47 -73 -69 -274q-83 -140 -114 -144q-14 -2 -34 23t-24 60q-4 36 8 56t39 47l42 42q52 52 49 91q-2 30 -39 24q-69 -12 -178 -148t-143 -215q-66 -155 -19 -214q48 -60 224 51q175 111 329 263q65 65 110 68q17 1 13 -17
t-50 -64l-125 -125q-317 -317 -427 -337q-49 -6 -91 14q-26 -47 -57 -86z" />
    <glyph glyph-name="egrave" unicode="&#xe8;" horiz-adv-x="641" 
d="M449 690q-33 21 -138 -70t-198 -212q56 -25 144 36t150.5 145t41.5 101zM530 914.5q-55 35.5 -106.5 78t-77.5 80.5q-26 37 0.5 88t44 64t24.5 -9q18 -56 83.5 -134.5t163.5 -131.5q37 -22 -20 -46.5t-112 11zM752 514q0 -14 -52 -66q-171 -171 -348.5 -309.5
t-285.5 -138.5q-71 0 -133 60t-62 171q0 77 117 226.5t257.5 267t209.5 117.5q38 0 71 -27t48.5 -57.5t7 -98t-116.5 -178t-189 -151.5q-59 -35 -113 -21.5t-87 47.5q-124 -179 -76 -227q50 -55 283.5 83.5t357.5 262.5q57 57 84 55t27 -16z" />
    <glyph glyph-name="eacute" unicode="&#xe9;" horiz-adv-x="641" 
d="M449 690q-33 21 -138 -70t-198 -212q56 -25 144 36t150.5 145t41.5 101zM749 1206q22 0 45 -21.5t38.5 -47t16.5 -46t-23 -18.5q-47 4 -188.5 -46t-254.5 -118q-20 -12 -27.5 -3t-0.5 42t37 59q30 27 77 58t102.5 62.5t105.5 55t72 23.5zM752 514q0 -14 -52 -66
q-171 -171 -348.5 -309.5t-285.5 -138.5q-71 0 -133 60t-62 171q0 77 117 226.5t257.5 267t209.5 117.5q38 0 71 -27t48.5 -57.5t7 -98t-116.5 -178t-189 -151.5q-59 -35 -113 -21.5t-87 47.5q-124 -179 -76 -227q50 -55 283.5 83.5t357.5 262.5q57 57 84 55t27 -16z" />
    <glyph glyph-name="ecircumflex" unicode="&#xea;" horiz-adv-x="641" 
d="M449 690q-33 21 -138 -70t-198 -212q56 -25 144 36t150.5 145t41.5 101zM713 956q0 -29 -62.5 -38t-62.5 20q-3 20 24 89.5t50 111.5q-35 -43 -141.5 -139.5t-137.5 -96.5t-52.5 10.5t-32.5 22.5t-11 25.5t14 19.5q63 22 181 108.5t142.5 107t56.5 27.5t58.5 3
t39.5 -17.5t1 -31.5t-23.5 -49t-27.5 -84t-16 -89zM752 514q0 -14 -52 -66q-171 -171 -348.5 -309.5t-285.5 -138.5q-71 0 -133 60t-62 171q0 77 117 226.5t257.5 267t209.5 117.5q38 0 71 -27t48.5 -57.5t7 -98t-116.5 -178t-189 -151.5q-59 -35 -113 -21.5t-87 47.5
q-124 -179 -76 -227q50 -55 283.5 83.5t357.5 262.5q57 57 84 55t27 -16z" />
    <glyph glyph-name="edieresis" unicode="&#xeb;" horiz-adv-x="641" 
d="M334.5 993q-73.5 38 13 112.5t131.5 70.5q15 0 50 -21.5t29 -42.5q-10 -37 -80 -97t-143.5 -22zM449 690q-33 21 -138 -70t-198 -212q56 -25 144 36t150.5 145t41.5 101zM611 989.5q-36 14.5 -49 36.5q-24 42 52 108t125 62q15 0 51 -22t32 -45q-9 -44 -57.5 -87.5
t-82.5 -55.5q-35 -11 -71 3.5zM752 514q0 -14 -52 -66q-171 -171 -348.5 -309.5t-285.5 -138.5q-71 0 -133 60t-62 171q0 77 117 226.5t257.5 267t209.5 117.5q38 0 71 -27t48.5 -57.5t7 -98t-116.5 -178t-189 -151.5q-59 -35 -113 -21.5t-87 47.5q-124 -179 -76 -227
q50 -55 283.5 83.5t357.5 262.5q57 57 84 55t27 -16z" />
    <glyph glyph-name="igrave" unicode="&#xec;" horiz-adv-x="468" 
d="M244 1073q-24 36 2 87.5t43.5 64.5t24.5 -9q19 -57 85 -135t162 -131q37 -22 -19 -46.5t-149 35t-149 134.5zM556 518q15 0 17 -11t-13 -27t-50 -54.5t-217.5 -232t-263.5 -193.5q-58 0 -111 55t-53 156.5t180 332t213 257.5q38 26 97.5 -13t34.5 -66t-246.5 -292
t-168.5 -311q29 -23 233 138t244 201t64.5 50t39.5 10z" />
    <glyph glyph-name="iacute" unicode="&#xed;" horiz-adv-x="468" 
d="M677 1206q22 0 45 -21.5t38.5 -47t16.5 -46t-23 -18.5q-47 4 -187 -45.5t-256 -118.5q-20 -12 -27.5 -3t0.5 43t37 59q29 26 76 57t102.5 62.5t105.5 55t72 23.5zM556 518q15 0 17 -11t-13 -27t-50 -54.5t-217.5 -232t-263.5 -193.5q-58 0 -111 55t-53 156.5t180 332
t213 257.5q38 26 97.5 -13t34.5 -66t-246.5 -292t-168.5 -311q29 -23 233 138t244 201t64.5 50t39.5 10z" />
    <glyph glyph-name="icircumflex" unicode="&#xee;" horiz-adv-x="468" 
d="M551.5 918q-62.5 -9 -62.5 20q-2 16 20.5 77.5t36 88t17.5 35.5q-33 -42 -140 -139t-138 -97t-52.5 10.5t-33 22.5t-11 25.5t14.5 19.5q63 22 181 108.5t142.5 107t56 27.5t58.5 3t39 -17.5t1 -31.5t-22.5 -49t-28 -85.5t-16.5 -85.5t-62.5 -40zM556 518q15 0 17 -11
t-13 -27t-50 -54.5t-217.5 -232t-263.5 -193.5q-58 0 -111 55t-53 156.5t180 332t213 257.5q38 26 97.5 -13t34.5 -66t-246.5 -292t-168.5 -311q29 -23 233 138t244 201t64.5 50t39.5 10z" />
    <glyph glyph-name="idieresis" unicode="&#xef;" horiz-adv-x="468" 
d="M523 989.5q-36 14.5 -49 36.5q-24 42 52 108t125 62q15 0 51 -22t32 -45q-9 -44 -57.5 -87.5t-82.5 -55.5q-35 -11 -71 3.5zM246.5 993q-73.5 38 13 112.5t131.5 70.5q15 0 50 -21.5t29 -42.5q-10 -37 -80 -97t-143.5 -22zM556 518q15 0 17 -11t-13 -27t-50 -54.5
t-217.5 -232t-263.5 -193.5q-58 0 -111 55t-53 156.5t180 332t213 257.5q38 26 97.5 -13t34.5 -66t-246.5 -292t-168.5 -311q29 -23 233 138t244 201t64.5 50t39.5 10z" />
    <glyph glyph-name="eth" unicode="&#xf0;" horiz-adv-x="655" 
d="M155 106.5q52 30.5 146 183.5t162 482q-92 -16 -197 -153t-164 -285t-29 -203t82 -24.5zM651 1149q138 61 191 57q35 0 -1 -60t-69 -68q-66 -15 -119 -29q-9 -184 -83.5 -436.5t-191.5 -432.5t-249 -180q-75 0 -136 100.5t-47 196.5q13 96 69.5 197.5t125 181.5t135 129
t101.5 51q61 0 98 -20q16 104 21 155q-42 -16 -124 -55q-17 -8 -21.5 -1t0.5 39t151 103q2 94 0 189q-4 32 64 -4t79 -78z" />
    <glyph glyph-name="ntilde" unicode="&#xf1;" horiz-adv-x="741" 
d="M283 928q-50 28 -17 48q34 20 103 73t120 92q101 77 154 53q12 -6 -2 -33t-27 -81q-14 -55 4 -59q18 -5 46 13t67 63q38 45 53 103q2 12 25 10q58 -5 84 -51t-72 -120q-99 -73 -177 -98q-76 -25 -102 -13t-43 43t-14 78q-6 2 -34 -35t-59 -74q-32 -36 -62 -30
q-29 7 -47 18zM-193 125q157 331 389 659q44 62 60 74t52 7t56 -28q19 -25 3 -43q-162 -187 -316 -440q232 290 392 412q75 57 122 8q48 -49 46 -129q-1 -37 -19 -56q-38 -40 -167 -204q-129 -163 -155 -247q-10 -32 11 -36q29 -4 153 94t307 279q55 55 94 52q42 -3 -22 -65
q-39 -38 -95 -100q-303 -332 -443 -369q-48 -13 -89 6q-79 37 -15 194t222 358q-110 -48 -394 -396q-44 -55 -74 -93t-43 -51t-50 -6q-38 7 -49 46q-4 12 24 74z" />
    <glyph glyph-name="ograve" unicode="&#xf2;" horiz-adv-x="708" 
d="M338 1073q-25 37 2 88t43.5 64t24.5 -9q20 -58 84.5 -135.5t162.5 -130.5q37 -22 -19.5 -46.5t-149 35t-148.5 134.5zM20.5 133q16.5 -31 53.5 -20.5t108 65t184.5 196.5t155.5 249q-66 14 -83 48t-1 62q-82 -48 -167 -138.5t-131 -153t-78.5 -121t-45 -107.5t4 -80z
M108 0q-46 0 -84 27.5t-73 97t-12 170.5q23 132 168 317t239 217q66 21 97 18t63 -52v-2q53 20 87 -9.5t42 -74.5q239 10 326 53q50 20 62 5.5t-60 -65.5q-72 -52 -180.5 -71t-153.5 -19q-35 -182 -213.5 -397t-307.5 -215z" />
    <glyph glyph-name="oacute" unicode="&#xf3;" horiz-adv-x="708" 
d="M740 1206q22 0 45.5 -21.5t39 -47t16.5 -46t-23 -18.5q-47 4 -188.5 -46t-254.5 -118q-20 -12 -27.5 -3t-0.5 42.5t37 59.5q29 26 76.5 57t102.5 62.5t105 55t72 23.5zM20.5 133q16.5 -31 53.5 -20.5t108 65t184.5 196.5t155.5 249q-66 14 -83 48t-1 62
q-82 -48 -167 -138.5t-131 -153t-78.5 -121t-45 -107.5t4 -80zM108 0q-46 0 -84 27.5t-73 97t-12 170.5q23 132 168 317t239 217q66 21 97 18t63 -52v-2q53 20 87 -9.5t42 -74.5q239 10 326 53q50 20 62 5.5t-60 -65.5q-72 -52 -180.5 -71t-153.5 -19q-35 -182 -213.5 -397
t-307.5 -215z" />
    <glyph glyph-name="ocircumflex" unicode="&#xf4;" horiz-adv-x="708" 
d="M713 956q0 -29 -62.5 -38t-62.5 20q-3 20 24 89.5t50 111.5q-35 -43 -141.5 -139.5t-137.5 -96.5t-52.5 10.5t-32.5 22.5t-11 25.5t14 19.5q63 22 181 108.5t142.5 107t56.5 27.5t58.5 3t39.5 -17.5t1 -31.5t-23.5 -49t-27.5 -84t-16 -89zM20.5 133q16.5 -31 53.5 -20.5
t108 65t184.5 196.5t155.5 249q-66 14 -83 48t-1 62q-82 -48 -167 -138.5t-131 -153t-78.5 -121t-45 -107.5t4 -80zM108 0q-46 0 -84 27.5t-73 97t-12 170.5q23 132 168 317t239 217q66 21 97 18t63 -52v-2q53 20 87 -9.5t42 -74.5q239 10 326 53q50 20 62 5.5t-60 -65.5
q-72 -52 -180.5 -71t-153.5 -19q-35 -182 -213.5 -397t-307.5 -215z" />
    <glyph glyph-name="otilde" unicode="&#xf5;" horiz-adv-x="708" 
d="M264 951.5q-8 13.5 9 23.5q45 26 157.5 114.5t140 98.5t64 12t20.5 -29q-36 -65 -38.5 -106t8.5 -43q38 -11 94 53t74 125q2 12 24.5 10t46 -14t36.5 -34.5t-4 -53.5q-32 -58 -167 -130.5t-174 -51.5q-70 32 -61 123q-6 2 -19.5 -15.5t-32 -41t-38 -46t-36 -31t-38 -3
t-40 15.5t-26.5 23.5zM20.5 133q16.5 -31 53.5 -20.5t108 65t184.5 196.5t155.5 249q-66 14 -83 48t-1 62q-82 -48 -167 -138.5t-131 -153t-78.5 -121t-45 -107.5t4 -80zM108 0q-46 0 -84 27.5t-73 97t-12 170.5q23 132 168 317t239 217q66 21 97 18t63 -52v-2
q53 20 87 -9.5t42 -74.5q239 10 326 53q50 20 62 5.5t-60 -65.5q-72 -52 -180.5 -71t-153.5 -19q-35 -182 -213.5 -397t-307.5 -215z" />
    <glyph glyph-name="odieresis" unicode="&#xf6;" horiz-adv-x="708" 
d="M336.5 993q-73.5 38 13 112.5t131.5 70.5q15 0 50 -21.5t29 -42.5q-10 -37 -80 -97t-143.5 -22zM613 989.5q-36 14.5 -49 36.5q-24 42 52 108t125 62q15 0 51 -22t32 -45q-9 -44 -57.5 -87.5t-82.5 -55.5q-35 -11 -71 3.5zM20.5 133q16.5 -31 53.5 -20.5t108 65
t184.5 196.5t155.5 249q-66 14 -83 48t-1 62q-82 -48 -167 -138.5t-131 -153t-78.5 -121t-45 -107.5t4 -80zM108 0q-46 0 -84 27.5t-73 97t-12 170.5q23 132 168 317t239 217q66 21 97 18t63 -52v-2q53 20 87 -9.5t42 -74.5q239 10 326 53q50 20 62 5.5t-60 -65.5
q-72 -52 -180.5 -71t-153.5 -19q-35 -182 -213.5 -397t-307.5 -215z" />
    <glyph glyph-name="divide" unicode="&#xf7;" horiz-adv-x="905" 
d="M24 360.5q18 20.5 38 30.5t65 20.5t153 29t225.5 32.5t129.5 12q69 -7 58 -59.5t-30 -73t-41 -13.5t-70 10t-139 -1.5t-220.5 -21t-160.5 -30.5q-30 -13 -35 -3t2 28.5t25 39zM534.5 691.5q20.5 -29.5 20.5 -53.5t-18 -48q-33 -44 -111.5 -59.5t-97.5 23.5t33 103t103 64
q50 0 70.5 -29.5zM263 243.5q34 22.5 51 19.5t32.5 -19.5t20 -40t-2 -49t-33 -62t-105 -48.5t-94.5 24q-17 36 40 94.5t91 81z" />
    <glyph glyph-name="oslash" unicode="&#xf8;" horiz-adv-x="708" 
d="M31 258q237 263 405 420q-12 26 2 55q-104 -62 -232 -208t-175 -267zM16 141q47 -93 198.5 63t214.5 252.5t87 151.5q-198 -165 -229 -196zM113 0q-94 0 -144 90q-88 -97 -112 -124q-23 -27 -34 -28t-18.5 6t-7.5 22.5t20 39.5t52.5 64.5t73.5 87.5q-51 179 129 409
t274 262q66 21 97 18t63 -52v-2q29 10 59 4q47 44 115 86q71 29 125.5 14.5t66 -28t-24.5 -29.5q-84 -37 -204 -129q228 7 318 51q50 20 62 5.5t-60 -65.5q-72 -52 -180.5 -71t-153.5 -19q-35 -182 -179.5 -356.5t-220 -215t-116.5 -40.5z" />
    <glyph glyph-name="ugrave" unicode="&#xf9;" 
d="M614 914.5q-55 35.5 -106.5 78t-77.5 80.5q-26 37 0.5 88t44 64t24.5 -9q18 -56 83 -134.5t163 -131.5q37 -22 -19.5 -46.5t-111.5 11zM368.5 51.5q-38.5 51.5 -38.5 102.5t20.5 102t46 103.5t50 96.5t34.5 64q-27 -33 -64.5 -81t-178.5 -228.5t-199 -204.5
q-62 -26 -130 47.5t-54 143.5q13 120 178.5 328t245.5 288q33 33 94 1t25 -70q-90 -94 -206 -252t-155 -218.5t-61.5 -102.5t-14.5 -52t41 13.5t80 70.5t105.5 110.5t120 132t120.5 136t138 156t96 95.5q33 13 77.5 -33.5t18.5 -72.5q-85 -107 -207.5 -340t-107 -244.5
t170.5 114t211 181.5q55 55 78 64.5t39 10.5t20.5 -8t-21.5 -36t-71 -75t-94 -101t-100 -105.5t-123.5 -120t-109.5 -67.5q-36 0 -74.5 51.5z" />
    <glyph glyph-name="uacute" unicode="&#xfa;" 
d="M788 1206q22 0 45 -21.5t38.5 -47t16.5 -46t-23 -18.5q-47 4 -188.5 -46t-254.5 -118q-20 -12 -27.5 -3t-0.5 42.5t37 59.5q29 26 76.5 57t103 62.5t105.5 55t72 23.5zM368.5 51.5q-38.5 51.5 -38.5 102.5t20.5 102t46 103.5t50 96.5t34.5 64q-27 -33 -64.5 -81
t-178.5 -228.5t-199 -204.5q-62 -26 -130 47.5t-54 143.5q13 120 178.5 328t245.5 288q33 33 94 1t25 -70q-90 -94 -206 -252t-155 -218.5t-61.5 -102.5t-14.5 -52t41 13.5t80 70.5t105.5 110.5t120 132t120.5 136t138 156t96 95.5q33 13 77.5 -33.5t18.5 -72.5
q-85 -107 -207.5 -340t-107 -244.5t170.5 114t211 181.5q55 55 78 64.5t39 10.5t20.5 -8t-21.5 -36t-71 -75t-94 -101t-100 -105.5t-123.5 -120t-109.5 -67.5q-36 0 -74.5 51.5z" />
    <glyph glyph-name="ucircumflex" unicode="&#xfb;" 
d="M797 956q0 -29 -62.5 -38t-62.5 20q-3 20 20 79.5t36 86t17 35.5q-74 -92 -167.5 -164t-117.5 -72t-45.5 10.5t-32.5 22.5t-11 25.5t14 19.5q63 22 181 108.5t142.5 107t56.5 27.5t58.5 3t38.5 -17.5t1 -31.5t-22.5 -49t-27.5 -84t-16 -89zM368.5 51.5
q-38.5 51.5 -38.5 102.5t20.5 102t46 103.5t50 96.5t34.5 64q-27 -33 -64.5 -81t-178.5 -228.5t-199 -204.5q-62 -26 -130 47.5t-54 143.5q13 120 178.5 328t245.5 288q33 33 94 1t25 -70q-90 -94 -206 -252t-155 -218.5t-61.5 -102.5t-14.5 -52t41 13.5t80 70.5
t105.5 110.5t120 132t120.5 136t138 156t96 95.5q33 13 77.5 -33.5t18.5 -72.5q-85 -107 -207.5 -340t-107 -244.5t170.5 114t211 181.5q55 55 78 64.5t39 10.5t20.5 -8t-21.5 -36t-71 -75t-94 -101t-100 -105.5t-123.5 -120t-109.5 -67.5q-36 0 -74.5 51.5z" />
    <glyph glyph-name="udieresis" unicode="&#xfc;" 
d="M695 989.5q-36 14.5 -49 36.5q-24 42 52 108t125 62q15 0 51 -22t32 -45q-9 -44 -57.5 -87.5t-82.5 -55.5q-35 -11 -71 3.5zM418.5 993q-73.5 38 13 112.5t131.5 70.5q15 0 50 -21.5t29 -42.5q-10 -37 -80 -97t-143.5 -22zM368.5 51.5q-38.5 51.5 -38.5 102.5t20.5 102
t46 103.5t50 96.5t34.5 64q-27 -33 -64.5 -81t-178.5 -228.5t-199 -204.5q-62 -26 -130 47.5t-54 143.5q13 120 178.5 328t245.5 288q33 33 94 1t25 -70q-90 -94 -206 -252t-155 -218.5t-61.5 -102.5t-14.5 -52t41 13.5t80 70.5t105.5 110.5t120 132t120.5 136t138 156
t96 95.5q33 13 77.5 -33.5t18.5 -72.5q-85 -107 -207.5 -340t-107 -244.5t170.5 114t211 181.5q55 55 78 64.5t39 10.5t20.5 -8t-21.5 -36t-71 -75t-94 -101t-100 -105.5t-123.5 -120t-109.5 -67.5q-36 0 -74.5 51.5z" />
    <glyph glyph-name="yacute" unicode="&#xfd;" horiz-adv-x="743" 
d="M847 1206q22 0 45 -21.5t38.5 -47t16.5 -46t-23 -18.5q-47 4 -187 -45.5t-256 -118.5q-20 -12 -27.5 -3t0.5 43t37 59q29 26 76 57t102.5 62.5t105.5 55t72 23.5zM-1 39q-24 0 -47.5 22.5t-45 86.5t9.5 180q16 61 152 240.5t258 301.5q14 14 38.5 12.5t46 -14t34 -30.5
t-5.5 -42t-67.5 -81.5t-163.5 -189.5t-187 -233t-44 -113q38 -16 334.5 274.5t316.5 310.5t43 7t39.5 -37.5t21.5 -54.5t-13 -48q-290 -296 -466.5 -596.5t-242.5 -433.5q-10 -18 -29.5 -12.5t-49.5 47.5t-6 130t259.5 377t280.5 342.5t51 61.5q-20 -18 -60 -62.5
t-91.5 -100.5t-106.5 -117.5t-105.5 -112t-90 -83t-63.5 -32.5z" />
    <glyph glyph-name="thorn" unicode="&#xfe;" horiz-adv-x="817" 
d="M644 781q30 -50 30 -109t-80 -191t-188 -258q268 106 411 252q56 56 102 61q45 4 -37 -80q-189 -192 -646 -401q-68 -53 -115 -57q-93 -8 -104 19q-11 26 18 76q29 51 49 53t66 -1q46 20 193 204q148 184 213 339q22 50 16 70t-54 -1q-47 -21 -139 -114
q-235 -239 -387 -491v-2q-141 -260 -204 -393q-63 -134 -70 -155q-14 -41 -56 -6q-43 35 -33 83q30 143 367 752q187 339 306 528q120 188 167 249q14 18 45 22q69 8 100 -26q14 -14 -2 -27t-110 -139t-228 -345q-135 -218 -172 -283q94 158 184 263q90 104 141 146
q92 79 157 33q30 -22 60 -71z" />
    <glyph glyph-name="ydieresis" unicode="&#xff;" horiz-adv-x="743" 
d="M462 963q-62 31 -34 84t104 93q32 17 46 16q49 -4 81 -41q20 -22 -13 -63t-71 -64q-39 -24 -63 -32t-50 7zM720 969q-78 33 -44 91q34 59 114 99q36 18 53 17t54 -22q38 -22 34 -45q-5 -23 -25 -53t-61 -57q-41 -28 -65 -36t-60 6zM-2 39q-24 1 -46 23q-24 22 -37 61
q-30 89 1 205q17 62 151 240q135 178 259 302q14 14 39 12q54 -3 79 -44q12 -18 2 -33q-24 -33 -74 -90q-69 -80 -209 -242q-139 -162 -182 -247q-22 -40 -8 -46q41 -18 580 511q55 53 75 73t44 7q49 -28 60 -92q5 -30 -13 -48q-290 -296 -562 -759q-81 -138 -147 -271
q-10 -19 -29 -13q-41 12 -62 89q-9 38 1 75q18 67 164 256q210 280 381 477q45 53 51 62q-20 -19 -60 -63t-91 -100t-138 -152t-146 -145q-59 -48 -83 -48z" />
    <glyph glyph-name="Amacron" unicode="&#x100;" horiz-adv-x="1865" 
d="M1695 1364q30 54 78 71q110 38 317 45q60 0 92 -8t54 -38t30 -59q9 -30 1 -48t-56 -1t-230 19q-183 2 -267 -20q-22 -6 -26 6t7 33zM981 346q167 17 285 10q49 -4 139 -61q89 164 174 303q84 139 188 311t97 185q-20 20 -482 -380q-226 -201 -401 -368zM463 -264
q-11 -25 -31 -18q-45 15 -64 106q-9 41 0 74q15 56 228 262q-298 -78 -533 -205q-31 -15 -35 7q-11 54 50 138q29 42 57 56t127 46q197 63 492 111q414 397 802 728q155 135 222 178q28 14 68 7q85 -15 126 -79q18 -29 7 -46q-44 -68 -152 -284q-446 -888 -395 -1007
q18 -40 -4 -48t-58 10t-71 57q-36 38 -43 84q-13 83 133 349q-68 6 -210 -2t-327 -43q-327 -331 -389 -481z" />
    <glyph glyph-name="amacron" unicode="&#x101;" horiz-adv-x="768" 
d="M581 1052.5q-181 0.5 -262 -20.5q-23 -6 -26.5 6.5t16 49t57.5 50.5q69 24 213.5 41.5t213.5 -1.5q27 -6 48 -36t30.5 -59.5t1 -48t-59.5 -0.5t-232 18.5zM514 727q-69 33 -272 -179t-247 -294t-29 -100q31 -38 191 104.5t316 333.5q64 120 41 135zM-18 0
q-30 0 -60.5 25.5t-63 90.5t-13.5 132t158 230.5t287.5 288.5t219.5 110q14 -4 32.5 -25t42 -74.5t-2.5 -122.5q29 -16 45 -49.5t0 -58.5q-55 -86 -100.5 -154.5t-89.5 -143t-21 -85.5q33 -19 176 129.5t173 178.5t58.5 46.5t46 17.5t16.5 -13.5t-39 -53.5t-101.5 -114.5
t-126 -150.5t-113.5 -131.5t-78 -64.5q-54 -16 -95 31.5t-32 114.5q3 42 35.5 100t47.5 86t24 43q-35 -59 -129.5 -157.5t-139.5 -136.5t-86 -63.5t-71 -25.5z" />
    <glyph glyph-name="Abreve" unicode="&#x102;" horiz-adv-x="1865" 
d="M2023 1460q-61 -57 -80 -89t18 -37t103 59q66 65 80 116q4 13 27 15q50 3 85 -35q17 -18 12 -48t-45 -67q-82 -76 -210 -106q-59 -14 -104 -2q-84 22 -64 115q8 38 32 74q67 100 129 54q15 -11 21 -25t-4 -24zM981 346q167 17 285 10q49 -4 139 -61q89 164 174 303
q84 139 188 311t97 185q-20 20 -482 -380q-226 -201 -401 -368zM463 -264q-11 -25 -31 -18q-45 15 -64 106q-9 41 0 74q15 56 228 262q-298 -78 -533 -205q-31 -15 -35 7q-11 54 50 138q29 42 57 56t127 46q197 63 492 111q414 397 802 728q155 135 222 178q28 14 68 7
q85 -15 126 -79q18 -29 7 -46q-44 -68 -152 -284q-446 -888 -395 -1007q18 -40 -4 -48t-58 10t-71 57q-36 38 -43 84q-13 83 133 349q-68 6 -210 -2t-327 -43q-327 -331 -389 -481z" />
    <glyph glyph-name="abreve" unicode="&#x103;" horiz-adv-x="768" 
d="M621 1153q-61 -57 -81 -89t17 -37t102 57.5t82 117.5q4 14 27 15.5t45.5 -8t39.5 -27.5t12 -48t-45 -67t-135 -84.5t-177 -24.5q-87 22 -67 111t85 135q37 25 64.5 6.5t34 -33t-3.5 -24.5zM514 727q-69 33 -272 -179t-247 -294t-29 -100q31 -38 191 104.5t316 333.5
q64 120 41 135zM-18 0q-30 0 -60.5 25.5t-63 90.5t-13.5 132t158 230.5t287.5 288.5t219.5 110q14 -4 32.5 -25t42 -74.5t-2.5 -122.5q29 -16 45 -49.5t0 -58.5q-55 -86 -100.5 -154.5t-89.5 -143t-21 -85.5q33 -19 176 129.5t173 178.5t58.5 46.5t46 17.5t16.5 -13.5
t-39 -53.5t-101.5 -114.5t-126 -150.5t-113.5 -131.5t-78 -64.5q-54 -16 -95 31.5t-32 114.5q3 42 35.5 100t47.5 86t24 43q-35 -59 -129.5 -157.5t-139.5 -136.5t-86 -63.5t-71 -25.5z" />
    <glyph glyph-name="Aogonek" unicode="&#x104;" horiz-adv-x="1865" 
d="M981 346q167 17 285 10q49 -4 139 -61q89 164 174 303q84 139 188 311t97 185q-20 20 -482 -380q-226 -201 -401 -368zM463 -264q-11 -25 -31 -18q-45 15 -64 106q-9 41 0 74q15 56 228 262q-298 -78 -533 -205q-31 -15 -35 7q-11 54 50 138q29 42 57 56t127 46
q197 63 492 111q414 397 802 728q155 135 222 178q28 14 68 7q85 -15 126 -79q18 -29 7 -46q-44 -68 -152 -284q-446 -888 -395 -1007q22 -52 -24 -50q-48 5 -99 58q-49 -41 -105 -85t-99 -84q-103 -94 -92 -114q20 -36 137 36t151 107q33 36 43 22q23 -33 -1 -108
q-10 -35 -28 -50q-54 -45 -129 -76q-147 -61 -196 7q-30 45 -30 99q0 53 16 90t108 105q93 68 182 114q-6 14 -11 46q-12 67 134 335q-68 6 -210 -2t-327 -43q-327 -331 -389 -481z" />
    <glyph glyph-name="aogonek" unicode="&#x105;" horiz-adv-x="768" 
d="M514 727q-69 33 -272 -179t-247 -294t-29 -100q31 -38 191 104.5t316 333.5q64 120 41 135zM446 -208.5q0 -56.5 -42 -91.5t-136 -76t-142 -22t-72 105t47 158t239 166q-51 51 -39 123q3 42 35.5 100t47.5 86t24 43q-35 -59 -190.5 -221t-225.5 -162q-76 0 -121 90.5
t-26 157.5t158 230.5t287.5 288.5t219.5 110q14 -4 32.5 -25t42 -74.5t-2.5 -122.5q29 -16 45 -49.5t0 -58.5q-55 -86 -100.5 -154.5t-89.5 -143t-21 -85.5q33 -19 176 129.5t173 178.5t58.5 46.5t46 17.5t16.5 -13.5t-33 -47.5t-74 -82t-87 -102t-90 -106.5t-82 -94.5
q-9 -15 -45 -49l-16 -14q-47 -41 -110.5 -92.5t-159.5 -133t-85 -103.5q20 -38 141 36t151 108q30 33 40 19.5t10 -70z" />
    <glyph glyph-name="Cacute" unicode="&#x106;" horiz-adv-x="1368" 
d="M1523 1554q22 0 45 -21.5t38.5 -47t16.5 -46t-23 -18.5q-46 4 -189 -46.5t-254 -117.5q-20 -12 -27.5 -2.5t-0.5 42t37 58.5q30 27 77 58t102.5 62.5t105.5 55t72 23.5zM550 -246q-90 0 -186 25.5t-212.5 104t-128.5 245.5q-13 138 167.5 388.5t472.5 458.5t615 255
q212 29 288 -20.5t93.5 -89t14.5 -73.5t-61.5 -84.5t-136 -107.5t-153.5 -118.5t-113 -116.5q-14 -20 -41.5 -11.5t-67.5 57t-3 99.5t128 105.5t145 86t119 79t32 86.5q-58 70 -336 -27t-543 -339t-376.5 -432.5t-76.5 -291.5t113 -146q85 -52 240.5 -12.5t288 119.5
t149.5 137q10 35 38 31t51.5 -30t32.5 -62.5t-15 -68.5t-82 -74t-131.5 -79.5t-154 -65.5t-170.5 -28z" />
    <glyph glyph-name="cacute" unicode="&#x107;" horiz-adv-x="632" 
d="M755 1206q22 0 45 -21.5t38.5 -47t16.5 -46t-23 -18.5q-46 4 -189 -46.5t-254 -117.5q-20 -12 -27.5 -3t-0.5 42t37 59q30 27 77 58t102.5 62.5t105.5 55t72 23.5zM730.5 543q29.5 0 25.5 -17.5t-50 -63.5l-148 -148q-148 -148 -253.5 -227t-150.5 -87t-89.5 14.5
t-98.5 92t-38 198.5q7 80 98 209t226 246.5t230.5 102.5t95.5 -108q0 -70 -59.5 -172t-92.5 -144t-47 -44t-26.5 13.5t-21.5 37t-11.5 45t9 43t21.5 28.5l60 62q52 51 49.5 85t-39.5 28q-70 -11 -175 -142.5t-142 -215.5q-72 -159 -23 -218q49 -60 225.5 52.5t327.5 261.5
q68 68 97.5 68z" />
    <glyph glyph-name="Ccircumflex" unicode="&#x108;" horiz-adv-x="1368" 
d="M1733 1338q0 -29 -62.5 -38.5t-62.5 19.5q-3 20 20 79.5t36 86t17 35.5q-33 -42 -140 -139t-138 -97t-52.5 10.5t-32.5 22.5t-11 25.5t14 19.5q59 20 179 107t144.5 107.5t56.5 28t58.5 3.5t38.5 -18t1 -32t-22.5 -48.5t-27.5 -83t-16 -88.5zM550 -246q-90 0 -186 25.5
t-212.5 104t-128.5 245.5q-13 138 167.5 388.5t472.5 458.5t615 255q212 29 288 -20.5t93.5 -89t14.5 -73.5t-61.5 -84.5t-136 -107.5t-153.5 -118.5t-113 -116.5q-14 -20 -41.5 -11.5t-67.5 57t-3 99.5t128 105.5t145 86t119 79t32 86.5q-58 70 -336 -27t-543 -339
t-376.5 -432.5t-76.5 -291.5t113 -146q85 -52 240.5 -12.5t288 119.5t149.5 137q10 35 38 31t51.5 -30t32.5 -62.5t-15 -68.5t-82 -74t-131.5 -79.5t-154 -65.5t-170.5 -28z" />
    <glyph glyph-name="ccircumflex" unicode="&#x109;" horiz-adv-x="632" 
d="M674 967q0 -41 -62 -48q-62 -8 -63 19q-3 22 27 97t47 104q-33 -42 -140 -139t-138 -97q-58 0 -86 33q-11 12 -11 26t14 19q28 10 118 69q91 60 136 93t70 53t76 32t77 -18q12 -14 -1 -35t-39 -102q-25 -81 -25 -106zM410 623q52 52 49 91q-2 30 -39 24
q-69 -12 -178 -148t-143 -215q-66 -155 -19 -214q48 -60 224 51q175 111 329 263q65 65 110 68q17 1 13 -17t-50 -64l-125 -125q-317 -317 -427 -337q-91 -16 -166 78q-74 95 -60 227q7 81 104 217q142 200 308 301q107 67 184 25q52 -27 53 -78q2 -83 -83 -227
q-84 -144 -115 -148q-14 -2 -34 23t-24 60q-4 36 8 56t39 47z" />
    <glyph glyph-name="Cdotaccent" unicode="&#x10a;" horiz-adv-x="1368" 
d="M1489.5 1305q-35.5 15 -48.5 37q-24 42 51.5 107.5t125.5 61.5q15 0 51.5 -22t31.5 -44q-10 -45 -56.5 -87t-82.5 -55q-37 -13 -72.5 2zM550 -246q-90 0 -186 25.5t-212.5 104t-128.5 245.5q-13 138 167.5 388.5t472.5 458.5t615 255q212 29 288 -20.5t93.5 -89
t14.5 -73.5t-61.5 -84.5t-136 -107.5t-153.5 -118.5t-113 -116.5q-14 -20 -41.5 -11.5t-67.5 57t-3 99.5t128 105.5t145 86t119 79t32 86.5q-58 70 -336 -27t-543 -339t-376.5 -432.5t-76.5 -291.5t113 -146q85 -52 240.5 -12.5t288 119.5t149.5 137q10 35 38 31t51.5 -30
t32.5 -62.5t-15 -68.5t-82 -74t-131.5 -79.5t-154 -65.5t-170.5 -28z" />
    <glyph glyph-name="cdotaccent" unicode="&#x10b;" horiz-adv-x="632" 
d="M490 989q-113 47 4 146q75 65 124 61q14 0 51 -21t32 -45t-25 -55t-61 -57t-65 -34t-60 5zM410 623q52 52 49 91q-2 30 -39 24q-69 -12 -178 -148t-143 -215q-66 -155 -19 -214q48 -60 224 51q175 111 329 263q65 65 110 68q17 1 13 -17t-50 -64l-125 -125
q-317 -317 -427 -337q-91 -16 -166 78q-74 95 -60 227q7 81 104 217q142 200 308 301q107 67 184 25q52 -27 53 -78q2 -83 -83 -227q-84 -144 -115 -148q-14 -2 -34 23t-24 60q-4 36 8 56t39 47z" />
    <glyph glyph-name="Ccaron" unicode="&#x10c;" horiz-adv-x="1368" 
d="M1460 1548q0 14 18.5 24.5t62.5 16t44 -21.5q5 -37 -34.5 -117t-43.5 -86q6 6 25.5 26.5t46.5 46t57.5 55.5t83.5 70t77 40t45.5 -10.5t32.5 -23t11 -25.5t-18 -21t-62.5 -35t-93.5 -59.5t-94 -65.5t-69.5 -53.5t-56.5 -27.5t-58.5 -3t-39 17.5t-2.5 31.5t22.5 49t23 64
t16.5 63.5t6 44.5zM550 -246q-90 0 -186 25.5t-212.5 104t-128.5 245.5q-13 138 167.5 388.5t472.5 458.5t615 255q212 29 288 -20.5t93.5 -89t14.5 -73.5t-61.5 -84.5t-136 -107.5t-153.5 -118.5t-113 -116.5q-14 -20 -41.5 -11.5t-67.5 57t-3 99.5t128 105.5t145 86
t119 79t32 86.5q-58 70 -336 -27t-543 -339t-376.5 -432.5t-76.5 -291.5t113 -146q85 -52 240.5 -12.5t288 119.5t149.5 137q10 35 38 31t51.5 -30t32.5 -62.5t-15 -68.5t-82 -74t-131.5 -79.5t-154 -65.5t-170.5 -28z" />
    <glyph glyph-name="ccaron" unicode="&#x10d;" horiz-adv-x="632" 
d="M500 1196q0 14 18.5 24.5t62.5 16t44 -22.5q5 -36 -34.5 -116t-43.5 -86q6 6 25.5 26.5t118 115.5t144.5 95q50 0 78.5 -32t-7.5 -48q-71 -31 -182.5 -111.5t-136 -101t-56 -27.5t-58.5 -3t-39 17t-2 31t22.5 49.5t22.5 64t16.5 63.5t6.5 45zM730.5 543
q29.5 0 25.5 -17.5t-50 -63.5l-148 -148q-148 -148 -253.5 -227t-150.5 -87t-89.5 14.5t-98.5 92t-38 198.5q7 80 98 209t226 246.5t230.5 102.5t95.5 -108q0 -70 -59.5 -172t-92.5 -144t-47 -44t-26.5 13.5t-21.5 37t-11.5 45t9 43t21.5 28.5l60 62q52 51 49.5 85t-39.5 28
q-70 -11 -175 -142.5t-142 -215.5q-72 -159 -23 -218q49 -60 225.5 52.5t327.5 261.5q68 68 97.5 68z" />
    <glyph glyph-name="Dcaron" unicode="&#x10e;" horiz-adv-x="1964" 
d="M1333 1550q1 14 19 24t42 14q64 8 64 -19q4 -35 -60 -169q-13 -28 -18 -34l26 26t46 47q27 26 67 65t86 69q45 31 67 31t44 -10q44 -21 43 -49q0 -13 -26 -24t-112 -68q-128 -84 -189 -133q-62 -49 -125 -40q-27 4 -39 17t-2 31t38 93q28 73 29 129zM643 37
q-6 -27 -31 -24q-26 3 -50 26t-39 63q-32 85 45 178q77 92 295 250q57 43 109 81t87 67q-512 -262 -637 -295q-27 -7 -63 15q-35 22 -65 60q-71 91 -44 191q21 73 224 213q342 238 761 344q343 87 490 -14q148 -102 192 -295q18 -85 9 -161t-67 -190q-57 -114 -151 -227
q-193 -234 -478 -402q-284 -169 -534 -169q-320 -3 -514 163q-78 67 -114 135t-45 106q-8 37 29 41q80 8 178 -63q44 -32 48 -73q10 -87 128 -152q118 -64 266 -50t294 85q295 144 544 405q249 262 298 488q25 112 -28 187q-67 96 -293 70t-503 -133q-276 -107 -460 -226
t-159 -178q16 -44 184 7t389 153t254 130q32 27 54 9t30 -52t1 -73t-38 -57q-106 -62 -338 -290q-231 -227 -258 -343z" />
    <glyph glyph-name="dcaron" unicode="&#x10f;" horiz-adv-x="739" 
d="M1286 1190q12 -71 -65.5 -162.5t-120 -127.5t-60.5 -29t-13 25.5t17.5 41.5t26.5 47.5t21 42.5q-39 27 -21 84t57 92q40 35 95 28t63 -42zM506 651q22 76 -24 89t-183.5 -120t-215 -243.5t-101 -163.5t-4.5 -73q36 -37 163 91.5t365 419.5zM-106.5 84q-58.5 84 -37.5 152
t139 233t258 288.5t236 108.5q20 -4 49 -38.5t40 -84.5q111 137 208.5 263t167.5 208q16 20 35 11.5t40.5 -49.5t-7.5 -78q-267 -326 -467 -618.5t-192 -325.5t146 98t147 140l83 83q58 58 89.5 60t30.5 -12.5t-40 -53.5q-57 -57 -217.5 -252.5t-193.5 -206.5
q-60 -19 -111 40.5t-11 152t99 186.5q-10 -14 -31.5 -48t-53.5 -77t-68.5 -90t-100 -110.5t-121.5 -63.5t-116.5 84z" />
    <glyph glyph-name="Dcroat" unicode="&#x110;" horiz-adv-x="1964" 
d="M484 322q29 52 71 68t172 36q62 51 145 112q82 60 120 89t67 51q-512 -262 -637 -295q-27 -7 -63 15q-35 22 -65 60q-71 91 -44 191q21 73 224 213q342 238 761 344q343 87 490 -14q148 -102 192 -295q18 -85 9 -161t-67 -190q-57 -114 -151 -227q-193 -234 -478 -402
q-284 -169 -534 -169q-320 -3 -514 163q-78 67 -114 135t-45 106q-8 37 29 41q80 8 178 -63q44 -32 48 -73q10 -87 128 -152q118 -64 266 -50t294 85q295 144 544 405q249 262 298 488q25 112 -28 187q-67 96 -293 70t-503 -133q-276 -107 -460 -226t-159 -178q16 -44 184 7
t389 153t254 130q32 27 54 9t30 -52t1 -73t-43 -61t-115 -86q-79 -63 -165 -148q43 0 68 -35t34 -65t1 -47q-8 -18 -51 -3t-183 19q-156 -170 -180 -264q-6 -27 -31 -24q-26 3 -50 26t-39 63t-6 86t65 107q-25 -4 -45 -6t-38 -7t-22 7t7 33z" />
    <glyph glyph-name="dcroat" unicode="&#x111;" horiz-adv-x="739" 
d="M506 651q22 76 -24 89t-183.5 -120t-215 -243.5t-101 -163.5t-4.5 -73q36 -37 163 91.5t365 419.5zM-106.5 84q-58.5 84 -37.5 152t139 233t258 288.5t236 108.5q20 -4 49 -38.5t40 -84.5l153 193q-100 -11 -146 -25t-52.5 -2.5t11 45t66.5 49.5q49 17 209 46
q76 98 135 165q16 20 35 11.5t40.5 -49.5t-7.5 -78l-23 -27h9q20 -2 45.5 -24.5t39 -48t6.5 -44t-57 -9.5t-139 5q-354 -446 -460.5 -636.5t-39.5 -149t120 94.5l216 216q58 58 89.5 60t30.5 -12.5t-40 -53.5q-57 -57 -217.5 -252.5t-193.5 -206.5q-60 -19 -111 40.5
t-11 152t99 186.5q-10 -14 -31.5 -48t-53.5 -77t-68.5 -90t-100 -110.5t-121.5 -63.5t-116.5 84z" />
    <glyph glyph-name="Emacron" unicode="&#x112;" horiz-adv-x="1402" 
d="M643 1218.5q20 20.5 46 29.5t211.5 88t273.5 55q27 -6 48 -36t30.5 -59.5t1 -48t-44.5 -5.5t-118.5 2t-175 -31.5t-173 -43t-107.5 -29.5t-31 5t7.5 32.5t31.5 41zM1648 1229q64 0 100 -13.5t53.5 -31t12 -31.5t-37.5 -16q-454 -30 -949 -170q45 -76 39 -118
q-10 -69 -166 -257q124 39 168 42q45 3 92.5 -12.5t78 -36t33 -39t-65.5 -25.5q-158 -16 -461 -107q-174 -193 -236.5 -283t-83.5 -142t7 -85t98.5 -30t200 43.5t333.5 164t273 215.5q23 31 41 23.5t27.5 -67t-56.5 -155.5q-35 -54 -219.5 -153.5t-344 -144t-208.5 -47.5
t-100.5 20.5t-109.5 90.5t-38 187q18 93 160 279q-132 -46 -187 -77t-65 -24t1 40.5t75 75.5t297 138q55 68 110 135.5t130.5 163.5t103.5 162q-378 -120 -684 -282q-47 -25 -49.5 1.5t24.5 72.5t73 96t108 80t176 68t248 74t279.5 67.5t282 55t254.5 38t182 14.5z" />
    <glyph glyph-name="emacron" unicode="&#x113;" horiz-adv-x="641" 
d="M449 690q-33 21 -138 -70t-198 -212q56 -25 144 36t150.5 145t41.5 101zM532 1032q-184 0 -262 -20q-23 -6 -26.5 6t16 48.5t57.5 50.5q76 27 218 42.5t208 -2.5q27 -6 48.5 -35.5t30.5 -59.5t1 -48t-57 0q-50 18 -234 18zM752 514q0 -14 -52 -66
q-171 -171 -348.5 -309.5t-285.5 -138.5q-71 0 -133 60t-62 171q0 77 117 226.5t257.5 267t209.5 117.5q38 0 71 -27t48.5 -57.5t7 -98t-116.5 -178t-189 -151.5q-59 -35 -113 -21.5t-87 47.5q-124 -179 -76 -227q50 -55 283.5 83.5t357.5 262.5q57 57 84 55t27 -16z" />
    <glyph glyph-name="Edotaccent" unicode="&#x116;" horiz-adv-x="1402" 
d="M951 1247.5q-36 14.5 -49 36.5q-24 42 52 108t125 62q15 0 51 -22t32 -45q-9 -44 -57.5 -87.5t-82.5 -55.5q-35 -11 -71 3.5zM1648 1229q64 0 100 -13.5t53.5 -31t12 -31.5t-37.5 -16q-454 -30 -949 -170q45 -76 39 -118q-10 -69 -166 -257q124 39 168 42
q45 3 92.5 -12.5t78 -36t33 -39t-65.5 -25.5q-158 -16 -461 -107q-174 -193 -236.5 -283t-83.5 -142t7 -85t98.5 -30t200 43.5t333.5 164t273 215.5q23 31 41 23.5t27.5 -67t-56.5 -155.5q-35 -54 -219.5 -153.5t-344 -144t-208.5 -47.5t-100.5 20.5t-109.5 90.5t-38 187
q18 93 160 279q-132 -46 -187 -77t-65 -24t1 40.5t75 75.5t297 138q55 68 110 135.5t130.5 163.5t103.5 162q-378 -120 -684 -282q-47 -25 -49.5 1.5t24.5 72.5t73 96t108 80t176 68t248 74t279.5 67.5t282 55t254.5 38t182 14.5z" />
    <glyph glyph-name="edotaccent" unicode="&#x117;" horiz-adv-x="641" 
d="M449 690q-33 21 -138 -70t-198 -212q56 -25 144 36t150.5 145t41.5 101zM508.5 989.5q-35.5 14.5 -48.5 36.5q-25 43 52 108.5t125 61.5q16 0 51.5 -22.5t31.5 -45.5q-9 -43 -57.5 -87t-83.5 -55t-70.5 3.5zM752 514q0 -14 -52 -66q-171 -171 -348.5 -309.5
t-285.5 -138.5q-71 0 -133 60t-62 171q0 77 117 226.5t257.5 267t209.5 117.5q38 0 71 -27t48.5 -57.5t7 -98t-116.5 -178t-189 -151.5q-59 -35 -113 -21.5t-87 47.5q-124 -179 -76 -227q50 -55 283.5 83.5t357.5 262.5q57 57 84 55t27 -16z" />
    <glyph glyph-name="Eogonek" unicode="&#x118;" horiz-adv-x="1402" 
d="M1665 1229q92 0 123 -31t25.5 -45t-37.5 -16q-454 -30 -949 -170q45 -76 39 -118q-10 -69 -166 -257q124 39 168 42q45 3 92.5 -12.5t78 -36t33 -39t-65.5 -25.5q-158 -16 -461 -107q-174 -193 -236.5 -283t-83.5 -142t7 -85t98.5 -30t200 43.5t333.5 164t273 215.5
q23 31 41 23.5t27.5 -67t-56.5 -155.5q-65 -104 -467 -262q-49 -41 -184.5 -151.5t-122.5 -138.5q17 -36 134.5 34.5t151.5 107.5q54 58 54 -22t-43 -117t-135.5 -77t-149.5 -19q-42 17 -60 83t9 134q12 36 84 88l-35 -4q-116 -8 -196 84.5t-60 212.5q18 93 160 279
q-132 -46 -187 -77t-65 -24t1 40.5t75 75.5t297 138q55 68 110 135.5t130.5 163.5t103.5 162q-378 -120 -684 -282q-47 -25 -49.5 1.5t24.5 72.5t73 96t108 80t176 68t315 92t500 105.5t448 51.5z" />
    <glyph glyph-name="eogonek" unicode="&#x119;" horiz-adv-x="641" 
d="M449 690q-33 21 -138 -70t-198 -212q56 -25 144 36t150.5 145t41.5 101zM752 514q0 -14 -42 -56q-313 -313 -503 -413q-25 -25 -65 -58.5t-85 -71.5t-152.5 -127t-93.5 -115q19 -34 138 37.5t150 107.5q32 35 42.5 21.5t10.5 -43t-10.5 -64.5t-28.5 -50
q-53 -44 -164 -91.5t-152.5 10t-40 110.5t13.5 79q21 47 88 97.5t177 114.5q-66 14 -115 71t-49 146t117 238.5t257.5 267t209.5 117.5q38 0 71 -27t48.5 -57.5t7 -98t-116.5 -178t-189 -151.5q-59 -35 -113 -21.5t-87 47.5q-124 -179 -76 -227q50 -55 283.5 83.5
t357.5 262.5q57 57 84 55t27 -16z" />
    <glyph glyph-name="Ecaron" unicode="&#x11a;" horiz-adv-x="1402" 
d="M1154.5 1562q62.5 8 62.5 -20q4 -31 -35 -113.5t-43 -89.5q6 6 25.5 26.5t117 116t146.5 95.5q47 0 77.5 -32t-7.5 -48q-71 -31 -182.5 -111.5t-136 -101t-56 -28t-58.5 -3.5t-39 17.5t-2 31.5t22.5 49t29 85.5t16.5 86.5q0 31 62.5 39zM1648 1229q64 0 100 -13.5
t53.5 -31t12 -31.5t-37.5 -16q-454 -30 -949 -170q45 -76 39 -118q-10 -69 -166 -257q124 39 168 42q45 3 92.5 -12.5t78 -36t33 -39t-65.5 -25.5q-158 -16 -461 -107q-174 -193 -236.5 -283t-83.5 -142t7 -85t98.5 -30t200 43.5t333.5 164t273 215.5q23 31 41 23.5
t27.5 -67t-56.5 -155.5q-35 -54 -219.5 -153.5t-344 -144t-208.5 -47.5t-100.5 20.5t-109.5 90.5t-38 187q18 93 160 279q-132 -46 -187 -77t-65 -24t1 40.5t75 75.5t297 138q55 68 110 135.5t130.5 163.5t103.5 162q-378 -120 -684 -282q-47 -25 -49.5 1.5t24.5 72.5t73 96
t108 80t176 68t248 74t279.5 67.5t282 55t254.5 38t182 14.5z" />
    <glyph glyph-name="ecaron" unicode="&#x11b;" horiz-adv-x="641" 
d="M449 690q-33 21 -138 -70t-198 -212q56 -25 144 36t150.5 145t41.5 101zM502 1176q0 14 18.5 24t42 13.5t44 -1t20.5 -18.5q4 -35 -35 -116t-43 -87q6 6 25.5 26.5t117 116t146.5 95.5q47 0 77.5 -32t-7.5 -48q-70 -30 -182 -111.5t-136.5 -102t-56 -27.5t-58 -3
t-39 17.5t-2.5 31.5t22.5 49t22.5 64t16.5 64t6.5 45zM752 514q0 -14 -52 -66q-171 -171 -348.5 -309.5t-285.5 -138.5q-71 0 -133 60t-62 171q0 77 117 226.5t257.5 267t209.5 117.5q38 0 71 -27t48.5 -57.5t7 -98t-116.5 -178t-189 -151.5q-59 -35 -113 -21.5t-87 47.5
q-124 -179 -76 -227q50 -55 283.5 83.5t357.5 262.5q57 57 84 55t27 -16z" />
    <glyph glyph-name="Gcircumflex" unicode="&#x11c;" horiz-adv-x="1601" 
d="M1561 1336q-1 -42 -63 -49q-62 -8 -62 20q-3 19 23 89t50 111q-33 -42 -139 -138q-106 -97 -138 -97q-58 0 -86 33q-11 11 -11 25t14 20q54 19 177 106q122 88 147 108q49 40 113 31q64 -10 39 -52q-13 -22 -39 -102q-25 -80 -25 -105zM1579 950q-50 -4 -94 24
q-45 28 -52 42q-32 64 -92 94q-112 60 -272 10t-356 -219q-290 -251 -457 -557q-111 -200 -91 -331q9 -67 59 -101t122 -28q142 14 304 118q162 105 241 205q37 47 35 74q-6 35 -178 4q-45 -8 -87 -16t-67 23q-25 30 18 56q44 25 234 76q190 52 318 79t169 22t79 -31
q87 -61 89 -107q2 -23 -43 -17q-131 16 -485 -34q77 -15 110 -40q31 -25 27 -55t-36 -75q-64 -91 -164 -167q-336 -260 -518 -226q-183 34 -304 157q-94 99 -77 202q33 197 203 441t379 421q221 191 374 227q200 47 427 -65q89 -44 145 -97t59 -79t-19 -30z" />
    <glyph glyph-name="gcircumflex" unicode="&#x11d;" horiz-adv-x="710" 
d="M433 937q-44 -34 -83 -34t-64 33q-11 12 -11 26t14 19q27 9 143 86q117 77 174 123q57 47 121 37q27 -3 39 -17t1 -32q-38 -62 -52 -135q-15 -73 -15 -87q-1 -30 -62 -37q-61 -8 -63 19q-2 17 20 78q23 61 37 88l17 35q-33 -42 -103 -105q-69 -63 -113 -97zM76 246
q42 -42 175 61q132 104 231 233t71 165q-43 47 -180 -53t-238 -232t-59 -174zM-109 16q142 47 278 50q94 0 101 -89q8 -85 -40 -172q-48 -88 -127 -131q-136 -74 -302 -90t-214 4q-47 20 -67 82q-18 59 31 51q212 -35 430 33q93 29 155 67t70 70q8 33 -35 45q-91 27 -256 1
q-79 -12 -142 -35q-20 -6 -29 16q-19 54 18 128q18 36 52 54l192 115q-64 163 59 329t286 256q75 40 125 47t91 -23t60 -83q35 39 69 97t50 82q27 39 60 -14q33 -54 19 -81q-33 -53 -87 -92t-101 -49q0 -103 -84 -220q-154 -213 -320 -322q-104 -68 -155 -29q-16 12 -33 32
q-49 -41 -90 -77t-64 -52z" />
    <glyph glyph-name="Gbreve" unicode="&#x11e;" horiz-adv-x="1601" 
d="M1343 1468q-61 -57 -80 -89t18 -37t104 59q66 65 79 117q4 14 41 16t62 -27q51 -56 -28 -128q-79 -73 -206 -103q-59 -14 -104 -2q-84 22 -65 109q18 87 85 137q37 25 77 -2q15 -10 21 -25t-4 -25zM1579 950q-50 -4 -94 24q-45 28 -52 42q-32 64 -92 94q-112 60 -272 10
t-356 -219q-290 -251 -457 -557q-111 -200 -91 -331q9 -67 59 -101t122 -28q142 14 304 118q162 105 241 205q37 47 35 74q-6 35 -178 4q-45 -8 -87 -16t-67 23q-25 30 18 56q44 25 234 76q190 52 318 79t169 22t79 -31q87 -61 89 -107q2 -23 -43 -17q-131 16 -485 -34
q77 -15 110 -40q31 -25 27 -55t-36 -75q-64 -91 -164 -167q-336 -260 -518 -226q-183 34 -304 157q-94 99 -77 202q33 197 203 441t379 421q221 191 374 227q200 47 427 -65q89 -44 145 -97t59 -79t-19 -30z" />
    <glyph glyph-name="gbreve" unicode="&#x11f;" horiz-adv-x="710" 
d="M625 1165q-61 -57 -81 -89t18 -37q37 -5 103 59t80 116q4 14 27 16q50 3 85 -36q17 -18 12 -48t-45 -67q-82 -76 -210 -106q-59 -14 -104 -2q-82 22 -64 109q17 87 84 137q38 25 77 -3q15 -10 21 -24t-3 -25zM76 246q42 -42 175 61q132 104 231 233t71 165
q-43 47 -180 -53t-238 -232t-59 -174zM-109 16q142 47 278 50q94 0 101 -89q8 -85 -40 -172q-48 -88 -127 -131q-136 -74 -302 -90t-214 4q-47 20 -67 82q-18 59 31 51q212 -35 430 33q93 29 155 67t70 70q8 33 -35 45q-91 27 -256 1q-79 -12 -142 -35q-20 -6 -29 16
q-19 54 18 128q18 36 52 54l192 115q-64 163 59 329t286 256q75 40 125 47t91 -23t60 -83q35 39 69 97t50 82q27 39 60 -14q33 -54 19 -81q-33 -53 -87 -92t-101 -49q0 -103 -84 -220q-154 -213 -320 -322q-104 -68 -155 -29q-16 12 -33 32q-49 -41 -90 -77t-64 -52z" />
    <glyph glyph-name="Gdotaccent" unicode="&#x120;" horiz-adv-x="1601" 
d="M1334 1294q-111 46 3 146q31 27 67 45t49 17t39 -11t41 -28q23 -27 -4 -69t-69 -69q-42 -29 -66 -37t-60 6zM1579 950q-50 -4 -94 24q-45 28 -52 42q-32 64 -92 94q-112 60 -272 10t-356 -219q-290 -251 -457 -557q-111 -200 -91 -331q9 -67 59 -101t122 -28
q142 14 304 118q162 105 241 205q37 47 35 74q-6 35 -178 4q-45 -8 -87 -16t-67 23q-25 30 18 56q44 25 234 76q190 52 318 79t169 22t79 -31q87 -61 89 -107q2 -23 -43 -17q-131 16 -485 -34q77 -15 110 -40q31 -25 27 -55t-36 -75q-64 -91 -164 -167q-336 -260 -518 -226
q-183 34 -304 157q-94 99 -77 202q33 197 203 441t379 421q221 191 374 227q200 47 427 -65q89 -44 145 -97t59 -79t-19 -30z" />
    <glyph glyph-name="gdotaccent" unicode="&#x121;" horiz-adv-x="710" 
d="M509 989q-111 46 3 146q31 27 67 45t54 17t55 -23q37 -21 32 -44q-14 -67 -103 -123q-25 -15 -49 -23t-59 5zM76 246q42 -42 175 61q132 104 231 233t71 165q-43 47 -180 -53t-238 -232t-59 -174zM-109 16q142 47 278 50q94 0 101 -89q8 -85 -40 -172q-48 -88 -127 -131
q-136 -74 -302 -90t-214 4q-47 20 -67 82q-18 59 31 51q212 -35 430 33q93 29 155 67t70 70q8 33 -35 45q-91 27 -256 1q-79 -12 -142 -35q-20 -6 -29 16q-19 54 18 128q18 36 52 54l192 115q-64 163 59 329t286 256q75 40 125 47t91 -23t60 -83q35 39 69 97t50 82
q27 39 60 -14q33 -54 19 -81q-33 -53 -87 -92t-101 -49q0 -103 -84 -220q-154 -213 -320 -322q-104 -68 -155 -29q-16 12 -33 32q-49 -41 -90 -77t-64 -52z" />
    <glyph glyph-name="uni0122" unicode="&#x122;" horiz-adv-x="1601" 
d="M-2 -464q97 144 104 201q8 58 30 59q22 2 44 -22t34 -65q13 -41 1 -82t-53 -84t-87 -77t-86 -52t-55 -12q-14 6 10 44t58 90zM1579 950q-50 -4 -94 24q-45 28 -52 42q-32 64 -92 94q-112 60 -272 10t-356 -219q-290 -251 -457 -557q-111 -200 -91 -331q9 -67 59 -101
t122 -28q142 14 304 118q162 105 241 205q37 47 35 74q-6 35 -178 4q-45 -8 -87 -16t-67 23q-25 30 18 56q44 25 234 76q190 52 318 79t169 22t79 -31q87 -61 89 -107q2 -23 -43 -17q-131 16 -485 -34q77 -15 110 -40q31 -25 27 -55t-36 -75q-64 -91 -164 -167
q-336 -260 -518 -226q-183 34 -304 157q-94 99 -77 202q33 197 203 441t379 421q221 191 374 227q200 47 427 -65q89 -44 145 -97t59 -79t-19 -30z" />
    <glyph glyph-name="uni0123" unicode="&#x123;" horiz-adv-x="710" 
d="M750 1172q-98 -146 -106 -201q-7 -56 -30 -57q-22 -1 -44 23q-22 23 -34 63t1 82q12 42 53 85t87 77t86 52t54 12q15 -6 -9 -44q-24 -39 -58 -92zM76 246q42 -42 175 61q132 104 231 233t71 165q-43 47 -180 -53t-238 -232t-59 -174zM-109 16q142 47 278 50q94 0 101 -89
q8 -85 -40 -172q-48 -88 -127 -131q-136 -74 -302 -90t-214 4q-47 20 -67 82q-18 59 31 51q212 -35 430 33q93 29 155 67t70 70q8 33 -35 45q-91 27 -256 1q-79 -12 -142 -35q-20 -6 -29 16q-19 54 18 128q18 36 52 54l192 115q-64 163 59 329t286 256q75 40 125 47t91 -23
t60 -83q35 39 69 97t50 82q27 39 60 -14q33 -54 19 -81q-33 -53 -87 -92t-101 -49q0 -103 -84 -220q-154 -213 -320 -322q-104 -68 -155 -29q-16 12 -33 32q-49 -41 -90 -77t-64 -52z" />
    <glyph glyph-name="Hcircumflex" unicode="&#x124;" horiz-adv-x="1845" 
d="M1915 1194q0 -14 -18.5 -24.5t-62.5 -16t-44 22.5q-3 19 20 79t36.5 86.5t17.5 34.5q-33 -42 -139.5 -138.5t-138.5 -96.5t-53.5 10t-32.5 22.5t-11 26t14 19.5q59 20 179 107t144.5 107.5t56.5 27.5t58.5 3t39.5 -17t1 -31t-23 -49.5t-21.5 -64t-16.5 -63.5t-6 -45z
M1348 1041.5q0 -31.5 -14 -47.5q-21 -22 -208.5 -264t-279.5 -365q242 35 442 24q52 -4 84 -24q506 700 699 864q23 20 40 -6.5t24 -69.5t3 -87t-22 -60q-178 -144 -428.5 -465.5t-360.5 -487.5t-147 -235q-18 -31 -35 -21t-35 63.5t7 114.5q24 61 208 322q-270 4 -586 -72
q-286 -372 -338 -477q-14 -35 -38.5 -32t-44 28t-28.5 62.5t1 59.5q22 49 213 292q-180 -57 -301 -112.5t-149 -75.5t-35 2t9 88t89 110q121 69 524 160q215 262 303 366q-27 54 -19 73q7 19 52 68.5t101.5 105.5t109.5 107.5t73.5 72t41 10t33 -35t12.5 -56z" />
    <glyph glyph-name="hcircumflex" unicode="&#x125;" horiz-adv-x="765" 
d="M899 1180q0 -14 -18 -24t-42 -14q-63 -8 -65 19q-3 21 26 95t48 106q-33 -42 -140 -139t-138 -97q-32 0 -54 10q-44 21 -43 49q0 13 21 21t111 67q91 60 136 93t70 53q25 19 57 27t58 4q27 -4 39 -17t0 -34q-34 -54 -50 -130q-16 -75 -16 -89zM325 998q59 80 81 94
q43 27 94 -14q52 -40 0 -84q-65 -54 -210 -258q-146 -204 -229 -353q14 10 97 100t216 223t168 142q36 10 68 -2q67 -26 85 -83q9 -26 -2 -40q-98 -125 -200 -287q-167 -266 -149 -313q7 -27 182 131q176 157 236 217q61 61 107 64q15 1 13 -15t-24 -40q-24 -24 -62 -66
q-38 -41 -86 -93q-285 -309 -342 -321t-112 44t-52 116q6 128 238 418q51 63 78 92q-53 -20 -151 -112q-367 -348 -510 -572q-20 -32 -59 4q-39 37 -27 82q5 28 190 355t362 571z" />
    <glyph glyph-name="Hbar" unicode="&#x126;" horiz-adv-x="1845" 
d="M1468 498q-181 7 -544 -31l-78 -102q242 35 442 24q52 -4 84 -24zM1348 1041.5q0 -31.5 -14 -45.5t-41 -49.5t-69 -89.5t-96.5 -123.5t-115.5 -149.5q72 4 138.5 6t145 5t121.5 -3t92 -39q374 512 562 676q23 20 40 -6.5t24 -69.5t3 -87t-22 -60q-178 -144 -428.5 -465.5
t-360.5 -487.5t-147 -235q-18 -31 -35 -21t-35 63.5t7 114.5q24 61 208 322q-270 4 -586 -72q-286 -372 -338 -477q-14 -35 -38.5 -32t-44 28t-28.5 62.5t1 59.5q22 49 213 292q-180 -57 -301 -112.5t-149 -75.5t-35 2t9 88t89 110q121 69 524 160l94 114q-275 -40 -331 -66
q-56 -27 -66 -11t1 45.5t39 62.5t54 43q47 18 142.5 29t267.5 26q34 42 61 75q28 32 41 48q-27 54 -19 73q7 19 52 68.5t101.5 105.5t109.5 107.5t73.5 72t41 10t33 -35t12.5 -56z" />
    <glyph glyph-name="hbar" unicode="&#x127;" horiz-adv-x="765" 
d="M183 971q30 54 79 70q50 16 111 26q101 142 135 162q16 10 42 4q59 -14 72 -58q4 -22 -16 -39t-51 -51q76 4 112 -5q63 -16 88 -98q9 -30 1 -48t-58 0t-252 18q-269 -359 -385 -569q14 10 97 100t216 223t168 142q36 10 68 -2q67 -26 85 -83q9 -26 -2 -40
q-98 -125 -200 -287q-167 -266 -149 -313q7 -27 182 131q176 157 236 217q61 61 107 64q15 1 13 -15t-24 -40q-24 -24 -62 -66q-38 -41 -86 -93q-285 -309 -342 -321t-112 44t-52 116q6 128 238 418q51 63 78 92q-53 -20 -151 -112q-367 -348 -510 -572q-20 -32 -59 4
q-39 37 -28 82q12 45 217 386t302 486q-61 -4 -86 -11t-29 5t7 33z" />
    <glyph glyph-name="Itilde" unicode="&#x128;" horiz-adv-x="1173" 
d="M1021 1359q-13 -17 -47 -61q-34 -45 -54 -55q-21 -10 -56 -2t-48 29q-13 20 4 30q42 25 108 76q162 128 202 143q40 14 68 1q12 -6 -2 -33t-27 -81q-14 -55 4 -59q18 -5 59 21t71 80q30 53 36 78q2 12 25 10q58 -5 84 -51t-71 -119q-97 -72 -176 -99q-79 -26 -105 -14
t-42 43q-17 31 -14 78q-6 2 -19 -15zM768 -34q0 -16 -34 -21q-108 -19 -589 -185q-54 -19 -94 36t-28 70t70 37t168 47t175 40q-38 29 -32 84t269 438q263 384 343 496q-131 -54 -213 -105q-20 -12 -52 -3q-32 10 -59 30t-39 44t6 38q53 41 339 133t374 102q44 4 99 -45
q22 -18 29 -34t-13 -21q-181 -33 -379 -105q20 -26 30 -58t-6 -48q-37 -36 -154 -210q-363 -538 -441 -718l125 25q18 2 45 -9q27 -10 44 -26t17 -32z" />
    <glyph glyph-name="itilde" unicode="&#x129;" horiz-adv-x="468" 
d="M148 951.5q-8 13.5 9 23.5q38 22 140.5 102t119.5 92t40.5 20.5t44 9.5t33 -5t3.5 -24q-23 -45 -34.5 -95t6.5 -54q38 -10 95 56.5t71 122.5q2 12 24.5 10t46 -14t37.5 -34.5t-4 -53.5q-34 -59 -168.5 -130.5t-173.5 -51.5q-69 31 -61 123q-6 2 -19.5 -15.5t-32 -41
t-38 -46t-35.5 -31t-37.5 -3t-40 15.5t-26.5 23.5zM556 518q15 0 17 -11t-13 -27t-50 -54.5t-217.5 -232t-263.5 -193.5q-58 0 -111 55t-53 156.5t180 332t213 257.5q38 26 97.5 -13t34.5 -66t-246.5 -292t-168.5 -311q29 -23 233 138t244 201t64.5 50t39.5 10z" />
    <glyph glyph-name="Imacron" unicode="&#x12a;" horiz-adv-x="1173" 
d="M1115 1311q-187 0 -257 -21q-23 -6 -27 6q-8 24 26 60q34 35 75 49t185 32t214 -1q27 -6 49 -36t30 -60q9 -30 1 -48t-59 0q-50 18 -237 19zM768 -34q0 -16 -34 -21q-108 -19 -589 -185q-54 -19 -94 36t-28 70t70 37t168 47t175 40q-38 29 -32 84t269 438
q263 384 343 496q-131 -54 -213 -105q-20 -12 -52 -3q-32 10 -59 30t-39 44t6 38q53 41 339 133t374 102q44 4 99 -45q22 -18 29 -34t-13 -21q-181 -33 -379 -105q20 -26 30 -58t-6 -48q-37 -36 -154 -210q-363 -538 -441 -718l125 25q18 2 45 -9q27 -10 44 -26t17 -32z" />
    <glyph glyph-name="imacron" unicode="&#x12b;" horiz-adv-x="468" 
d="M447.5 1138q125.5 17 185.5 -1q23 -6 42 -37t26.5 -62.5t0 -52t-53.5 0.5t-200 19t-221 -22q-20 -6 -23 7.5t14 53.5t60 59q44 18 169.5 35zM556 518q15 0 17 -11t-13 -27t-50 -54.5t-217.5 -232t-263.5 -193.5q-58 0 -111 55t-53 156.5t180 332t213 257.5
q38 26 97.5 -13t34.5 -66t-246.5 -292t-168.5 -311q29 -23 233 138t244 201t64.5 50t39.5 10z" />
    <glyph glyph-name="Iogonek" unicode="&#x12e;" horiz-adv-x="1173" 
d="M768 -34q0 -16 -42 -22q-42 -7 -220 -65q-26 -33 -108 -100q-83 -68 -133 -109q-185 -152 -169 -178q18 -36 140 38t151 108t39 20t10 -44q0 -85 -41 -116q-85 -75 -211 -101q-103 -22 -135 85q-18 70 8 135q14 42 171 149q42 28 85 52q-128 -39 -168 -58q-54 -19 -94 36
t-28 70t70 37t168 47t175 40q-38 29 -32 84t269 438q263 384 343 496q-131 -54 -213 -105q-20 -12 -52 -3q-32 10 -59 30t-39 44t6 38q53 41 339 133t374 102q44 4 99 -45q22 -18 29 -34t-13 -21q-181 -33 -379 -105q20 -26 30 -58t-6 -48q-37 -36 -154 -210
q-363 -538 -441 -718l125 25q18 2 45 -9q27 -10 44 -26t17 -32z" />
    <glyph glyph-name="iogonek" unicode="&#x12f;" horiz-adv-x="468" 
d="M491 896q-82 -25 -109 19q-28 43 14 104q43 62 115 87t115 -27t-6 -105q-47 -53 -129 -78zM556 518q15 0 17 -11t-14 -27t-63 -69q-240 -266 -373 -366q-30 -30 -114 -99l-129 -107q-169 -140 -154 -165q18 -36 138 37q119 73 150 107q49 55 52 -22q0 -82 -41 -115
q-82 -72 -211 -102q-104 -22 -136 85q-29 112 54 190q83 77 239 160q-43 23 -75 66t-31 92q0 149 271 488q92 117 116 135q44 33 103 -8q59 -37 32 -70q-67 -67 -216 -257t-190 -281q-22 -46 -9 -57q32 -27 299 185q147 117 184 154t61 47t40 10z" />
    <glyph glyph-name="Idotaccent" unicode="&#x130;" horiz-adv-x="1173" 
d="M1019 1251q-111 46 3 146q31 27 67 45t54 17t55 -23q37 -21 32 -44t-25 -53t-61 -57q-42 -28 -66 -36t-59 5zM768 -34q0 -16 -34 -21q-108 -19 -589 -185q-54 -19 -94 36t-28 70t70 37t168 47t175 40q-38 29 -32 84t269 438q263 384 343 496q-131 -54 -213 -105
q-20 -12 -52 -3q-32 10 -59 30t-39 44t6 38q53 41 339 133t374 102q44 4 99 -45q22 -18 29 -34t-13 -21q-181 -33 -379 -105q20 -26 30 -58t-6 -48q-37 -36 -154 -210q-363 -538 -441 -718l125 25q18 2 45 -9q27 -10 44 -26t17 -32z" />
    <glyph glyph-name="dotlessi" unicode="&#x131;" horiz-adv-x="468" 
d="M556 518q15 0 17 -11t-13 -27t-50 -54.5t-217.5 -232t-263.5 -193.5q-58 0 -111 55t-53 156.5t180 332t213 257.5q38 26 97.5 -13t34.5 -66t-246.5 -292t-168.5 -311q29 -23 233 138t244 201t64.5 50t39.5 10z" />
    <glyph glyph-name="Jcircumflex" unicode="&#x134;" horiz-adv-x="1359" 
d="M1667 1329q0 -28 -62 -37t-63 19q-3 22 28 100t46 100q-33 -42 -139 -138q-106 -97 -139 -97q-58 0 -86 33q-11 11 -11 25t14 20q28 10 118 69q91 60 136 93t70 53t57 27t58 3q27 -4 39 -17q12 -14 1 -32t-39 -96t-28 -125zM1350 1217q10 25 30 11q46 -34 63 -99
q17 -64 9 -91q-69 -200 -250 -479q-181 -280 -396 -512q-216 -232 -365 -270q-149 -39 -276 -8q-128 31 -139 106q-20 140 91 320q47 76 105 130t100 59q76 9 146 -44q28 -20 38 -40t-17 -26q-77 -19 -176 -114q-98 -95 -153 -193t-10 -117q84 -37 228 37t312 249t341 447
q174 272 319 634z" />
    <glyph glyph-name="jcircumflex" unicode="&#x135;" horiz-adv-x="380" 
d="M-522 -303q21 -26 128 121q30 41 56 82q-89 -54 -144 -118q-56 -65 -40 -85zM569 977q0 -15 -18 -25t-42 -13q-63 -8 -65 19q-2 16 20 78t36 88t18 35q-33 -42 -140 -139t-138 -97q-59 2 -85 33q-11 12 -11 26t14 19q42 15 171 105t153 110q49 41 114 31q27 -4 39 -17
t0 -34q-34 -54 -50 -130q-16 -75 -16 -89zM468 520q15 0 17 -11t-18 -34q-284 -281 -631 -498q-177 -268 -255 -334q-33 -30 -57 -31t-50 12q-53 27 -70 89q-17 61 41 119q94 94 301 211q304 537 455 733q14 20 43 18q59 -3 93 -48q15 -19 3 -33q-41 -49 -92 -127
q-240 -366 -352 -475q205 120 374 264q62 51 98 87t60 47t40 11z" />
    </font>
</defs>
</svg>
