<?xml version="1.0" encoding="utf-8"?>
<!-- Generator: Adobe Illustrator 19.0.0, SVG Export Plug-In . SVG Version: 6.00 Build 0)  -->
<svg version="1.1" id="Camada_1" xmlns="http://www.w3.org/2000/svg" xmlns:xlink="http://www.w3.org/1999/xlink" x="0px" y="0px"
	 viewBox="-290 246.7 260 103.6" style="enable-background:new -290 246.7 260 103.6;" xml:space="preserve">
<style type="text/css">
	.st0{enable-background:new    ;}
</style>
<g transform="translate(-140 -34)">
	<g transform="translate(-691.942 -425.161)">
		<path d="M647.5,763.9c8.4-1.3,16.9-1.9,25.4-2.6c4.5-0.3,9-0.8,13.5-1.1c6.1-0.2,12.3-0.7,18.4-1.5c7.4-1.2,14.9-1.2,22.3-2.4
			c0.5,0.5,0.5,1.3,0,1.8c-0.1,0.1-0.1,0.1-0.2,0.2c-6.5,0.2-12.8,1.3-19.3,1.9c-12.8,1.2-25.5,2.2-38.3,3.3
			c-5.5,0.5-11,0.9-16.5,1.6c-1.7,0.1-3.5,0.1-5.2,0C647.1,764.8,647.1,764.2,647.5,763.9C647.4,763.9,647.5,763.9,647.5,763.9z"/>
		<path d="M728.9,755.8c5.4,0.6,10.6-1,15.8-1.7c9.5-1.3,19-3.2,28.3-5.7c8-2.1,16.2-4.1,23-9.4c0.5,0.3,0.9,0.7,1.1,1.3
			c-5.6,4.7-12.4,6.7-19.2,8.6c-14.9,4-30,6.9-45.3,8.5c-1.6,0.3-3.2,0.8-4.6,1.7C727,757.6,729.6,757.2,728.9,755.8z"/>
		<path d="M612.2,761.3c-1-3.2-0.2-6.3,0.2-9.4c0.9-6.9,2.8-13.6,5.7-20c0.2-0.3,0.6-0.3,0.9-0.1c0.1,0.1,0.1,0.1,0.2,0.2
			c-2.1,5.4-3.8,11-5.1,16.7c-0.5,3.4-0.7,6.8-0.7,10.3c7.4-13.5,16.6-25.9,24.8-38.9c-0.4,3.6-2.6,6.5-4.5,9.3
			c-6.6,9.9-13.1,19.8-18.7,30.3c-1.1,2.2-1.6,4.7-1.3,7.2l-0.4,0.2c-0.4-0.2-0.7-0.6-0.8-1C612,764.5,613.5,762.8,612.2,761.3z"/>
		<path d="M610.8,771.2c-0.6-1.1-1.9-1.7-3.1-1.3c-15.8,2.6-31.7,4.7-47.4,8.5c-3.6,0.9-6.9,2.5-10.7,2.7c-0.5-0.2-1.2,0-1.6-0.6
			c4.4-2,9.1-2.8,13.8-3.9c7.9-1.9,15.9-3.8,23.9-4.9c6.9-1,13.8-2.7,20.8-3.2c1.6-0.1,3.2-0.6,4.6-1.5
			C611.9,768.2,611.8,769.9,610.8,771.2z"/>
		<path d="M561.4,793.2c5,1.2,9.8,2.6,14.6,4.3c3.6,1.2,7.2,2.2,11,3c6.1,1.1,12,2.6,17.9,4.2c3.3,0.9,6.6,1.5,9.9,2.2
			c0.9,0.2,2.5-0.1,2.3,1.3c-0.3,1.3-1.8,0.7-2.7,0.5c-4.1-0.8-8.2-1.7-12.3-2.8c-10.8-3-21.9-4.9-32.5-8.5c-2.8-1-5.6-2-8.4-3
			c-0.3-0.3-0.3-0.8,0-1.1C561.4,793.2,561.4,793.2,561.4,793.2z"/>
		<path d="M728.9,755.8c1.9,1.6-1.2,2-0.8,3.2c-0.5,2.9,0,5.8,0.4,8.7c-1.8-2.9-2-6.1-1.8-9.4l0.2-2c4.1-12.2,12.2-21.1,23.1-27.6
			c1.1,0,1.1,0.6,0.6,1.3c-5.5,4-10.9,8-15.2,13.3C732.4,747.1,730.3,751.3,728.9,755.8z"/>
		<path d="M647.5,763.9l-0.1,1.2c-4,1.3-8.2,1.3-12.3,1.6c-7,0.5-14,1.4-20.9,2.9c-0.8-0.6-1-1.7-0.5-2.6l0.2-0.1
			c4.7-0.2,9.3-0.6,14-1.2C634.3,764.9,640.9,764.5,647.5,763.9z"/>
		<path d="M613.6,767c0.5,0.8,0.7,1.7,0.5,2.6c2.3,2.3,0.7,5.5,1.8,8.1c1.2,2.7,2.1,5.6,3.2,8.4c1.4,4,4.9,6.9,6,11
			c-0.4,0.3-0.8-0.1-1.2-0.1c-3.8-5-6.6-10.6-8.5-16.6c-0.8-2.4-2-4.6-3.6-6.6c1.2-1.4-0.7-2.6-0.3-3.9c0.1-1.4-0.5-3,1.4-3.7
			L613.6,767z"/>
		<path d="M561.4,793.2c0,0.4-0.1,0.8-0.1,1.2c-2.6,0.4-4.5-1.5-6.6-2.4c-3.1-1.3-6.6-1.5-9.5-3.5c-4.5-3.1-4.5-4.2,0.3-7
			c0.5,0.4,1,0.7,1.1,1.3c-0.8,0.8-2.8,0.5-2.8,2c0,1.5,1.7,2,2.9,2.5C551.6,789.3,556.5,791.2,561.4,793.2z"/>
		<path d="M750.6,730.1c0.1-0.5-0.1-1-0.6-1.3c4.5-3.1,9.7-4.6,14.6-6.7c0.6-0.3,1.6-0.4,1.8,0.5c0.3,1-0.6,1.1-1.3,1.3
			C760,725.1,755.4,727.8,750.6,730.1z"/>
		<path d="M800.4,728.7c-2-3.9-5.4-5.7-9.5-6.4c-1.6-0.4-3.2-0.8-4.7-1.4c5.6-1.8,12.9,1.6,15,6.5
			C800.8,727.9,801,728.5,800.4,728.7z"/>
		<path d="M619.2,732l-1.1-0.1c2.2-5.3,5.1-10.2,8.8-14.5C624.7,722.5,621.4,727,619.2,732z"/>
		<path d="M624,797c0.4-0.7,0.8-0.1,1.2,0.1c0.9,2.1,2.4,3.7,2.9,6c0.7,3.4,0.2,4.5-3.1,5.8c-0.7,0.2-1.5,0.5-1.8-0.4
			c-0.2-0.8,0.9-0.5,1.3-0.9c2.8-0.6,2.9-2.4,2-4.7C625.6,800.9,624.8,799,624,797z"/>
		<path d="M800.4,728.7c0.1-0.5,0.2-1,0.8-1.2c1.8,5.2,0.6,9.3-4,12.8c-0.8-0.1-1.2-0.4-1.1-1.3
			C799.9,736.6,801.3,733.1,800.4,728.7z"/>
		<path d="M639.1,718.6c0.5-4.2,3.5-8.4,0.4-12.8C643.2,706.1,643,713.1,639.1,718.6z"/>
		<path d="M613,766.3c-1.1,1.3-0.6,3-0.9,4.4c-0.3,0.6,0.1,1.4-0.7,1.8l-0.5-1.3c0-1.5-0.6-3,0.3-4.4l1-5.5
			C614.7,762.6,612.6,764.6,613,766.3z"/>
		<path d="M624.5,807.6l-0.8,1l1.4,0.3c-1.8,1.1-3.7,0.1-5.6,0.2c-0.5,0-1-0.2-1-0.9c0-0.8,0.6-0.9,1.3-0.9
			C621.3,807.4,622.9,807.5,624.5,807.6z"/>
		<path d="M627.7,716.1c1.4-2.9,2.8-4.6,5.5-5.9C632.3,713.2,630.5,714.5,627.7,716.1z"/>
		<path d="M742.5,775c-1.2,1.7-3,1-5,1.5c1.1-2.1,4-1.8,4-4.2C743.2,772.6,741.9,774.1,742.5,775z"/>
		<path d="M742.5,775c-1.1-0.6,0-2-1-2.7c-0.2-0.9-1.2-1.7-0.2-2.9C743.4,770.9,744.1,772.7,742.5,775z"/>
		<path d="M546.6,782.8c-0.6,0-1.1-0.4-1.1-1c0-0.1,0-0.2,0-0.3c0.7-0.6,1.6-1,2.5-1.1c0.5,0.2,1.3-0.1,1.6,0.6L546.6,782.8z"/>
		<path d="M770.9,722.2c-0.4,0.7-1.3,1.1-2.1,0.9c-0.5-0.1-0.8-0.6-0.7-1.1c0,0,0-0.1,0-0.1c0.4-1,1.2-1,2-0.8
			C770.8,721.1,771.1,721.6,770.9,722.2z"/>
		<path d="M611.4,772.5c0.2-0.6-0.1-1.4,0.7-1.8c0.5,0.8,0.8,1.6,1.1,2.5c0.6,2.3-0.8,0.7-1.4,0.7L611.4,772.5z"/>
	</g>
	<g class="st0">
		<path d="M-113.6,325.9h2.4v12.9c0,1.6-0.5,2.8-1.5,3.8c-1,0.9-2.3,1.4-3.9,1.4c-1.7,0-3.1-0.4-4.1-1.3c-1-0.9-1.5-2.1-1.5-3.8
			l0-0.1h2.3c0,1.1,0.3,1.9,0.8,2.5c0.6,0.5,1.3,0.8,2.4,0.8c0.9,0,1.6-0.3,2.2-0.9s0.8-1.4,0.8-2.4V325.9z"/>
		<path d="M-91.5,325.9v12c0,1.9-0.6,3.4-1.9,4.4c-1.3,1-2.9,1.5-4.9,1.5c-2,0-3.5-0.5-4.8-1.5c-1.2-1-1.8-2.5-1.8-4.4v-12h2.4v12
			c0,1.3,0.4,2.4,1.1,3.1c0.8,0.7,1.8,1,3,1c1.3,0,2.4-0.3,3.2-1c0.8-0.7,1.2-1.7,1.2-3.1v-12H-91.5z"/>
		<path d="M-82.7,341.8h8.4v1.9h-10.8v-17.8h2.4V341.8z"/>
		<path d="M-66.5,343.7H-69v-17.8h2.4V343.7z"/>
		<path d="M-46.1,336.4c0,2.2-0.7,4-2,5.4c-1.3,1.4-3.1,2.1-5.2,2.1c-2.1,0-3.8-0.7-5.1-2.1c-1.3-1.4-1.9-3.2-1.9-5.4v-3.2
			c0-2.2,0.6-4,1.9-5.4c1.3-1.4,3-2.2,5.1-2.2c2.1,0,3.9,0.7,5.2,2.2c1.3,1.4,2,3.2,2,5.4V336.4z M-48.5,333.2c0-1.6-0.4-3-1.3-4
			c-0.9-1-2.1-1.6-3.5-1.6c-1.4,0-2.5,0.5-3.4,1.6c-0.8,1-1.3,2.4-1.3,4v3.2c0,1.6,0.4,3,1.3,4c0.8,1,2,1.6,3.4,1.6
			c1.5,0,2.7-0.5,3.5-1.6c0.9-1,1.3-2.4,1.3-4V333.2z"/>
		<path d="M-27.1,341.3c-0.4,0.7-1.2,1.2-2.2,1.8c-1,0.5-2.4,0.8-4.1,0.8c-2.1,0-3.9-0.7-5.3-2c-1.4-1.4-2.1-3.1-2.1-5.3v-3.7
			c0-2.2,0.6-3.9,1.9-5.3s3-2,5-2c2,0,3.6,0.5,4.8,1.5c1.2,1,1.8,2.3,1.8,3.9l0,0.1h-2.3c-0.1-1-0.5-1.9-1.2-2.6
			c-0.7-0.7-1.7-1-3.1-1c-1.4,0-2.5,0.5-3.3,1.5c-0.8,1-1.2,2.3-1.2,3.9v3.7c0,1.6,0.5,2.9,1.4,3.9s2.1,1.5,3.5,1.5
			c1,0,1.8-0.1,2.5-0.4c0.6-0.3,1.1-0.6,1.4-0.9v-4h-3.9v-1.9h6.3V341.3z"/>
		<path d="M-7,343.7h-2.4v-7.8H-18v7.8h-2.4v-17.8h2.4v8h8.6v-8H-7V343.7z"/>
		<path d="M2.4,343.7H0v-17.8h2.4V343.7z"/>
		<path d="M19.1,339.2c0-0.8-0.3-1.5-0.9-2c-0.6-0.5-1.7-1-3.2-1.4c-1.9-0.4-3.3-1.1-4.4-2c-1.1-0.9-1.6-2-1.6-3.3
			c0-1.4,0.6-2.5,1.7-3.5c1.1-0.9,2.6-1.4,4.4-1.4c1.9,0,3.5,0.5,4.6,1.6c1.2,1.1,1.7,2.3,1.7,3.7l0,0.1h-2.3c0-1-0.3-1.9-1-2.5
			c-0.7-0.6-1.7-1-3-1c-1.2,0-2.1,0.3-2.8,0.8c-0.6,0.5-1,1.2-1,2.1c0,0.8,0.3,1.4,1,1.9c0.7,0.5,1.8,1,3.4,1.4
			c1.9,0.5,3.3,1.1,4.3,2.1s1.5,2,1.5,3.4c0,1.4-0.6,2.6-1.8,3.5s-2.7,1.3-4.6,1.3c-1.8,0-3.3-0.5-4.7-1.4c-1.4-1-2-2.3-2-3.9l0-0.1
			h2.3c0,1.1,0.4,2,1.3,2.6c0.8,0.6,1.9,0.9,3.1,0.9c1.2,0,2.2-0.3,2.9-0.8C18.8,340.7,19.1,340.1,19.1,339.2z"/>
		<path d="M30,341.8h8.4v1.9H27.6v-17.8H30V341.8z"/>
		<path d="M56.7,336.4c0,2.2-0.7,4-2,5.4c-1.3,1.4-3.1,2.1-5.2,2.1c-2.1,0-3.8-0.7-5.1-2.1c-1.3-1.4-1.9-3.2-1.9-5.4v-3.2
			c0-2.2,0.6-4,1.9-5.4c1.3-1.4,3-2.2,5.1-2.2c2.1,0,3.9,0.7,5.2,2.2c1.3,1.4,2,3.2,2,5.4V336.4z M54.3,333.2c0-1.6-0.4-3-1.3-4
			c-0.9-1-2.1-1.6-3.5-1.6c-1.4,0-2.5,0.5-3.4,1.6c-0.8,1-1.3,2.4-1.3,4v3.2c0,1.6,0.4,3,1.3,4s2,1.6,3.4,1.6c1.5,0,2.7-0.5,3.5-1.6
			c0.9-1,1.3-2.4,1.3-4V333.2z"/>
		<path d="M74.5,327.8h-5.7v15.9h-2.4v-15.9h-5.7v-1.9h13.8V327.8z"/>
		<path d="M82.1,343.7h-2.4v-17.8h2.4V343.7z"/>
	</g>
</g>
</svg>
