<?xml version="1.0" encoding="utf-8"?>
<!-- Generator: Adobe Illustrator 23.0.4, SVG Export Plug-In . SVG Version: 6.00 Build 0)  -->
<svg version="1.1" id="Camada_1" xmlns="http://www.w3.org/2000/svg" xmlns:xlink="http://www.w3.org/1999/xlink" x="0px" y="0px"
	 viewBox="0 0 1930 283" style="enable-background:new 0 0 1930 283;" xml:space="preserve">
<style type="text/css">
	.st0{enable-background:new    ;}
</style>
<g class="st0">
	<path d="M28.2,170v106H-7.6V5.1h99.9c29.6,0,52.9,7.6,69.7,22.7C178.8,43,187.2,63,187.2,87.9c0,26.3-8.2,46.5-24.6,60.7
		c-16.4,14.2-40,21.3-70.6,21.3H28.2z M28.2,140.8h64.2c19.1,0,33.7-4.5,43.9-13.5c10.2-9,15.3-22,15.3-39
		c0-16.2-5.1-29.1-15.3-38.8c-10.2-9.7-24.1-14.7-41.9-15.1H28.2V140.8z"/>
	<path d="M351.2,166.4h-63.6V276h-35.9V5.1h89.7c30.5,0,54,6.9,70.4,20.8c16.4,13.9,24.6,34.1,24.6,60.6c0,16.9-4.6,31.6-13.7,44.1
		c-9.1,12.5-21.8,21.9-38,28.1l63.6,115v2.2H410L351.2,166.4z M287.6,137.2h54.9c17.7,0,31.8-4.6,42.3-13.8
		c10.5-9.2,15.7-21.5,15.7-36.9c0-16.8-5-29.6-15-38.6c-10-8.9-24.4-13.5-43.3-13.6h-54.7V137.2z"/>
	<path d="M713.8,149.3c0,26.5-4.5,49.7-13.4,69.5c-8.9,19.8-21.6,34.9-38,45.3s-35.5,15.6-57.3,15.6c-21.3,0-40.2-5.2-56.7-15.7
		c-16.5-10.5-29.3-25.4-38.4-44.8c-9.1-19.4-13.8-41.9-14-67.4v-19.5c0-26,4.5-49,13.6-69c9.1-20,21.9-35.3,38.4-45.9
		c16.6-10.6,35.5-15.9,56.8-15.9c21.7,0,40.8,5.2,57.4,15.7c16.6,10.5,29.3,25.7,38.2,45.6c8.9,19.9,13.4,43.1,13.4,69.5V149.3z
		 M678.3,131.8c0-32.1-6.5-56.8-19.3-73.9c-12.9-17.2-30.9-25.8-54.1-25.8c-22.6,0-40.3,8.6-53.3,25.8c-13,17.2-19.6,41-20,71.5
		v19.9c0,31.1,6.5,55.6,19.6,73.4c13.1,17.8,31.1,26.7,54,26.7c23.1,0,40.9-8.4,53.6-25.2c12.7-16.8,19.2-40.9,19.5-72.3V131.8z"/>
	<path d="M900,5.1h35.9v191.8c0,25.9-7.8,46.2-23.3,60.8c-15.6,14.6-36.3,22-62.2,22c-26.9,0-47.9-6.9-62.9-20.7
		c-15-13.8-22.5-33-22.5-57.9h35.7c0,15.5,4.2,27.6,12.7,36.3c8.5,8.7,20.8,13,36.9,13c14.8,0,26.7-4.7,35.8-14
		c9.1-9.3,13.7-22.3,13.9-39.1V5.1z"/>
	<path d="M1168.9,150.8h-117.4v96h136.4V276h-172.1V5.1H1186v29.2h-134.5v87.3h117.4V150.8z"/>
	<path d="M1442.2,34.3h-87.1V276h-35.5V34.3h-86.9V5.1h209.5V34.3z"/>
	<path d="M1704.6,149.3c0,26.5-4.5,49.7-13.4,69.5c-8.9,19.8-21.6,34.9-38,45.3s-35.5,15.6-57.3,15.6c-21.3,0-40.2-5.2-56.7-15.7
		c-16.5-10.5-29.3-25.4-38.4-44.8c-9.1-19.4-13.8-41.9-14-67.4v-19.5c0-26,4.5-49,13.6-69c9.1-20,21.9-35.3,38.4-45.9
		c16.6-10.6,35.5-15.9,56.8-15.9c21.7,0,40.8,5.2,57.4,15.7c16.6,10.5,29.3,25.7,38.2,45.6c8.9,19.9,13.4,43.1,13.4,69.5V149.3z
		 M1669.1,131.8c0-32.1-6.5-56.8-19.3-73.9c-12.9-17.2-30.9-25.8-54.1-25.8c-22.6,0-40.3,8.6-53.3,25.8c-13,17.2-19.6,41-20,71.5
		v19.9c0,31.1,6.5,55.6,19.6,73.4c13.1,17.8,31.1,26.7,54,26.7c23.1,0,40.9-8.4,53.6-25.2c12.7-16.8,19.2-40.9,19.5-72.3V131.8z"/>
	<path d="M1857,155.3c-30.6-8.8-52.9-19.6-66.9-32.5c-14-12.8-20.9-28.7-20.9-47.5c0-21.3,8.5-39,25.6-52.9
		c17.1-14,39.2-20.9,66.5-20.9c18.6,0,35.2,3.6,49.8,10.8c14.6,7.2,25.9,17.1,33.9,29.8c8,12.7,12,26.5,12,41.5H1921
		c0-16.4-5.2-29.3-15.6-38.7c-10.4-9.4-25.1-14.1-44.1-14.1c-17.6,0-31.3,3.9-41.2,11.7c-9.9,7.8-14.8,18.5-14.8,32.3
		c0,11.1,4.7,20.4,14,28.1c9.4,7.6,25.3,14.6,47.8,21c22.5,6.3,40.1,13.3,52.8,20.9c12.7,7.6,22.1,16.5,28.3,26.7
		c6.1,10.2,9.2,22.1,9.2,35.9c0,22-8.6,39.5-25.7,52.7c-17.1,13.2-40,19.8-68.6,19.8c-18.6,0-36-3.6-52.1-10.7
		c-16.1-7.1-28.6-16.9-37.3-29.3c-8.7-12.4-13.1-26.5-13.1-42.2h35.9c0,16.4,6,29.3,18.1,38.8c12.1,9.5,28.2,14.2,48.5,14.2
		c18.8,0,33.3-3.8,43.3-11.5c10-7.7,15.1-18.2,15.1-31.4c0-13.3-4.7-23.5-14-30.8C1898.3,169.5,1881.5,162.3,1857,155.3z"/>
</g>
</svg>
